<svg width="1412" height="1124" fill="none" xmlns="http://www.w3.org/2000/svg"><ellipse cx="1152.62" cy="898.736" rx="85.814" ry="85.551" transform="rotate(-152.88 1152.62 898.736)" fill="#04000E"/><path d="M1076.69 859.845c21.41-41.807 72.76-58.289 114.7-36.81 41.94 21.48 58.58 72.785 37.16 114.592-21.41 41.806-72.76 58.288-114.7 36.809-41.94-21.48-58.58-72.785-37.16-114.591Z" stroke="#fff" stroke-opacity=".5"/><path d="M139.229 271.525c76.709-149.773 260.622-208.844 410.782-131.937 150.161 76.906 209.704 260.667 132.995 410.44-76.708 149.773-260.621 208.844-410.781 131.937-150.161-76.906-209.704-260.667-132.996-410.44Z" stroke="#E3E3E3" stroke-opacity=".2" stroke-width=".5"/><path d="M221.289 313.553c53.557-104.569 181.962-145.811 286.802-92.116C612.931 275.132 654.502 403.431 600.946 508c-53.557 104.569-181.962 145.812-286.802 92.117-104.839-53.696-146.411-181.995-92.855-286.564Z" stroke="#E3E3E3" stroke-opacity=".2" stroke-width=".5"/></svg>