<svg width="19" height="19" fill="none" xmlns="http://www.w3.org/2000/svg"><path d="M15.057 10.25c-.165 0-.337-.053-.502-.09a7.398 7.398 0 0 1-.982-.293 1.5 1.5 0 0 0-1.86.75l-.165.345a9.875 9.875 0 0 1-2.003-1.5 9.877 9.877 0 0 1-1.5-2.002l.345-.157a1.5 1.5 0 0 0 .75-1.86 7.852 7.852 0 0 1-.292-.99 5.886 5.886 0 0 1-.09-.503 2.25 2.25 0 0 0-2.25-1.868H4.25a2.25 2.25 0 0 0-1.68.75 2.25 2.25 0 0 0-.547 1.8 14.302 14.302 0 0 0 4.057 8.25 14.302 14.302 0 0 0 8.25 4.058c.097.007.195.007.293 0a2.25 2.25 0 0 0 2.054-1.33c.13-.29.196-.603.195-.92v-2.25a2.25 2.25 0 0 0-1.815-2.19Zm.368 4.5a.75.75 0 0 1-.534.718.75.75 0 0 1-.329.024 12.87 12.87 0 0 1-7.402-3.63A12.87 12.87 0 0 1 3.5 4.438a.75.75 0 0 1 .442-.799.75.75 0 0 1 .308-.063H6.5a.75.75 0 0 1 .75.585c0 .202.068.412.113.615.086.393.201.779.345 1.155l-1.05.495a.75.75 0 0 0-.39.42.75.75 0 0 0 0 .57 10.867 10.867 0 0 0 5.25 5.25.75.75 0 0 0 .57 0 .75.75 0 0 0 .42-.39l.472-1.05a9.312 9.312 0 0 0 1.793.457.75.75 0 0 1 .585.75l.067 2.318ZM11 2h-.525a.753.753 0 1 0 .127 1.5H11A4.5 4.5 0 0 1 15.5 8v.398a.75.75 0 0 0 .683.81h.06a.75.75 0 0 0 .75-.683V8A6 6 0 0 0 11 2Zm1.5 6A.75.75 0 1 0 14 8a3 3 0 0 0-3-3 .75.75 0 1 0 0 1.5A1.5 1.5 0 0 1 12.5 8Z" fill="#04000E" fill-opacity=".7"/></svg>