<svg width="68" height="73" fill="none" xmlns="http://www.w3.org/2000/svg"><path fill-rule="evenodd" clip-rule="evenodd" d="M12.828 23.286a14.02 14.02 0 0 1 3.302-.393c8.798 0 15.927 8.148 15.927 18.195 0 10.05-7.13 18.198-15.927 18.198S.2 51.141.2 41.088c0-.294.006-.59.02-.885H.2C.2 25.038 11 12.7 24.275 12.7v6.108c-4.306 0-8.277 1.674-11.447 4.48Zm35.646 0a13.954 13.954 0 0 1 3.296-.393c8.798 0 15.93 8.148 15.93 18.195 0 10.05-7.132 18.198-15.93 18.198-8.797 0-15.927-8.145-15.927-18.198 0-.294.006-.59.02-.885h-.02c0-15.165 10.8-27.504 24.075-27.504v6.108c-4.309 0-8.274 1.674-11.444 4.48Z" fill="#C6E74A"/></svg>