<svg width="68" height="73" fill="none" xmlns="http://www.w3.org/2000/svg"><path fill-rule="evenodd" clip-rule="evenodd" d="M12.628 22.887a14.01 14.01 0 0 1 3.302-.393c8.797 0 15.927 8.148 15.927 18.195 0 10.05-7.13 18.198-15.927 18.198S0 50.742 0 40.689c0-.294.006-.591.02-.885H0C0 24.639 10.8 12.3 24.075 12.3v6.108c-4.306 0-8.277 1.674-11.447 4.479Zm35.646 0a13.954 13.954 0 0 1 3.296-.393c8.797 0 15.93 8.148 15.93 18.195 0 10.05-7.133 18.198-15.93 18.198s-15.927-8.145-15.927-18.198c0-.294.005-.591.02-.885h-.02c0-15.165 10.8-27.504 24.075-27.504v6.108c-4.309 0-8.275 1.674-11.444 4.479Z" fill="#C6E74A"/></svg>