<svg width="1754" height="838" fill="none" xmlns="http://www.w3.org/2000/svg"><path fill-rule="evenodd" clip-rule="evenodd" d="M80.686 46.179V0h1.424v46.179h52.873V0h1.424v46.179h53.889V0h1.424v46.179h53.127V0h1.424v46.179h53.889V0h1.424v46.179h52.874V0h1.424v46.179h82.56v1.424h-82.56v47.8h82.56v1.423h-82.56v47.545h82.56v1.424h-82.56v49.068h82.56v1.424h-82.56v47.546h82.56v1.424h-82.56v33.844h-1.424v-33.844h-52.874v33.844h-1.424v-33.844h-53.889v33.844h-1.424v-33.844H191.72v33.844h-1.424v-33.844h-53.889v33.844h-1.424v-33.844H82.11v33.844h-1.424v-33.844H0v-1.424h80.686v-47.546H0v-1.424h80.686v-49.068H0v-1.424h80.686V96.826H0v-1.424h80.686v-47.8H0V46.18h80.686Zm273.772 197.654v-47.546h-52.874v47.546h52.874Zm0-48.97v-49.068h-52.874v49.068h52.874Zm0-50.492V96.826h-52.874v47.545h52.874Zm0-48.969v-47.8h-52.874v47.8h52.874Zm-108.187-47.8h53.889v47.8h-53.889v-47.8Zm0 49.224h53.889v47.545h-53.889V96.826Zm0 48.969h53.889v49.068h-53.889v-49.068Zm0 50.492h53.889v47.546h-53.889v-47.546Zm-54.551 47.546h53.127v-47.546H191.72v47.546Zm-1.424-47.546v47.546h-53.889v-47.546h53.889Zm1.424-1.424h53.127v-49.068H191.72v49.068Zm-1.424-49.068v49.068h-53.889v-49.068h53.889Zm1.424-1.424h53.127V96.826H191.72v47.545Zm-1.424-47.545v47.545h-53.889V96.826h53.889Zm1.424-1.424h53.127v-47.8H191.72v47.8Zm-1.424-47.8v47.8h-53.889v-47.8h53.889ZM82.11 243.834h52.873v-47.546H82.11v47.546Zm52.873-98.038v49.068H82.11v-49.068h52.873ZM82.11 96.826v47.545h52.873V96.826H82.11Zm52.873-1.424H82.11v-47.8h52.873v47.8Z" fill="#1B1E2D" fill-opacity=".5"/><path fill-rule="evenodd" clip-rule="evenodd" d="M80.605 46.162V0h2v46.162h52.243V0h2v46.162h53.257V0h2v46.162H244.6V0h2v46.162h53.258V0h2v46.162h52.243V0h2v46.162h52.17V0h2v46.162H438v2h-27.729v47.206H438v2h-27.729v46.951H438v2h-27.729v48.474H438v2h-27.729v46.952H438v2h-27.729V279h-2v-33.255h-52.17V279h-2v-33.255h-52.243V279h-2v-33.255H246.6V279h-2v-33.255h-52.495V279h-2v-33.255h-53.257V279h-2v-33.255H82.605V279h-2v-33.255H28.317V279h-2v-33.255H0v-2h26.317v-46.952H0v-2h26.317v-48.474H0v-2h26.317V97.368H0v-2h26.317V48.162H0v-2h26.317V0h2v46.162h52.288Zm-52.288 2v47.206h52.288V48.162H28.317Zm0 49.206v46.951h52.288V97.368H28.317Zm0 48.951v48.474h52.288v-48.474H28.317Zm0 50.474v46.952h52.288v-46.952H28.317ZM356.101 48.162h52.17v47.206h-52.17V48.162Zm0 49.206h52.17v46.951h-52.17V97.368Zm0 48.951h52.17v48.474h-52.17v-48.474Zm0 50.474h52.17v46.952h-52.17v-46.952Zm-2 46.952v-46.952h-52.243v46.952h52.243Zm0-48.952v-48.474h-52.243v48.474h52.243Zm0-50.474V97.368h-52.243v46.951h52.243Zm0-48.951V48.162h-52.243v47.206h52.243ZM246.6 48.162h53.258v47.206H246.6V48.162Zm0 49.206h53.258v46.951H246.6V97.368Zm0 48.951h53.258v48.474H246.6v-48.474Zm0 50.474h53.258v46.952H246.6v-46.952Zm-54.495 46.952H244.6v-46.952h-52.495v46.952Zm-2-46.952v46.952h-53.257v-46.952h53.257Zm2-2H244.6v-48.474h-52.495v48.474Zm-2-48.474v48.474h-53.257v-48.474h53.257Zm2-2H244.6V97.368h-52.495v46.951Zm-2-46.951v46.951h-53.257V97.368h53.257Zm2-2H244.6V48.162h-52.495v47.206Zm-2-47.206v47.206h-53.257V48.162h53.257Zm-107.5 195.583h52.243v-46.952H82.605v46.952Zm52.243-97.426v48.474H82.605v-48.474h52.243ZM82.605 97.368v46.951h52.243V97.368H82.605Zm52.243-2H82.605V48.162h52.243v47.206ZM519.605 46.162V0h2v46.162h52.243V0h2v46.162h53.257V0h2v46.162H683.6V0h2v46.162h53.258V0h2v46.162h52.243V0h2v46.162h52.17V0h2v46.162H877v2h-27.729v47.206H877v2h-27.729v46.951H877v2h-27.729v48.474H877v2h-27.729v46.952H877v2h-27.729V279h-2v-33.255h-52.17V279h-2v-33.255h-52.243V279h-2v-33.255H685.6V279h-2v-33.255h-52.495V279h-2v-33.255h-53.257V279h-2v-33.255h-52.243V279h-2v-33.255h-52.288V279h-2v-33.255H439v-2h26.317v-46.952H439v-2h26.317v-48.474H439v-2h26.317V97.368H439v-2h26.317V48.162H439v-2h26.317V0h2v46.162h52.288Zm-52.288 2v47.206h52.288V48.162h-52.288Zm0 49.206v46.951h52.288V97.368h-52.288Zm0 48.951v48.474h52.288v-48.474h-52.288Zm0 50.474v46.952h52.288v-46.952h-52.288ZM795.101 48.162h52.17v47.206h-52.17V48.162Zm0 49.206h52.17v46.951h-52.17V97.368Zm0 48.951h52.17v48.474h-52.17v-48.474Zm0 50.474h52.17v46.952h-52.17v-46.952Zm-2 46.952v-46.952h-52.243v46.952h52.243Zm0-48.952v-48.474h-52.243v48.474h52.243Zm0-50.474V97.368h-52.243v46.951h52.243Zm0-48.951V48.162h-52.243v47.206h52.243ZM685.6 48.162h53.258v47.206H685.6V48.162Zm0 49.206h53.258v46.951H685.6V97.368Zm0 48.951h53.258v48.474H685.6v-48.474Zm0 50.474h53.258v46.952H685.6v-46.952Zm-54.495 46.952H683.6v-46.952h-52.495v46.952Zm-2-46.952v46.952h-53.257v-46.952h53.257Zm2-2H683.6v-48.474h-52.495v48.474Zm-2-48.474v48.474h-53.257v-48.474h53.257Zm2-2H683.6V97.368h-52.495v46.951Zm-2-46.951v46.951h-53.257V97.368h53.257Zm2-2H683.6V48.162h-52.495v47.206Zm-2-47.206v47.206h-53.257V48.162h53.257Zm-107.5 195.583h52.243v-46.952h-52.243v46.952Zm52.243-97.426v48.474h-52.243v-48.474h52.243Zm-52.243-48.951v46.951h52.243V97.368h-52.243Zm52.243-2h-52.243V48.162h52.243v47.206ZM957.859 46.179V0h1.424v46.179h52.877V0h1.42v46.179h53.89V0h1.42v46.179h53.13V0h1.42v46.179h53.89V0h1.43v46.179h52.87V0h1.43v46.179h82.56v1.424h-82.56v47.8h82.56v1.423h-82.56v47.545h82.56v1.424h-82.56v49.068h82.56v1.424h-82.56v47.546h82.56v1.424h-82.56v33.844h-1.43v-33.844h-52.87v33.844h-1.43v-33.844h-53.89v33.844h-1.42v-33.844h-53.13v33.844h-1.42v-33.844h-53.89v33.844h-1.42v-33.844h-52.877v33.844h-1.424v-33.844h-80.685v-1.424h80.685v-47.546h-80.685v-1.424h80.685v-49.068h-80.685v-1.424h80.685V96.826h-80.685v-1.424h80.685v-47.8h-80.685V46.18h80.685Zm273.771 197.654v-47.546h-52.87v47.546h52.87Zm0-48.97v-49.068h-52.87v49.068h52.87Zm0-50.492V96.826h-52.87v47.545h52.87Zm0-48.969v-47.8h-52.87v47.8h52.87Zm-108.19-47.8h53.89v47.8h-53.89v-47.8Zm0 49.224h53.89v47.545h-53.89V96.826Zm0 48.969h53.89v49.068h-53.89v-49.068Zm0 50.492h53.89v47.546h-53.89v-47.546Zm-54.55 47.546h53.13v-47.546h-53.13v47.546Zm-1.42-47.546v47.546h-53.89v-47.546h53.89Zm1.42-1.424h53.13v-49.068h-53.13v49.068Zm-1.42-49.068v49.068h-53.89v-49.068h53.89Zm1.42-1.424h53.13V96.826h-53.13v47.545Zm-1.42-47.545v47.545h-53.89V96.826h53.89Zm1.42-1.424h53.13v-47.8h-53.13v47.8Zm-1.42-47.8v47.8h-53.89v-47.8h53.89ZM959.283 243.834h52.877v-47.546h-52.877v47.546Zm52.877-98.038v49.068h-52.877v-49.068h52.877Zm-52.877-48.969v47.545h52.877V96.826h-52.877Zm52.877-1.424h-52.877v-47.8h52.877v47.8Z" fill="#1B1E2D" fill-opacity=".5"/><path fill-rule="evenodd" clip-rule="evenodd" d="M957.605 46.162V0h2v46.162h52.245V0h2v46.162h53.25V0h2v46.162h52.5V0h2v46.162h53.26V0h2v46.162h52.24V0h2v46.162h52.17V0h2v46.162H1315v2h-27.73v47.206H1315v2h-27.73v46.951H1315v2h-27.73v48.474H1315v2h-27.73v46.952H1315v2h-27.73V279h-2v-33.255h-52.17V279h-2v-33.255h-52.24V279h-2v-33.255h-53.26V279h-2v-33.255h-52.5V279h-2v-33.255h-53.25V279h-2v-33.255h-52.245V279h-2v-33.255h-52.288V279h-2v-33.255H877v-2h26.317v-46.952H877v-2h26.317v-48.474H877v-2h26.317V97.368H877v-2h26.317V48.162H877v-2h26.317V0h2v46.162h52.288Zm-52.288 2v47.206h52.288V48.162h-52.288Zm0 49.206v46.951h52.288V97.368h-52.288Zm0 48.951v48.474h52.288v-48.474h-52.288Zm0 50.474v46.952h52.288v-46.952h-52.288ZM1233.1 48.162h52.17v47.206h-52.17V48.162Zm0 49.206h52.17v46.951h-52.17V97.368Zm0 48.951h52.17v48.474h-52.17v-48.474Zm0 50.474h52.17v46.952h-52.17v-46.952Zm-2 46.952v-46.952h-52.24v46.952h52.24Zm0-48.952v-48.474h-52.24v48.474h52.24Zm0-50.474V97.368h-52.24v46.951h52.24Zm0-48.951V48.162h-52.24v47.206h52.24Zm-107.5-47.206h53.26v47.206h-53.26V48.162Zm0 49.206h53.26v46.951h-53.26V97.368Zm0 48.951h53.26v48.474h-53.26v-48.474Zm0 50.474h53.26v46.952h-53.26v-46.952Zm-54.5 46.952h52.5v-46.952h-52.5v46.952Zm-2-46.952v46.952h-53.25v-46.952h53.25Zm2-2h52.5v-48.474h-52.5v48.474Zm-2-48.474v48.474h-53.25v-48.474h53.25Zm2-2h52.5V97.368h-52.5v46.951Zm-2-46.951v46.951h-53.25V97.368h53.25Zm2-2h52.5V48.162h-52.5v47.206Zm-2-47.206v47.206h-53.25V48.162h53.25ZM959.605 243.745h52.245v-46.952h-52.245v46.952Zm52.245-97.426v48.474h-52.245v-48.474h52.245Zm-52.245-48.951v46.951h52.245V97.368h-52.245Zm52.245-2h-52.245V48.162h52.245v47.206ZM1396.6 46.162V0h2v46.162h52.25V0h2v46.162h53.25V0h2v46.162h52.5V0h2v46.162h53.26V0h2v46.162h52.24V0h2v46.162h52.17V0h2v46.162H1754v2h-27.73v47.206H1754v2h-27.73v46.951H1754v2h-27.73v48.474H1754v2h-27.73v46.952H1754v2h-27.73V279h-2v-33.255h-52.17V279h-2v-33.255h-52.24V279h-2v-33.255h-53.26V279h-2v-33.255h-52.5V279h-2v-33.255h-53.25V279h-2v-33.255h-52.25V279h-2v-33.255h-52.28V279h-2v-33.255H1316v-2h26.32v-46.952H1316v-2h26.32v-48.474H1316v-2h26.32V97.368H1316v-2h26.32V48.162H1316v-2h26.32V0h2v46.162h52.28Zm-52.28 2v47.206h52.28V48.162h-52.28Zm0 49.206v46.951h52.28V97.368h-52.28Zm0 48.951v48.474h52.28v-48.474h-52.28Zm0 50.474v46.952h52.28v-46.952h-52.28ZM1672.1 48.162h52.17v47.206h-52.17V48.162Zm0 49.206h52.17v46.951h-52.17V97.368Zm0 48.951h52.17v48.474h-52.17v-48.474Zm0 50.474h52.17v46.952h-52.17v-46.952Zm-2 46.952v-46.952h-52.24v46.952h52.24Zm0-48.952v-48.474h-52.24v48.474h52.24Zm0-50.474V97.368h-52.24v46.951h52.24Zm0-48.951V48.162h-52.24v47.206h52.24Zm-107.5-47.206h53.26v47.206h-53.26V48.162Zm0 49.206h53.26v46.951h-53.26V97.368Zm0 48.951h53.26v48.474h-53.26v-48.474Zm0 50.474h53.26v46.952h-53.26v-46.952Zm-54.5 46.952h52.5v-46.952h-52.5v46.952Zm-2-46.952v46.952h-53.25v-46.952h53.25Zm2-2h52.5v-48.474h-52.5v48.474Zm-2-48.474v48.474h-53.25v-48.474h53.25Zm2-2h52.5V97.368h-52.5v46.951Zm-2-46.951v46.951h-53.25V97.368h53.25Zm2-2h52.5V48.162h-52.5v47.206Zm-2-47.206v47.206h-53.25V48.162h53.25Zm-107.5 195.583h52.25v-46.952h-52.25v46.952Zm52.25-97.426v48.474h-52.25v-48.474h52.25Zm-52.25-48.951v46.951h52.25V97.368h-52.25Zm52.25-2h-52.25V48.162h52.25v47.206ZM80.605 325.162V279h2v46.162h52.243V279h2v46.162h53.257V279h2v46.162H244.6V279h2v46.162h53.258V279h2v46.162h52.243V279h2v46.162h52.17V279h2v46.162H438v2h-27.729v47.206H438v2h-27.729v46.951H438v2h-27.729v48.474H438v2h-27.729v46.952H438v2h-27.729V558h-2v-33.255h-52.17V558h-2v-33.255h-52.243V558h-2v-33.255H246.6V558h-2v-33.255h-52.495V558h-2v-33.255h-53.257V558h-2v-33.255H82.605V558h-2v-33.255H28.317V558h-2v-33.255H0v-2h26.317v-46.952H0v-2h26.317v-48.474H0v-2h26.317v-46.951H0v-2h26.317v-47.206H0v-2h26.317V279h2v46.162h52.288Zm-52.288 2v47.206h52.288v-47.206H28.317Zm0 49.206v46.951h52.288v-46.951H28.317Zm0 48.951v48.474h52.288v-48.474H28.317Zm0 50.474v46.952h52.288v-46.952H28.317Zm327.784-148.631h52.17v47.206h-52.17v-47.206Zm0 49.206h52.17v46.951h-52.17v-46.951Zm0 48.951h52.17v48.474h-52.17v-48.474Zm0 50.474h52.17v46.952h-52.17v-46.952Zm-2 46.952v-46.952h-52.243v46.952h52.243Zm0-48.952v-48.474h-52.243v48.474h52.243Zm0-50.474v-46.951h-52.243v46.951h52.243Zm0-48.951v-47.206h-52.243v47.206h52.243ZM246.6 327.162h53.258v47.206H246.6v-47.206Zm0 49.206h53.258v46.951H246.6v-46.951Zm0 48.951h53.258v48.474H246.6v-48.474Zm0 50.474h53.258v46.952H246.6v-46.952Zm-54.495 46.952H244.6v-46.952h-52.495v46.952Zm-2-46.952v46.952h-53.257v-46.952h53.257Zm2-2H244.6v-48.474h-52.495v48.474Zm-2-48.474v48.474h-53.257v-48.474h53.257Zm2-2H244.6v-46.951h-52.495v46.951Zm-2-46.951v46.951h-53.257v-46.951h53.257Zm2-2H244.6v-47.206h-52.495v47.206Zm-2-47.206v47.206h-53.257v-47.206h53.257Zm-107.5 195.583h52.243v-46.952H82.605v46.952Zm52.243-97.426v48.474H82.605v-48.474h52.243Zm-52.243-48.951v46.951h52.243v-46.951H82.605Zm52.243-2H82.605v-47.206h52.243v47.206Z" fill="#1B1E2D" fill-opacity=".5"/><path fill-rule="evenodd" clip-rule="evenodd" d="M80.605 325.162V279h2v46.162h52.243V279h2v46.162h53.257V279h2v46.162H244.6V279h2v46.162h53.258V279h2v46.162h52.243V279h2v46.162h52.17V279h2v46.162H438v2h-27.729v47.206H438v2h-27.729v46.951H438v2h-27.729v48.474H438v2h-27.729v46.952H438v2h-27.729V558h-2v-33.255h-52.17V558h-2v-33.255h-52.243V558h-2v-33.255H246.6V558h-2v-33.255h-52.495V558h-2v-33.255h-53.257V558h-2v-33.255H82.605V558h-2v-33.255H28.317V558h-2v-33.255H0v-2h26.317v-46.952H0v-2h26.317v-48.474H0v-2h26.317v-46.951H0v-2h26.317v-47.206H0v-2h26.317V279h2v46.162h52.288Zm-52.288 2v47.206h52.288v-47.206H28.317Zm0 49.206v46.951h52.288v-46.951H28.317Zm0 48.951v48.474h52.288v-48.474H28.317Zm0 50.474v46.952h52.288v-46.952H28.317Zm327.784-148.631h52.17v47.206h-52.17v-47.206Zm0 49.206h52.17v46.951h-52.17v-46.951Zm0 48.951h52.17v48.474h-52.17v-48.474Zm0 50.474h52.17v46.952h-52.17v-46.952Zm-2 46.952v-46.952h-52.243v46.952h52.243Zm0-48.952v-48.474h-52.243v48.474h52.243Zm0-50.474v-46.951h-52.243v46.951h52.243Zm0-48.951v-47.206h-52.243v47.206h52.243ZM246.6 327.162h53.258v47.206H246.6v-47.206Zm0 49.206h53.258v46.951H246.6v-46.951Zm0 48.951h53.258v48.474H246.6v-48.474Zm0 50.474h53.258v46.952H246.6v-46.952Zm-54.495 46.952H244.6v-46.952h-52.495v46.952Zm-2-46.952v46.952h-53.257v-46.952h53.257Zm2-2H244.6v-48.474h-52.495v48.474Zm-2-48.474v48.474h-53.257v-48.474h53.257Zm2-2H244.6v-46.951h-52.495v46.951Zm-2-46.951v46.951h-53.257v-46.951h53.257Zm2-2H244.6v-47.206h-52.495v47.206Zm-2-47.206v47.206h-53.257v-47.206h53.257Zm-107.5 195.583h52.243v-46.952H82.605v46.952Zm52.243-97.426v48.474H82.605v-48.474h52.243Zm-52.243-48.951v46.951h52.243v-46.951H82.605Zm52.243-2H82.605v-47.206h52.243v47.206ZM519.605 325.162V279h2v46.162h52.243V279h2v46.162h53.257V279h2v46.162H683.6V279h2v46.162h53.258V279h2v46.162h52.243V279h2v46.162h52.17V279h2v46.162H877v2h-27.729v47.206H877v2h-27.729v46.951H877v2h-27.729v48.474H877v2h-27.729v46.952H877v2h-27.729V558h-2v-33.255h-52.17V558h-2v-33.255h-52.243V558h-2v-33.255H685.6V558h-2v-33.255h-52.495V558h-2v-33.255h-53.257V558h-2v-33.255h-52.243V558h-2v-33.255h-52.288V558h-2v-33.255H439v-2h26.317v-46.952H439v-2h26.317v-48.474H439v-2h26.317v-46.951H439v-2h26.317v-47.206H439v-2h26.317V279h2v46.162h52.288Zm-52.288 2v47.206h52.288v-47.206h-52.288Zm0 49.206v46.951h52.288v-46.951h-52.288Zm0 48.951v48.474h52.288v-48.474h-52.288Zm0 50.474v46.952h52.288v-46.952h-52.288Zm327.784-148.631h52.17v47.206h-52.17v-47.206Zm0 49.206h52.17v46.951h-52.17v-46.951Zm0 48.951h52.17v48.474h-52.17v-48.474Zm0 50.474h52.17v46.952h-52.17v-46.952Zm-2 46.952v-46.952h-52.243v46.952h52.243Zm0-48.952v-48.474h-52.243v48.474h52.243Zm0-50.474v-46.951h-52.243v46.951h52.243Zm0-48.951v-47.206h-52.243v47.206h52.243ZM685.6 327.162h53.258v47.206H685.6v-47.206Zm0 49.206h53.258v46.951H685.6v-46.951Zm0 48.951h53.258v48.474H685.6v-48.474Zm0 50.474h53.258v46.952H685.6v-46.952Zm-54.495 46.952H683.6v-46.952h-52.495v46.952Zm-2-46.952v46.952h-53.257v-46.952h53.257Zm2-2H683.6v-48.474h-52.495v48.474Zm-2-48.474v48.474h-53.257v-48.474h53.257Zm2-2H683.6v-46.951h-52.495v46.951Zm-2-46.951v46.951h-53.257v-46.951h53.257Zm2-2H683.6v-47.206h-52.495v47.206Zm-2-47.206v47.206h-53.257v-47.206h53.257Zm-107.5 195.583h52.243v-46.952h-52.243v46.952Zm52.243-97.426v48.474h-52.243v-48.474h52.243Zm-52.243-48.951v46.951h52.243v-46.951h-52.243Zm52.243-2h-52.243v-47.206h52.243v47.206ZM957.605 325.162V279h2v46.162h52.245V279h2v46.162h53.25V279h2v46.162h52.5V279h2v46.162h53.26V279h2v46.162h52.24V279h2v46.162h52.17V279h2v46.162H1315v2h-27.73v47.206H1315v2h-27.73v46.951H1315v2h-27.73v48.474H1315v2h-27.73v46.952H1315v2h-27.73V558h-2v-33.255h-52.17V558h-2v-33.255h-52.24V558h-2v-33.255h-53.26V558h-2v-33.255h-52.5V558h-2v-33.255h-53.25V558h-2v-33.255h-52.245V558h-2v-33.255h-52.288V558h-2v-33.255H877v-2h26.317v-46.952H877v-2h26.317v-48.474H877v-2h26.317v-46.951H877v-2h26.317v-47.206H877v-2h26.317V279h2v46.162h52.288Zm-52.288 2v47.206h52.288v-47.206h-52.288Zm0 49.206v46.951h52.288v-46.951h-52.288Zm0 48.951v48.474h52.288v-48.474h-52.288Zm0 50.474v46.952h52.288v-46.952h-52.288ZM1233.1 327.162h52.17v47.206h-52.17v-47.206Zm0 49.206h52.17v46.951h-52.17v-46.951Zm0 48.951h52.17v48.474h-52.17v-48.474Zm0 50.474h52.17v46.952h-52.17v-46.952Zm-2 46.952v-46.952h-52.24v46.952h52.24Zm0-48.952v-48.474h-52.24v48.474h52.24Zm0-50.474v-46.951h-52.24v46.951h52.24Zm0-48.951v-47.206h-52.24v47.206h52.24Zm-107.5-47.206h53.26v47.206h-53.26v-47.206Zm0 49.206h53.26v46.951h-53.26v-46.951Zm0 48.951h53.26v48.474h-53.26v-48.474Zm0 50.474h53.26v46.952h-53.26v-46.952Zm-54.5 46.952h52.5v-46.952h-52.5v46.952Zm-2-46.952v46.952h-53.25v-46.952h53.25Zm2-2h52.5v-48.474h-52.5v48.474Zm-2-48.474v48.474h-53.25v-48.474h53.25Zm2-2h52.5v-46.951h-52.5v46.951Zm-2-46.951v46.951h-53.25v-46.951h53.25Zm2-2h52.5v-47.206h-52.5v47.206Zm-2-47.206v47.206h-53.25v-47.206h53.25ZM959.605 522.745h52.245v-46.952h-52.245v46.952Zm52.245-97.426v48.474h-52.245v-48.474h52.245Zm-52.245-48.951v46.951h52.245v-46.951h-52.245Zm52.245-2h-52.245v-47.206h52.245v47.206Z" fill="#1B1E2D" fill-opacity=".5"/><path fill-rule="evenodd" clip-rule="evenodd" d="M957.86 325.28v-46.179h1.424v46.179h52.876v-46.179h1.42v46.179h53.89v-46.179h1.42v46.179h53.13v-46.179h1.43v46.179h53.88v-46.179h1.43v46.179h52.87v-46.179h1.43v46.179h82.56v1.424h-82.56v47.799h82.56v1.424h-82.56v47.545h82.56v1.424h-82.56v49.068h82.56v1.424h-82.56v47.546h82.56v1.424h-82.56v33.844h-1.43v-33.844h-52.87v33.844h-1.43v-33.844h-53.88v33.844h-1.43v-33.844h-53.13v33.844h-1.42v-33.844h-53.89v33.844h-1.42v-33.844h-52.876v33.844h-1.424v-33.844h-80.686v-1.424h80.686v-47.546h-80.686v-1.424h80.686v-49.068h-80.686v-1.424h80.686v-47.545h-80.686v-1.424h80.686v-47.799h-80.686v-1.424h80.686Zm273.77 197.654v-47.546h-52.87v47.546h52.87Zm0-48.97v-49.068h-52.87v49.068h52.87Zm0-50.492v-47.545h-52.87v47.545h52.87Zm0-48.969v-47.799h-52.87v47.799h52.87Zm-108.18-47.799h53.88v47.799h-53.88v-47.799Zm0 49.223h53.88v47.545h-53.88v-47.545Zm0 48.969h53.88v49.068h-53.88v-49.068Zm0 50.492h53.88v47.546h-53.88v-47.546Zm-54.56 47.546h53.13v-47.546h-53.13v47.546Zm-1.42-47.546v47.546h-53.89v-47.546h53.89Zm1.42-1.424h53.13v-49.068h-53.13v49.068Zm-1.42-49.068v49.068h-53.89v-49.068h53.89Zm1.42-1.424h53.13v-47.545h-53.13v47.545Zm-1.42-47.545v47.545h-53.89v-47.545h53.89Zm1.42-1.424h53.13v-47.799h-53.13v47.799Zm-1.42-47.799v47.799h-53.89v-47.799h53.89Zm-108.186 196.23h52.876v-47.546h-52.876v47.546Zm52.876-98.038v49.068h-52.876v-49.068h52.876Zm-52.876-48.969v47.545h52.876v-47.545h-52.876Zm52.876-1.424h-52.876v-47.799h52.876v47.799ZM80.686 604.381v-46.179h1.424v46.179h52.873v-46.179h1.424v46.179h53.889v-46.179h1.424v46.179h53.127v-46.179h1.424v46.179h53.889v-46.179h1.424v46.179h52.874v-46.179h1.424v46.179h82.56v1.424h-82.56v47.799h82.56v1.424h-82.56v47.545h82.56v1.424h-82.56v49.069h82.56v1.423h-82.56v47.546h82.56v1.424h-82.56v33.844h-1.424v-33.844h-52.874v33.844h-1.424v-33.844h-53.889v33.844h-1.424v-33.844H191.72v33.844h-1.424v-33.844h-53.889v33.844h-1.424v-33.844H82.11v33.844h-1.424v-33.844H0v-1.424h80.686v-47.546H0v-1.423h80.686v-49.069H0v-1.424h80.686v-47.545H0v-1.424h80.686v-47.799H0v-1.424h80.686Zm273.772 197.654v-47.546h-52.874v47.546h52.874Zm0-48.969v-49.069h-52.874v49.069h52.874Zm0-50.493v-47.545h-52.874v47.545h52.874Zm0-48.969v-47.799h-52.874v47.799h52.874Zm-108.187-47.799h53.889v47.799h-53.889v-47.799Zm0 49.223h53.889v47.545h-53.889v-47.545Zm0 48.969h53.889v49.069h-53.889v-49.069Zm0 50.492h53.889v47.546h-53.889v-47.546Zm-54.551 47.546h53.127v-47.546H191.72v47.546Zm-1.424-47.546v47.546h-53.889v-47.546h53.889Zm1.424-1.423h53.127v-49.069H191.72v49.069Zm-1.424-49.069v49.069h-53.889v-49.069h53.889Zm1.424-1.424h53.127v-47.545H191.72v47.545Zm-1.424-47.545v47.545h-53.889v-47.545h53.889Zm1.424-1.424h53.127v-47.799H191.72v47.799Zm-1.424-47.799v47.799h-53.889v-47.799h53.889ZM82.11 802.035h52.873v-47.546H82.11v47.546Zm52.873-98.038v49.069H82.11v-49.069h52.873ZM82.11 655.028v47.545h52.873v-47.545H82.11Zm52.873-1.424H82.11v-47.799h52.873v47.799Z" fill="#1B1E2D" fill-opacity=".5"/><path fill-rule="evenodd" clip-rule="evenodd" d="M80.605 604.162V558h2v46.162h52.243V558h2v46.162h53.257V558h2v46.162H244.6V558h2v46.162h53.258V558h2v46.162h52.243V558h2v46.162h52.17V558h2v46.162H438v2h-27.729v47.206H438v2h-27.729v46.951H438v2h-27.729v48.474H438v2h-27.729v46.952H438v2h-27.729V837h-2v-33.255h-52.17V837h-2v-33.255h-52.243V837h-2v-33.255H246.6V837h-2v-33.255h-52.495V837h-2v-33.255h-53.257V837h-2v-33.255H82.605V837h-2v-33.255H28.317V837h-2v-33.255H0v-2h26.317v-46.952H0v-2h26.317v-48.474H0v-2h26.317v-46.951H0v-2h26.317v-47.206H0v-2h26.317V558h2v46.162h52.288Zm-52.288 2v47.206h52.288v-47.206H28.317Zm0 49.206v46.951h52.288v-46.951H28.317Zm0 48.951v48.474h52.288v-48.474H28.317Zm0 50.474v46.952h52.288v-46.952H28.317Zm327.784-148.631h52.17v47.206h-52.17v-47.206Zm0 49.206h52.17v46.951h-52.17v-46.951Zm0 48.951h52.17v48.474h-52.17v-48.474Zm0 50.474h52.17v46.952h-52.17v-46.952Zm-2 46.952v-46.952h-52.243v46.952h52.243Zm0-48.952v-48.474h-52.243v48.474h52.243Zm0-50.474v-46.951h-52.243v46.951h52.243Zm0-48.951v-47.206h-52.243v47.206h52.243ZM246.6 606.162h53.258v47.206H246.6v-47.206Zm0 49.206h53.258v46.951H246.6v-46.951Zm0 48.951h53.258v48.474H246.6v-48.474Zm0 50.474h53.258v46.952H246.6v-46.952Zm-54.495 46.952H244.6v-46.952h-52.495v46.952Zm-2-46.952v46.952h-53.257v-46.952h53.257Zm2-2H244.6v-48.474h-52.495v48.474Zm-2-48.474v48.474h-53.257v-48.474h53.257Zm2-2H244.6v-46.951h-52.495v46.951Zm-2-46.951v46.951h-53.257v-46.951h53.257Zm2-2H244.6v-47.206h-52.495v47.206Zm-2-47.206v47.206h-53.257v-47.206h53.257Zm-107.5 195.583h52.243v-46.952H82.605v46.952Zm52.243-97.426v48.474H82.605v-48.474h52.243Zm-52.243-48.951v46.951h52.243v-46.951H82.605Zm52.243-2H82.605v-47.206h52.243v47.206ZM519.605 604.162V558h2v46.162h52.243V558h2v46.162h53.257V558h2v46.162H683.6V558h2v46.162h53.258V558h2v46.162h52.243V558h2v46.162h52.17V558h2v46.162H877v2h-27.729v47.206H877v2h-27.729v46.951H877v2h-27.729v48.474H877v2h-27.729v46.952H877v2h-27.729V837h-2v-33.255h-52.17V837h-2v-33.255h-52.243V837h-2v-33.255H685.6V837h-2v-33.255h-52.495V837h-2v-33.255h-53.257V837h-2v-33.255h-52.243V837h-2v-33.255h-52.288V837h-2v-33.255H439v-2h26.317v-46.952H439v-2h26.317v-48.474H439v-2h26.317v-46.951H439v-2h26.317v-47.206H439v-2h26.317V558h2v46.162h52.288Zm-52.288 2v47.206h52.288v-47.206h-52.288Zm0 49.206v46.951h52.288v-46.951h-52.288Zm0 48.951v48.474h52.288v-48.474h-52.288Zm0 50.474v46.952h52.288v-46.952h-52.288Zm327.784-148.631h52.17v47.206h-52.17v-47.206Zm0 49.206h52.17v46.951h-52.17v-46.951Zm0 48.951h52.17v48.474h-52.17v-48.474Zm0 50.474h52.17v46.952h-52.17v-46.952Zm-2 46.952v-46.952h-52.243v46.952h52.243Zm0-48.952v-48.474h-52.243v48.474h52.243Zm0-50.474v-46.951h-52.243v46.951h52.243Zm0-48.951v-47.206h-52.243v47.206h52.243ZM685.6 606.162h53.258v47.206H685.6v-47.206Zm0 49.206h53.258v46.951H685.6v-46.951Zm0 48.951h53.258v48.474H685.6v-48.474Zm0 50.474h53.258v46.952H685.6v-46.952Zm-54.495 46.952H683.6v-46.952h-52.495v46.952Zm-2-46.952v46.952h-53.257v-46.952h53.257Zm2-2H683.6v-48.474h-52.495v48.474Zm-2-48.474v48.474h-53.257v-48.474h53.257Zm2-2H683.6v-46.951h-52.495v46.951Zm-2-46.951v46.951h-53.257v-46.951h53.257Zm2-2H683.6v-47.206h-52.495v47.206Zm-2-47.206v47.206h-53.257v-47.206h53.257Zm-107.5 195.583h52.243v-46.952h-52.243v46.952Zm52.243-97.426v48.474h-52.243v-48.474h52.243Zm-52.243-48.951v46.951h52.243v-46.951h-52.243Zm52.243-2h-52.243v-47.206h52.243v47.206ZM957.859 604.381v-46.179h1.424v46.179h52.877v-46.179h1.42v46.179h53.89v-46.179h1.42v46.179h53.13v-46.179h1.42v46.179h53.89v-46.179h1.43v46.179h52.87v-46.179h1.43v46.179h82.56v1.424h-82.56v47.799h82.56v1.424h-82.56v47.545h82.56v1.424h-82.56v49.069h82.56v1.423h-82.56v47.546h82.56v1.424h-82.56v33.844h-1.43v-33.844h-52.87v33.844h-1.43v-33.844h-53.89v33.844h-1.42v-33.844h-53.13v33.844h-1.42v-33.844h-53.89v33.844h-1.42v-33.844h-52.877v33.844h-1.424v-33.844h-80.685v-1.424h80.685v-47.546h-80.685v-1.423h80.685v-49.069h-80.685v-1.424h80.685v-47.545h-80.685v-1.424h80.685v-47.799h-80.685v-1.424h80.685Zm273.771 197.654v-47.546h-52.87v47.546h52.87Zm0-48.969v-49.069h-52.87v49.069h52.87Zm0-50.493v-47.545h-52.87v47.545h52.87Zm0-48.969v-47.799h-52.87v47.799h52.87Zm-108.19-47.799h53.89v47.799h-53.89v-47.799Zm0 49.223h53.89v47.545h-53.89v-47.545Zm0 48.969h53.89v49.069h-53.89v-49.069Zm0 50.492h53.89v47.546h-53.89v-47.546Zm-54.55 47.546h53.13v-47.546h-53.13v47.546Zm-1.42-47.546v47.546h-53.89v-47.546h53.89Zm1.42-1.423h53.13v-49.069h-53.13v49.069Zm-1.42-49.069v49.069h-53.89v-49.069h53.89Zm1.42-1.424h53.13v-47.545h-53.13v47.545Zm-1.42-47.545v47.545h-53.89v-47.545h53.89Zm1.42-1.424h53.13v-47.799h-53.13v47.799Zm-1.42-47.799v47.799h-53.89v-47.799h53.89Zm-108.187 196.23h52.877v-47.546h-52.877v47.546Zm52.877-98.038v49.069h-52.877v-49.069h52.877Zm-52.877-48.969v47.545h52.877v-47.545h-52.877Zm52.877-1.424h-52.877v-47.799h52.877v47.799Z" fill="#1B1E2D" fill-opacity=".5"/><path fill-rule="evenodd" clip-rule="evenodd" d="M957.605 604.162V558h2v46.162h52.245V558h2v46.162h53.25V558h2v46.162h52.5V558h2v46.162h53.26V558h2v46.162h52.24V558h2v46.162h52.17V558h2v46.162H1315v2h-27.73v47.206H1315v2h-27.73v46.951H1315v2h-27.73v48.474H1315v2h-27.73v46.952H1315v2h-27.73V837h-2v-33.255h-52.17V837h-2v-33.255h-52.24V837h-2v-33.255h-53.26V837h-2v-33.255h-52.5V837h-2v-33.255h-53.25V837h-2v-33.255h-52.245V837h-2v-33.255h-52.288V837h-2v-33.255H877v-2h26.317v-46.952H877v-2h26.317v-48.474H877v-2h26.317v-46.951H877v-2h26.317v-47.206H877v-2h26.317V558h2v46.162h52.288Zm-52.288 2v47.206h52.288v-47.206h-52.288Zm0 49.206v46.951h52.288v-46.951h-52.288Zm0 48.951v48.474h52.288v-48.474h-52.288Zm0 50.474v46.952h52.288v-46.952h-52.288ZM1233.1 606.162h52.17v47.206h-52.17v-47.206Zm0 49.206h52.17v46.951h-52.17v-46.951Zm0 48.951h52.17v48.474h-52.17v-48.474Zm0 50.474h52.17v46.952h-52.17v-46.952Zm-2 46.952v-46.952h-52.24v46.952h52.24Zm0-48.952v-48.474h-52.24v48.474h52.24Zm0-50.474v-46.951h-52.24v46.951h52.24Zm0-48.951v-47.206h-52.24v47.206h52.24Zm-107.5-47.206h53.26v47.206h-53.26v-47.206Zm0 49.206h53.26v46.951h-53.26v-46.951Zm0 48.951h53.26v48.474h-53.26v-48.474Zm0 50.474h53.26v46.952h-53.26v-46.952Zm-54.5 46.952h52.5v-46.952h-52.5v46.952Zm-2-46.952v46.952h-53.25v-46.952h53.25Zm2-2h52.5v-48.474h-52.5v48.474Zm-2-48.474v48.474h-53.25v-48.474h53.25Zm2-2h52.5v-46.951h-52.5v46.951Zm-2-46.951v46.951h-53.25v-46.951h53.25Zm2-2h52.5v-47.206h-52.5v47.206Zm-2-47.206v47.206h-53.25v-47.206h53.25ZM959.605 801.745h52.245v-46.952h-52.245v46.952Zm52.245-97.426v48.474h-52.245v-48.474h52.245Zm-52.245-48.951v46.951h52.245v-46.951h-52.245Zm52.245-2h-52.245v-47.206h52.245v47.206ZM1396.6 604.162V558h2v46.162h52.25V558h2v46.162h53.25V558h2v46.162h52.5V558h2v46.162h53.26V558h2v46.162h52.24V558h2v46.162h52.17V558h2v46.162H1754v2h-27.73v47.206H1754v2h-27.73v46.951H1754v2h-27.73v48.474H1754v2h-27.73v46.952H1754v2h-27.73V837h-2v-33.255h-52.17V837h-2v-33.255h-52.24V837h-2v-33.255h-53.26V837h-2v-33.255h-52.5V837h-2v-33.255h-53.25V837h-2v-33.255h-52.25V837h-2v-33.255h-52.28V837h-2v-33.255H1316v-2h26.32v-46.952H1316v-2h26.32v-48.474H1316v-2h26.32v-46.951H1316v-2h26.32v-47.206H1316v-2h26.32V558h2v46.162h52.28Zm-52.28 2v47.206h52.28v-47.206h-52.28Zm0 49.206v46.951h52.28v-46.951h-52.28Zm0 48.951v48.474h52.28v-48.474h-52.28Zm0 50.474v46.952h52.28v-46.952h-52.28Zm327.78-148.631h52.17v47.206h-52.17v-47.206Zm0 49.206h52.17v46.951h-52.17v-46.951Zm0 48.951h52.17v48.474h-52.17v-48.474Zm0 50.474h52.17v46.952h-52.17v-46.952Zm-2 46.952v-46.952h-52.24v46.952h52.24Zm0-48.952v-48.474h-52.24v48.474h52.24Zm0-50.474v-46.951h-52.24v46.951h52.24Zm0-48.951v-47.206h-52.24v47.206h52.24Zm-107.5-47.206h53.26v47.206h-53.26v-47.206Zm0 49.206h53.26v46.951h-53.26v-46.951Zm0 48.951h53.26v48.474h-53.26v-48.474Zm0 50.474h53.26v46.952h-53.26v-46.952Zm-54.5 46.952h52.5v-46.952h-52.5v46.952Zm-2-46.952v46.952h-53.25v-46.952h53.25Zm2-2h52.5v-48.474h-52.5v48.474Zm-2-48.474v48.474h-53.25v-48.474h53.25Zm2-2h52.5v-46.951h-52.5v46.951Zm-2-46.951v46.951h-53.25v-46.951h53.25Zm2-2h52.5v-47.206h-52.5v47.206Zm-2-47.206v47.206h-53.25v-47.206h53.25Zm-107.5 195.583h52.25v-46.952h-52.25v46.952Zm52.25-97.426v48.474h-52.25v-48.474h52.25Zm-52.25-48.951v46.951h52.25v-46.951h-52.25Zm52.25-2h-52.25v-47.206h52.25v47.206ZM1396.6 325.162V279h2v46.162h52.25V279h2v46.162h53.25V279h2v46.162h52.5V279h2v46.162h53.26V279h2v46.162h52.24V279h2v46.162h52.17V279h2v46.162H1754v2h-27.73v47.206H1754v2h-27.73v46.951H1754v2h-27.73v48.474H1754v2h-27.73v46.952H1754v2h-27.73V558h-2v-33.255h-52.17V558h-2v-33.255h-52.24V558h-2v-33.255h-53.26V558h-2v-33.255h-52.5V558h-2v-33.255h-53.25V558h-2v-33.255h-52.25V558h-2v-33.255h-52.28V558h-2v-33.255H1316v-2h26.32v-46.952H1316v-2h26.32v-48.474H1316v-2h26.32v-46.951H1316v-2h26.32v-47.206H1316v-2h26.32V279h2v46.162h52.28Zm-52.28 2v47.206h52.28v-47.206h-52.28Zm0 49.206v46.951h52.28v-46.951h-52.28Zm0 48.951v48.474h52.28v-48.474h-52.28Zm0 50.474v46.952h52.28v-46.952h-52.28Zm327.78-148.631h52.17v47.206h-52.17v-47.206Zm0 49.206h52.17v46.951h-52.17v-46.951Zm0 48.951h52.17v48.474h-52.17v-48.474Zm0 50.474h52.17v46.952h-52.17v-46.952Zm-2 46.952v-46.952h-52.24v46.952h52.24Zm0-48.952v-48.474h-52.24v48.474h52.24Zm0-50.474v-46.951h-52.24v46.951h52.24Zm0-48.951v-47.206h-52.24v47.206h52.24Zm-107.5-47.206h53.26v47.206h-53.26v-47.206Zm0 49.206h53.26v46.951h-53.26v-46.951Zm0 48.951h53.26v48.474h-53.26v-48.474Zm0 50.474h53.26v46.952h-53.26v-46.952Zm-54.5 46.952h52.5v-46.952h-52.5v46.952Zm-2-46.952v46.952h-53.25v-46.952h53.25Zm2-2h52.5v-48.474h-52.5v48.474Zm-2-48.474v48.474h-53.25v-48.474h53.25Zm2-2h52.5v-46.951h-52.5v46.951Zm-2-46.951v46.951h-53.25v-46.951h53.25Zm2-2h52.5v-47.206h-52.5v47.206Zm-2-47.206v47.206h-53.25v-47.206h53.25Zm-107.5 195.583h52.25v-46.952h-52.25v46.952Zm52.25-97.426v48.474h-52.25v-48.474h52.25Zm-52.25-48.951v46.951h52.25v-46.951h-52.25Zm52.25-2h-52.25v-47.206h52.25v47.206Z" fill="#1B1E2D" fill-opacity=".5"/></svg>