<svg width="98" height="142" fill="none" xmlns="http://www.w3.org/2000/svg"><path d="M43.811 1.304c-19.774 0-35.805 16.03-35.805 35.804 0 19.775 16.03 35.805 35.805 35.805s35.805-16.03 35.805-35.805c0-19.774-16.03-35.804-35.805-35.804Z" fill="#DDFF0D"/><path d="M43.811 1.304c-19.774 0-35.805 16.03-35.805 35.804 0 19.775 16.03 35.805 35.805 35.805s35.805-16.03 35.805-35.805c0-19.774-16.03-35.804-35.805-35.804Z" stroke="#DDFF0D" stroke-width="2.058"/><mask id="mask0_1_1825" style="mask-type:alpha" maskUnits="userSpaceOnUse" x="1" y="12" width="97" height="57"><path d="M1.888 66.678c23.19-2.27 33.602-5.307 42.78-9.472 8.059-4.247 24.92-11.915 51.763-44.456C74.939 71.586 44.368 68.12 1.888 66.678Z" fill="#BCA793"/><path d="M1.885 66.677c23.19-2.27 33.604-5.303 42.784-9.473 8.055-4.247 24.916-11.91 51.763-44.452-21.493 58.836-52.065 55.37-94.547 53.925Z" stroke="#1A1A1A" stroke-width="1.503"/></mask><g mask="url('#mask0_1_1825')"><mask id="mask1_1_1825" style="mask-type:luminance" maskUnits="userSpaceOnUse" x="-269" y="-58" width="437" height="437"><path d="M167.091-57.231H-268.9V378.76h435.991V-57.231Z" fill="#fff"/></mask><g mask="url('#mask1_1_1825')"><path d="M43.811.928c-19.774 0-35.805 16.03-35.805 35.804 0 19.775 16.03 35.805 35.805 35.805s35.805-16.03 35.805-35.805C79.616 16.958 63.586.928 43.81.928Z" fill="#DDFF0D"/><path d="M43.811.928c-19.774 0-35.805 16.03-35.805 35.804 0 19.775 16.03 35.805 35.805 35.805s35.805-16.03 35.805-35.805C79.616 16.958 63.586.928 43.81.928Z" stroke="#DDFF0D" stroke-width="2.058"/><mask id="mask2_1_1825" style="mask-type:alpha" maskUnits="userSpaceOnUse" x="6" y="-1" width="75" height="75"><path d="M43.811.928c-19.774 0-35.805 16.03-35.805 35.804 0 19.775 16.03 35.805 35.805 35.805s35.805-16.03 35.805-35.805C79.616 16.958 63.586.928 43.81.928Z" fill="#DDFF0D"/><path d="M43.811.928c-19.774 0-35.805 16.03-35.805 35.804 0 19.775 16.03 35.805 35.805 35.805s35.805-16.03 35.805-35.805C79.616 16.958 63.586.928 43.81.928Z" stroke="#DDFF0D" stroke-width="2.058"/></mask><g mask="url('#mask2_1_1825')"><path d="M43.06 20.195c-8.719 0-15.787 7.404-15.787 16.537 0 9.134 7.068 16.538 15.786 16.538 8.719 0 15.786-7.404 15.786-16.538 0-9.133-7.067-16.537-15.786-16.537Z" fill="#000"/></g></g></g><path d="M1.885 141.972c0-1.661-.38-59.081 0-75.294m0 0c4.289-31.07 13.961-49.57 26.289-56.07 8.055-4.248 33.5-12 68.258 2.144C74.939 71.588 44.367 68.124 1.885 66.678Z" stroke="#000" stroke-width="1.503"/><circle cx="16.5" cy="16.5" r="16.5" transform="matrix(-1 0 0 1 66.344 20.977)" fill="#000"/></svg>