<svg width="109" height="110" fill="none" xmlns="http://www.w3.org/2000/svg"><path d="M51.128.5h6l-1.875 53h-2.25L51.128.5Z" fill="#C6E74A"/><path d="m92.82 16.5 3.977 4.494L55.862 54.71l-1.491-1.685L92.82 16.5Z" fill="#C6E74A"/><path d="m108.154 51.732-.026 6-52.992-2.107.01-2.25 53.008-1.643Z" fill="#C6E74A"/><path d="m93.57 91.288-4.278 4.207-35.827-39.103 1.604-1.577 38.5 36.473Z" fill="#C6E74A"/><path d="M57.128 109.5h-6l1.875-53h2.25l1.875 53Z" fill="#C6E74A"/><path d="m19.508 97.285-4.38-4.102 37.599-37.401 1.642 1.538-34.861 39.965Z" fill="#C6E74A"/><path d="m.128 58.5.008-6 52.997 1.941-.002 2.25L.128 58.5Z" fill="#C6E74A"/><path d="m14.128 18.707 4.278-4.207 35.83 39.099-1.604 1.578-38.504-36.47Z" fill="#C6E74A"/><circle cx="53.628" cy="55" r="4.5" fill="#C6E74A"/></svg>