<svg width="59" height="35" fill="none" xmlns="http://www.w3.org/2000/svg"><path fill-rule="evenodd" clip-rule="evenodd" d="M42.03 33.08c5.206.126 10.524-.126 15.5 1.659a.572.572 0 0 0 .386-1.078c-5.092-1.826-10.532-1.597-15.858-1.725a.572.572 0 0 0-.027 1.144ZM41.563 25.503c1.622-1.497 3.393-2.618 5.533-3.174a.572.572 0 0 0-.285-1.107c-2.327.604-4.255 1.812-6.02 3.439a.571.571 0 0 0 .772.842ZM37.05 9.162c.744-2.557 2.209-4.557 4.454-6.002a.572.572 0 0 0-.616-.963c-2.485 1.6-4.11 3.813-4.933 6.644a.573.573 0 0 0 .388.71.57.57 0 0 0 .707-.39Z" fill="#1A1A1A"/><path fill-rule="evenodd" clip-rule="evenodd" d="M11.414 5.692c-.442.522-.84 1.085-1.177 1.684-.15.267-.415.834-.456 1.32-.046.518.13.955.582 1.185.6.305 1.079.274 1.448.089.356-.177.635-.526.81-.993.336-.893.286-2.258.11-3.037.472-.488.99-.932 1.545-1.326 4.13-2.934 10.188-1.852 14.85 2.536 1.63 1.536 2.416 4.762 2.824 8.242.637 5.42.274 11.473.224 13.246-.012.438.03.698.052.75a.544.544 0 0 0 .43.347.71.71 0 0 0 .467-.066.735.735 0 0 0 .367-.482c.035-.131.044-.315.04-.51-.005-.136-.033-.284-.005-.382.178-.622.392-1.23.602-1.843.7-2.059 1.606-3.988 2.612-5.916 3.197-6.123 6.289-12.593 11.53-17.259a.573.573 0 0 0 .048-.807.57.57 0 0 0-.805-.048c-5.346 4.758-8.523 11.34-11.783 17.584-.856 1.64-1.64 3.28-2.294 4.998.067-3.038.042-7.242-.513-10.962-.493-3.309-1.43-6.233-3.016-7.726-5.107-4.807-11.767-5.85-16.29-2.635-.483.344-.944.723-1.373 1.133C9.877.53 4.81-1.187.334.862a.573.573 0 0 0 .475 1.04c4.034-1.846 8.609-.198 10.605 3.79Zm.331 1.434a9.877 9.877 0 0 0-.515.814c-.085.15-.23.44-.293.723-.013.066-.015.17-.015.218.157.078.28.115.38.065.126-.062.19-.209.252-.372.155-.41.205-.955.191-1.448Z" fill="#1A1A1A"/></svg>