<svg width="109" height="110" fill="none" xmlns="http://www.w3.org/2000/svg"><path d="M51.103.5h6l-1.875 53h-2.25L51.103.5Z" fill="#C6E74A"/><path d="m92.795 16.5 3.976 4.494L55.836 54.71l-1.49-1.685L92.795 16.5Z" fill="#C6E74A"/><path d="m108.128 51.732-.026 6-52.991-2.107.01-2.25 53.007-1.643Z" fill="#C6E74A"/><path d="m93.544 91.288-4.278 4.207L53.44 56.392l1.604-1.577 38.5 36.473Z" fill="#C6E74A"/><path d="M57.103 109.5h-6l1.875-53h2.25l1.875 53Z" fill="#C6E74A"/><path d="m19.482 97.285-4.38-4.102 37.599-37.401 1.642 1.538-34.861 39.965Z" fill="#C6E74A"/><path d="m.103 58.5.007-6 52.998 1.941-.003 2.25L.103 58.5Z" fill="#C6E74A"/><path d="M14.103 18.707 18.38 14.5l35.83 39.099-1.604 1.578-38.503-36.47Z" fill="#C6E74A"/><circle cx="53.603" cy="55" r="4.5" fill="#C6E74A"/></svg>