<svg width="110" height="110" fill="none" xmlns="http://www.w3.org/2000/svg"><path d="M.026 58.013v-6l53 1.875v2.25l-53 1.875Z" fill="#C6E74A"/><path d="m16.026 16.32 4.493-3.975 33.717 40.934-1.685 1.491-36.525-38.45Z" fill="#C6E74A"/><path d="m51.258.987 6 .027-2.107 52.99-2.25-.009L51.258.987Z" fill="#C6E74A"/><path d="m90.814 15.572 4.207 4.278-39.103 35.826-1.577-1.604 36.473-38.5Z" fill="#C6E74A"/><path d="M109.026 52.013v6l-53-1.875v-2.25l53-1.875Z" fill="#C6E74A"/><path d="m96.81 89.634-4.1 4.379-37.402-37.598 1.538-1.642 39.965 34.86Z" fill="#C6E74A"/><path d="m58.026 109.013-6-.008 1.941-52.997 2.25.003 1.809 53.002Z" fill="#C6E74A"/><path d="m18.233 95.013-4.207-4.278 39.099-35.83 1.577 1.604-36.469 38.504Z" fill="#C6E74A"/><circle cx="54.526" cy="55.513" r="4.5" transform="rotate(-90 54.526 55.513)" fill="#C6E74A"/></svg>