<svg width="109" height="110" fill="none" xmlns="http://www.w3.org/2000/svg"><path d="M51.051.5h6l-1.875 53h-2.25L51.051.5Z" fill="#C6E74A"/><path d="m92.744 16.5 3.976 4.494L55.785 54.71l-1.491-1.685L92.744 16.5Z" fill="#C6E74A"/><path d="m108.077 51.732-.026 6-52.991-2.107.01-2.25 53.007-1.643Z" fill="#C6E74A"/><path d="m93.492 91.288-4.278 4.207-35.826-39.103 1.605-1.577 38.5 36.473Z" fill="#C6E74A"/><path d="M57.051 109.5h-6l1.875-53h2.25l1.875 53Z" fill="#C6E74A"/><path d="m19.43 97.285-4.378-4.102L52.65 55.782l1.642 1.538-34.861 39.965Z" fill="#C6E74A"/><path d="m.052 58.5.007-6 52.998 1.941-.003 2.25L.052 58.5Z" fill="#C6E74A"/><path d="m14.052 18.707 4.277-4.207 35.83 39.099-1.604 1.578-38.504-36.47Z" fill="#C6E74A"/><circle cx="53.551" cy="55" r="4.5" fill="#C6E74A"/></svg>