<svg width="109" height="110" fill="none" xmlns="http://www.w3.org/2000/svg"><path d="M51.026.5h6l-1.875 53H52.9L51.026.5Z" fill="#C6E74A"/><path d="m92.718 16.5 3.976 4.494L55.76 54.71l-1.49-1.685L92.718 16.5Z" fill="#C6E74A"/><path d="m108.052 51.732-.027 6-52.991-2.107.01-2.25 53.008-1.643Z" fill="#C6E74A"/><path d="m93.467 91.288-4.278 4.207-35.826-39.103 1.604-1.577 38.5 36.473Z" fill="#C6E74A"/><path d="M57.026 109.5h-6l1.875-53h2.25l1.875 53Z" fill="#C6E74A"/><path d="m19.405 97.285-4.38-4.102 37.599-37.401 1.642 1.538-34.861 39.965Z" fill="#C6E74A"/><path d="m.026 58.5.007-6 52.998 1.941-.003 2.25L.026 58.5Z" fill="#C6E74A"/><path d="m14.026 18.707 4.277-4.207 35.83 39.099-1.604 1.578-38.503-36.47Z" fill="#C6E74A"/><circle cx="53.526" cy="55" r="4.5" fill="#C6E74A"/></svg>