<svg width="109" height="110" fill="none" xmlns="http://www.w3.org/2000/svg"><path d="M51 .5h6l-1.875 53h-2.25L51 .5Z" fill="#C6E74A"/><path d="m92.692 16.5 3.977 4.494L55.733 54.71l-1.492-1.685L92.692 16.5Z" fill="#C6E74A"/><path d="m108.026 51.732-.027 6-52.99-2.107.009-2.25 53.008-1.643Z" fill="#C6E74A"/><path d="m93.44 91.288-4.277 4.207-35.826-39.103 1.604-1.577 38.5 36.473Z" fill="#C6E74A"/><path d="M57 109.5h-6l1.875-53h2.25l1.875 53Z" fill="#C6E74A"/><path d="M19.38 97.285 15 93.183l37.598-37.401 1.642 1.538-34.86 39.965Z" fill="#C6E74A"/><path d="m0 58.5.008-6 52.997 1.941-.003 2.25L0 58.5Z" fill="#C6E74A"/><path d="m14 18.707 4.277-4.207 35.83 39.099-1.603 1.578L14 18.707Z" fill="#C6E74A"/><circle cx="53.5" cy="55" r="4.5" fill="#C6E74A"/></svg>