<svg width="97" height="143" fill="none" xmlns="http://www.w3.org/2000/svg"><path d="M53.62 2c19.775 0 35.805 16.03 35.805 35.805 0 19.774-16.03 35.804-35.804 35.804-19.775 0-35.805-16.03-35.805-35.804C17.816 18.03 33.846 2 53.62 2Z" fill="#DDFF0D"/><path d="M53.62 2c19.775 0 35.805 16.03 35.805 35.805 0 19.774-16.03 35.804-35.804 35.804-19.775 0-35.805-16.03-35.805-35.804C17.816 18.03 33.846 2 53.62 2Z" stroke="#DDFF0D" stroke-width="2.058"/><mask id="mask0_1_1949" style="mask-type:alpha" maskUnits="userSpaceOnUse" x="0" y="12" width="96" height="57"><path d="M95.543 67.374c-23.19-2.27-33.601-5.307-42.78-9.472-8.058-4.247-24.919-11.914-51.762-44.456 21.491 58.837 52.063 55.371 94.542 53.928Z" fill="#BCA793"/><path d="M95.547 67.374c-23.191-2.27-33.605-5.304-42.784-9.473C44.708 53.653 27.847 45.989 1 13.447 22.492 72.285 53.065 68.82 95.547 67.375Z" stroke="#1A1A1A" stroke-width="1.503"/></mask><g mask="url('#mask0_1_1949')"><mask id="mask1_1_1949" style="mask-type:luminance" maskUnits="userSpaceOnUse" x="-70" y="-57" width="437" height="437"><path d="M-69.66-56.535h435.992v435.991H-69.66V-56.535Z" fill="#fff"/></mask><g mask="url('#mask1_1_1949')"><path d="M53.62 1.624c19.775 0 35.805 16.03 35.805 35.805 0 19.774-16.03 35.804-35.804 35.804-19.775 0-35.805-16.03-35.805-35.804 0-19.775 16.03-35.805 35.805-35.805Z" fill="#DDFF0D"/><path d="M53.62 1.624c19.775 0 35.805 16.03 35.805 35.805 0 19.774-16.03 35.804-35.804 35.804-19.775 0-35.805-16.03-35.805-35.804 0-19.775 16.03-35.805 35.805-35.805Z" stroke="#DDFF0D" stroke-width="2.058"/><mask id="mask2_1_1949" style="mask-type:alpha" maskUnits="userSpaceOnUse" x="16" y="0" width="75" height="75"><path d="M53.62 1.624c19.775 0 35.805 16.03 35.805 35.805 0 19.774-16.03 35.804-35.804 35.804-19.775 0-35.805-16.03-35.805-35.804 0-19.775 16.03-35.805 35.805-35.805Z" fill="#DDFF0D"/><path d="M53.62 1.624c19.775 0 35.805 16.03 35.805 35.805 0 19.774-16.03 35.804-35.804 35.804-19.775 0-35.805-16.03-35.805-35.804 0-19.775 16.03-35.805 35.805-35.805Z" stroke="#DDFF0D" stroke-width="2.058"/></mask><g mask="url('#mask2_1_1949')"><path d="M54.372 20.891c8.719 0 15.786 7.404 15.786 16.538 0 9.133-7.067 16.537-15.786 16.537-8.718 0-15.786-7.404-15.786-16.537 0-9.134 7.068-16.538 15.786-16.538Z" fill="#000"/></g></g></g><path d="M95.547 142.668c0-1.66.38-59.081 0-75.294m0 0c-4.29-31.07-13.962-49.57-26.29-56.07-8.054-4.248-33.5-12-68.257 2.145 21.492 58.835 52.065 55.37 94.547 53.925Z" stroke="#000" stroke-width="1.503"/><circle cx="53.886" cy="38.477" r="16.5" fill="#000"/></svg>