<svg width="118" height="38" fill="none" xmlns="http://www.w3.org/2000/svg"><g clip-path="url('#clip0_1_1270')"><path d="m14.31 30.088-4.157 7.25h8.292l-4.135-7.25Z" fill="#39A4DD"/><path d="M9.525 1.767 5.39 9.005h8.293L9.525 1.767Z" fill="#8CC34A"/><path d="m4.763 10.11 4.157 7.25 4.135-7.238H4.763v-.012Z" fill="#4EB748"/><path d="m10.142.662 4.157 7.25L18.445.673h-8.292l-.011-.01Z" fill="#CEDD38"/><path d="m0 19.558 4.157 7.25 4.136-7.24H0v-.01Z" fill="#0C98A7"/><path d="M8.931 20.64 4.796 27.88h8.293L8.93 20.64Z" fill="#0DBCD4"/><path d="m5.412 28.984 4.136 7.238 4.157-7.25H5.412v.012Z" fill="#44B3E7"/><path d="M4.157 11.237.011 18.476h8.293l-4.158-7.239h.011Z" fill="#27A79A"/><path d="m21.695 24.688-2.13 3.709h4.26l-2.141-3.71h.011Z" fill="#39A4DD"/><path d="m24.15 10.155-2.141 3.72h4.258l-2.13-3.72h.012Z" fill="#8CC34A"/><path d="m22.334 14.45 2.129 3.71 2.14-3.72h-4.258l-.011.01Z" fill="#4EB748"/><path d="m19.566 9.591 2.129 3.71 2.14-3.72h-4.258l-.011.01Z" fill="#CEDD38"/><path d="m24.777 19.288 2.129 3.709 2.14-3.72h-4.258l-.011.01Z" fill="#0C98A7"/><path d="m24.452 19.84-2.14 3.72h4.258l-2.13-3.72h.012Z" fill="#0DBCD4"/><path d="m21.998 24.113 2.14 3.72 2.13-3.708h-4.26l-.01-.012Z" fill="#44B3E7"/><path d="m26.906 15.015-2.14 3.72h4.258l-2.13-3.72h.012Z" fill="#27A79A"/><path d="M37.81 9.626h-2.388v18.783h2.387V9.626ZM49.52 9.592c-2.544 0-4.74.913-6.59 2.74-1.849 1.826-2.767 4.036-2.767 6.64s.918 4.747 2.767 6.607c1.85 1.849 4.046 2.785 6.59 2.785 2.543 0 4.807-.925 6.634-2.785 1.815-1.85 2.734-4.059 2.734-6.607s-.908-4.825-2.734-6.64c-1.816-1.827-4.035-2.74-6.634-2.74Zm4.941 14.33c-1.355 1.364-3.003 2.04-4.941 2.04-1.939 0-3.62-.676-4.965-2.018-1.344-1.341-2.017-2.999-2.017-4.972 0-1.973.673-3.63 2.017-4.972 1.345-1.342 2.992-2.018 4.965-2.018 1.972 0 3.586.676 4.941 2.04 1.356 1.365 2.04 3.01 2.04 4.95 0 1.94-.684 3.585-2.04 4.95ZM69.948 11.982c2.14 0 3.911.823 5.334 2.48l1.86-1.476c-.896-1.105-1.95-1.94-3.16-2.514-1.21-.575-2.555-.868-4.034-.868-2.543 0-4.74.913-6.589 2.74-1.849 1.826-2.768 4.035-2.768 6.64 0 2.604.92 4.746 2.768 6.607 1.85 1.849 4.045 2.784 6.59 2.784 1.411 0 2.734-.281 3.944-.845a9.259 9.259 0 0 0 3.16-2.413l-1.905-1.477c-1.356 1.567-3.093 2.345-5.2 2.345-1.96 0-3.62-.676-4.964-2.018-1.345-1.341-2.017-2.999-2.017-4.972 0-1.973.672-3.63 2.017-4.972 1.345-1.342 2.992-2.018 4.964-2.018v-.023ZM88.214 9.592c-2.544 0-4.74.913-6.589 2.74-1.849 1.826-2.768 4.036-2.768 6.64s.919 4.747 2.768 6.607c1.849 1.849 4.045 2.785 6.59 2.785 2.543 0 4.807-.925 6.633-2.785 1.816-1.85 2.734-4.059 2.734-6.607s-.907-4.825-2.734-6.64c-1.815-1.827-4.034-2.74-6.634-2.74Zm4.942 14.33c-1.356 1.364-3.003 2.04-4.942 2.04s-3.62-.676-4.964-2.018c-1.345-1.341-2.017-2.999-2.017-4.972 0-1.973.672-3.63 2.017-4.972 1.345-1.342 2.992-2.018 4.964-2.018 1.972 0 3.586.676 4.942 2.04 1.356 1.365 2.04 3.01 2.04 4.95 0 1.94-.684 3.585-2.04 4.95ZM115.624.696v12.03c-1.882-2.086-4.202-3.123-6.981-3.123-2.544 0-4.74.913-6.589 2.74-1.849 1.826-2.768 4.036-2.768 6.64 0 2.605.919 4.747 2.768 6.607 1.849 1.85 4.045 2.785 6.589 2.785 2.544 0 4.886-.97 6.757-2.909l-.022 2.954h2.611V.696h-2.387.022Zm-2.039 23.237c-1.356 1.364-3.003 2.04-4.942 2.04s-3.62-.676-4.964-2.018c-1.345-1.341-2.018-2.999-2.018-4.972 0-1.973.673-3.63 2.018-4.972 1.344-1.341 2.992-2.018 4.964-2.018 1.972 0 3.586.677 4.942 2.04 1.356 1.365 2.039 3.011 2.039 4.95 0 1.94-.683 3.586-2.039 4.95ZM37.81 3.831h-2.388v2.402h2.387V3.83Z" fill="#fff"/></g><defs><clipPath id="clip0_1_1270"><path fill="#fff" transform="translate(0 .662)" d="M0 0h118v36.676H0z"/></clipPath></defs></svg>