<svg width="265" height="60" fill="none" xmlns="http://www.w3.org/2000/svg"><g clip-path="url('#clip0_1_1703')"><path d="M23.293 47.837 16.599 59.5H29.95l-6.658-11.662Z" fill="#39A4DD"/><path d="M15.587 2.277 8.929 13.92H22.28L15.587 2.277Z" fill="#8CC34A"/><path d="m7.919 15.7 6.694 11.662 6.658-11.644H7.92V15.7Z" fill="#4EB748"/><path d="m16.58.5 6.693 11.662L29.95.518H16.596L16.58.5Z" fill="#CEDD38"/><path d="M.25 30.897 6.944 42.56l6.658-11.644H.25v-.018Z" fill="#0C98A7"/><path d="M14.632 32.64 7.974 44.282h13.352L14.632 32.64Z" fill="#0DBCD4"/><path d="m8.966 46.061 6.658 11.644 6.694-11.662H8.966v.018Z" fill="#44B3E7"/><path d="M6.945 17.513.269 29.157H13.62L6.927 17.513h.018Z" fill="#27A79A"/><path d="m35.183 39.15-3.428 5.967h6.857l-3.447-5.967h.018Z" fill="#39A4DD"/><path d="m39.135 15.772-3.447 5.985h6.857l-3.428-5.985h.018Z" fill="#8CC34A"/><path d="m36.21 22.682 3.428 5.967 3.447-5.985h-6.857l-.018.018Z" fill="#4EB748"/><path d="m31.755 14.865 3.428 5.967 3.447-5.985h-6.857l-.018.018Z" fill="#CEDD38"/><path d="m40.145 30.462 3.429 5.968 3.446-5.986h-6.856l-.019.018Z" fill="#0C98A7"/><path d="m39.621 31.351-3.446 5.985h6.856l-3.428-5.985h.018Z" fill="#0DBCD4"/><path d="m35.669 38.226 3.446 5.985 3.429-5.967h-6.857l-.018-.018Z" fill="#44B3E7"/><path d="m43.573 23.588-3.446 5.986h6.857l-3.429-5.986h.018Z" fill="#27A79A"/><path d="M70.374 14.42h-5.73v45.054h5.73V14.419ZM98.489 14.337c-6.108 0-11.381 2.19-15.82 6.572-4.44 4.381-6.646 9.682-6.646 15.929s2.207 11.385 6.646 15.847c4.439 4.435 9.712 6.68 15.82 6.68 6.107 0 11.541-2.218 15.927-6.68 4.358-4.435 6.564-9.736 6.564-15.847 0-6.112-2.179-11.575-6.564-15.929-4.359-4.381-9.686-6.572-15.927-6.572Zm11.864 34.373c-3.255 3.272-7.21 4.895-11.864 4.895-4.655 0-8.69-1.623-11.92-4.841-3.228-3.218-4.842-7.194-4.842-11.926 0-4.733 1.614-8.708 4.843-11.927 3.228-3.218 7.183-4.84 11.919-4.84 4.735 0 8.609 1.622 11.864 4.894 3.256 3.273 4.897 7.221 4.897 11.873 0 4.651-1.641 8.6-4.897 11.872ZM147.535 20.072c5.139 0 9.39 1.974 12.807 5.95l4.466-3.543c-2.153-2.65-4.681-4.652-7.587-6.031-2.906-1.38-6.134-2.082-9.686-2.082-6.107 0-11.38 2.19-15.819 6.571-4.44 4.381-6.646 9.682-6.646 15.929s2.206 11.385 6.646 15.847c4.439 4.435 9.712 6.68 15.819 6.68 3.39 0 6.565-.676 9.471-2.028 2.905-1.352 5.434-3.273 7.587-5.788l-4.574-3.542c-3.256 3.759-7.426 5.625-12.484 5.625-4.708 0-8.69-1.623-11.918-4.841-3.229-3.218-4.843-7.194-4.843-11.926 0-4.733 1.614-8.708 4.843-11.927 3.228-3.218 7.183-4.84 11.918-4.84v-.054ZM191.389 14.337c-6.107 0-11.381 2.19-15.82 6.572-4.439 4.381-6.645 9.682-6.645 15.929s2.206 11.385 6.645 15.847c4.439 4.435 9.713 6.68 15.82 6.68 6.107 0 11.542-2.218 15.927-6.68 4.359-4.435 6.565-9.736 6.565-15.847 0-6.112-2.179-11.575-6.565-15.929-4.358-4.381-9.685-6.572-15.927-6.572Zm11.865 34.373c-3.256 3.272-7.211 4.895-11.865 4.895-4.655 0-8.69-1.623-11.919-4.841-3.228-3.218-4.842-7.194-4.842-11.926 0-4.733 1.614-8.708 4.842-11.927 3.229-3.218 7.184-4.84 11.919-4.84s8.609 1.622 11.865 4.894c3.255 3.273 4.896 7.221 4.896 11.873 0 4.651-1.641 8.6-4.896 11.872ZM257.197-7v28.855c-4.52-5.003-10.089-7.49-16.761-7.49-6.108 0-11.381 2.19-15.82 6.571s-6.645 9.681-6.645 15.929c0 6.247 2.206 11.385 6.645 15.847 4.439 4.435 9.712 6.68 15.82 6.68 6.107 0 11.73-2.326 16.223-6.977l-.054 7.085h6.269V-7h-5.731.054ZM252.3 48.737c-3.255 3.272-7.21 4.895-11.864 4.895-4.655 0-8.69-1.623-11.919-4.841-3.228-3.218-4.843-7.194-4.843-11.926 0-4.733 1.615-8.708 4.843-11.927 3.229-3.218 7.184-4.84 11.919-4.84s8.609 1.622 11.864 4.895c3.256 3.272 4.897 7.22 4.897 11.872 0 4.651-1.641 8.6-4.897 11.872ZM70.374.52h-5.73v5.76h5.73V.52Z" fill="#04000E"/></g><defs><clipPath id="clip0_1_1703"><path fill="#fff" transform="translate(.25 .5)" d="M0 0h264.5v59H0z"/></clipPath></defs></svg>