<svg width="48" height="59" fill="none" xmlns="http://www.w3.org/2000/svg"><path d="M37.16 14.688c.049-.188.09-.34.119-.504.128-.847-.002-1.656-.27-2.473-.38-1.137-.999-2.134-1.735-3.063-1.222-1.528-2.711-2.778-4.36-3.805-2.444-1.527-5.084-2.53-7.903-3.059-1.584-.292-3.161-.413-4.75-.213-.576.072-1.133.198-1.689.348-.322.09-.622.282-.924.45-.108.057-.216.114-.316.033a.595.595 0 0 1-.144-.282c-.01-.216.12-.378.294-.464.346-.196.676-.425 1.053-.533.608-.189 1.234-.323 1.877-.401 1.213-.195 2.462-.154 3.69.015 4.289.603 8.147 2.222 11.508 4.99 1.5 1.237 2.77 2.68 3.648 4.428.765 1.53 1.169 3.099.688 4.84.132.065.262.109.382.165 1.564.648 3.074 1.438 4.457 2.436 1.346.967 2.548 2.087 3.427 3.503.275.45.508.93.695 1.412.877 2.387.15 4.61-1.937 6.061-.757.525-1.587.885-2.46 1.17-1.702.544-3.462.75-5.239.798-.489.017-.97-.001-1.473.005-.102 0-.193.01-.34.013.06.154.11.297.157.418.474 1.15.76 2.353.718 3.602-.043 1.558-.549 2.947-1.615 4.11-.637.682-1.373 1.182-2.224 1.567-1.341.609-2.766.86-4.231.933-.194.009-.387.017-.615.018.016.158.043.304.057.44.189 1.373.03 2.692-.689 3.91-.512.886-1.242 1.556-2.111 2.092-1.116.688-2.32 1.076-3.6 1.3-1.77.323-3.552.326-5.334.1-.138-.008-.289-.027-.462-.043l.08.437c.314 1.475.56 2.957.58 4.463.015.695-.027 1.384-.092 2.076a3.687 3.687 0 0 1-.429 1.473c-.18.35-.37.507-.679.608-.002-.023-.017-.056-.017-.056.339-.366.462-.825.538-1.3.118-.733.11-1.463.058-2.188-.126-1.86-.455-3.7-.884-5.516-.015-.033-.03-.065-.05-.143-.104-.024-.222-.057-.35-.078-3.104-.636-5.992-1.82-8.62-3.578-1.398-.928-2.665-2.018-3.632-3.402a6.58 6.58 0 0 1-.825-1.558 3.752 3.752 0 0 1-.217-1.314c.045-.998.516-1.733 1.407-2.168.62-.305 1.275-.373 1.962-.353 1.41.047 2.7.472 3.922 1.133 2.714 1.498 4.646 3.706 5.758 6.594.44 1.142.76 2.354 1.133 3.526l.11.4c.048.017.073.037.108.045 2.123.315 4.25.345 6.359-.138 1.193-.273 2.303-.697 3.286-1.45 1.617-1.254 2.26-3.194 1.742-5.31-.115-.011-.266-.03-.404-.038-2.726-.184-5.326-.804-7.792-1.997-1.022-.499-1.984-1.072-2.83-1.84-.491-.44-.952-.918-1.242-1.504a3.573 3.573 0 0 1-.372-1.047c-.154-.829.204-1.551.935-1.993.42-.238.875-.365 1.35-.415.813-.085 1.623.014 2.41.217 1.853.47 3.488 1.36 4.94 2.58 1.627 1.36 2.87 2.99 3.584 5.017l.06.13c.102.002.218.012.32.013 1.197-.022 2.393-.17 3.542-.54.895-.288 1.708-.704 2.42-1.326.974-.845 1.536-1.92 1.712-3.183a6.61 6.61 0 0 0-.211-2.902c-.16-.543-.384-1.056-.576-1.584-.082-.232-.24-.318-.492-.337a32.447 32.447 0 0 1-5.093-.76c-2.56-.566-5.065-1.356-7.415-2.539-1.145-.577-2.22-1.241-3.167-2.113-.469-.443-.885-.925-1.142-1.526-.41-.974-.08-1.865.864-2.34.26-.141.546-.24.838-.293.46-.082.911-.13 1.368-.131 1.016-.004 2.029.176 3.005.451 3.434.944 6.453 2.628 9.01 5.137.943.93 1.771 1.974 2.438 3.115.097.161.19.277.417.276 1.834.06 3.646.02 5.447-.34 1.03-.198 2.028-.485 2.962-.948a5.929 5.929 0 0 0 1.495-1.001c1.136-1.044 1.55-2.32 1.29-3.835-.193-1.088-.714-2.027-1.375-2.895-.886-1.152-1.976-2.078-3.19-2.876-1.251-.83-2.577-1.49-3.97-2.042a.682.682 0 0 0-.236-.067c-.06.075-.124.127-.162.2a4.733 4.733 0 0 1-2.05 1.813c-.566.264-1.157.509-1.758.663-2.57.645-5.121.5-7.632-.358-.58-.202-1.146-.474-1.62-.859-.15-.121-.3-.243-.439-.377-.832-.86-.735-1.899.193-2.635.391-.304.84-.499 1.304-.639.73-.236 1.495-.338 2.279-.386 1.963-.125 3.905.107 5.814.559 1.065.243 2.106.591 3.153.882.148-.004.278.04.42.093ZM14.446 47.894c-.128-.455-.238-.855-.36-1.264-.4-1.318-.834-2.62-1.518-3.817-1.324-2.294-3.162-4.033-5.59-5.093-.899-.398-1.848-.63-2.84-.606-.479.004-.94.064-1.386.281-.63.317-.99.812-.971 1.53.012.34.05.702.186 1.02.185.46.415.915.698 1.331.808 1.172 1.865 2.113 3.024 2.928 2.527 1.781 5.324 2.974 8.34 3.642.116.01.241.01.417.048Zm19.54-18.302c-.057-.108-.074-.163-.114-.216a14.988 14.988 0 0 0-1.851-2.309c-1.762-1.78-3.813-3.154-6.099-4.16-1.544-.673-3.126-1.17-4.808-1.315a8.75 8.75 0 0 0-1.641.034c-.34.036-.669.161-.984.32-.455.23-.584.643-.409 1.116.082.232.206.435.352.637.416.585.954 1.043 1.534 1.45a15.302 15.302 0 0 0 2.804 1.593c3.487 1.566 7.154 2.452 10.953 2.843.057.006.138.009.263.007ZM26.533 40.26c-.035-.11-.044-.2-.086-.276-.176-.37-.319-.755-.527-1.11-1.205-2.136-2.956-3.7-5.126-4.8-1.06-.528-2.15-.894-3.336-.988-.541-.046-1.076-.024-1.606.145-.86.295-1.17.933-.853 1.79.175.474.491.875.837 1.238.748.813 1.677 1.401 2.655 1.905 2.437 1.253 5.04 1.895 7.756 2.092.07.016.16.006.286.004Zm10.346-24.87c-.107-.045-.18-.083-.24-.111-2.356-.794-4.776-1.33-7.264-1.424-1.043-.04-2.08-.011-3.105.232-.457.105-.92.268-1.33.493-.887.481-.93 1.17-.164 1.833.49.418 1.055.69 1.658.89 2.235.737 4.5.878 6.802.387.849-.18 1.651-.481 2.377-.968a4.088 4.088 0 0 0 1.266-1.331Z" fill="#FFFFFC" fill-opacity=".8"/></svg>