<svg width="20" height="20" fill="none" xmlns="http://www.w3.org/2000/svg"><g clip-path="url('#clip0_1_1313')"><path d="M16.725 4.108A8.307 8.307 0 0 1 19.167 10c0 2.3-.934 4.383-2.442 5.891l-1.175-1.175A6.615 6.615 0 0 0 17.5 10a6.63 6.63 0 0 0-1.95-4.717l1.175-1.175Zm-2.358 2.358A4.983 4.983 0 0 1 15.833 10a4.982 4.982 0 0 1-1.466 3.533l-1.175-1.175A3.325 3.325 0 0 0 14.167 10c0-.925-.375-1.759-.975-2.359l1.175-1.175Zm-3.534 1.867a1.667 1.667 0 1 1 0 3.334 1.667 1.667 0 0 1 0-3.334Zm-1.25-7.5a2.083 2.083 0 0 1 2.084 2.083v3.75H10V3.333H2.5v12.5H10v-2.5h1.667v3.75a2.083 2.083 0 0 1-2.083 2.083H2.917a2.083 2.083 0 0 1-2.084-2.083V2.916A2.083 2.083 0 0 1 2.917.833h6.667Z" fill="#fff"/></g><defs><clipPath id="clip0_1_1313"><path fill="#fff" d="M0 0h20v20H0z"/></clipPath></defs></svg>