<svg width="19" height="19" fill="none" xmlns="http://www.w3.org/2000/svg"><path d="M15.658 7.115 11 2.585a2.122 2.122 0 0 0-2.925 0l-4.657 4.5a1.95 1.95 0 0 0-.668 1.448v6.434A2.062 2.062 0 0 0 4.835 17h9.33a2.062 2.062 0 0 0 2.085-2.033V8.534a2.002 2.002 0 0 0-.592-1.418ZM9.08 3.665a.622.622 0 0 1 .84 0L14 7.625l-4.102 3.96a.622.622 0 0 1-.84 0L5 7.625l4.08-3.96Zm5.67 11.302a.57.57 0 0 1-.585.533h-9.33a.57.57 0 0 1-.585-.533V9.014l3.037 2.925-1.244 1.2a.75.75 0 0 0 0 1.057.751.751 0 0 0 .54.232.75.75 0 0 0 .517-.21l1.328-1.274a2.1 2.1 0 0 0 2.19 0l1.327 1.274a.75.75 0 0 0 .811.15.751.751 0 0 0 .246-.172.75.75 0 0 0 0-1.058l-1.252-1.2 3-2.924v5.954Z" fill="#04000E" fill-opacity=".7"/></svg>