<svg width="27" height="27" fill="none" xmlns="http://www.w3.org/2000/svg"><path d="M16.16 4.405a.612.612 0 0 1 .747-.432 8.556 8.556 0 0 1 6.12 6.12.61.61 0 1 1-1.179.314 7.347 7.347 0 0 0-5.255-5.255.608.608 0 0 1-.432-.747Zm-.38 3.997c1.478.394 2.424 1.34 2.818 2.818a.61.61 0 0 0 1.179-.315c-.508-1.9-1.782-3.174-3.682-3.682a.61.61 0 1 0-.315 1.179Zm8.068 9.851a5.51 5.51 0 0 1-5.473 4.794c-7.952 0-14.422-6.47-14.422-14.422a5.51 5.51 0 0 1 4.79-5.473 1.422 1.422 0 0 1 1.48.852l2.143 4.783a1.423 1.423 0 0 1-.157 1.407l-2.14 2.545a.192.192 0 0 0 0 .17c.778 1.592 2.448 3.25 4.063 4.027a.192.192 0 0 0 .17-.006l2.508-2.133a1.423 1.423 0 0 1 1.406-.167l4.797 2.15a1.422 1.422 0 0 1 .835 1.476v-.003Zm-1.207-.15a.203.203 0 0 0-.123-.203l-4.8-2.15a.193.193 0 0 0-.162.01l-2.506 2.132a1.423 1.423 0 0 1-1.455.144c-1.865-.9-3.724-2.741-4.625-4.589a1.421 1.421 0 0 1 .093-1.394.48.48 0 0 1 .043-.058l2.14-2.545a.204.204 0 0 0 0-.17l-2.14-4.788a.203.203 0 0 0-.186-.133h-.024a4.29 4.29 0 0 0-3.724 4.266c0 7.28 5.923 13.203 13.203 13.203a4.29 4.29 0 0 0 4.266-3.725Z" fill="#04000E"/></svg>