<svg width="80" height="80" fill="none" xmlns="http://www.w3.org/2000/svg"><path d="M53.405 17.005c-14.674-2.487-31.2-1.557-42.196 6.91C-.12 32.638 2.054 47.51 15.43 51.531c1.996.6 3.876 1.294 6.256 1.459.137.01 3.856 9.307 4.14 9.348.224.031 8.55-8.422 8.663-8.42 1.864.027 3.74-.137 5.614-.308 9.325-.852 18.597-3.392 26.073-7.491 16.442-9.016 3.489-25.91-10.008-28.202m2.757.679c.623-.4 1.21-.85 1.843-1.235m.72 2.2c.867-.618 1.722-1.245 2.6-1.847m-.267 3.071c.866-.668 1.717-1.47 2.663-2.026m-.326 3.561c.856-.744 1.824-1.558 2.825-2.113m-.371 4.218c.773-.73 1.652-1.328 2.537-1.914m-.356 4.39c.656-.617 1.308-1.223 2.054-1.731m-.468 4.29c.705-.656 1.482-1.35 2.317-1.846m-1.111 5.024c.759-.656 1.584-1.228 2.372-1.848m-2.131 5.675c.766-.575 1.496-1.217 2.32-1.71M15.224 53.265a21.385 21.385 0 0 1 1.76-1.27m2.248 2.404c.657-.49 1.343-.958 2.012-1.432m13.498 3.401a93.926 93.926 0 0 0 2.443-2.535m-3.794 3.96c-.64.734-1.404 1.349-2.057 2.074m-1.211 1.32c-1.115.82-1.853 2.075-2.864 3.012m11.564-8.304c1.112-.78 2.081-1.736 3.218-2.484m2.216 1.954c.954-.905 1.856-1.98 2.942-2.73m2.116 1.754c.833-1.052 1.832-2.093 2.935-2.874m2.51 1.74c1.075-1.309 2.337-2.639 3.695-3.661m1.989 1.633c1.362-1.676 3.195-3.197 4.838-4.606m1.46 2.748c2.842-3.645 6.167-6.964 9.23-10.423m-4.209 8.321c1.266-1.506 2.623-2.975 3.952-4.428" stroke="#04000E" stroke-width="2" stroke-miterlimit="1.5" stroke-linecap="round" stroke-linejoin="round"/></svg>