<svg width="181" height="156" fill="none" xmlns="http://www.w3.org/2000/svg"><path d="M44.293 3.962 65.893 1l67.122 17.416 18.03 13.404M44.293 3.962l18.43 19.698M44.294 3.962 2 20.756M151.045 31.82l-25.326 8.185m25.326-8.185 28.357 34.965M62.724 23.66 29.27 47.505M62.724 23.66l27.134 7.04M2 20.756l27.27 26.75M2 20.756l58.95 133.26M125.72 40.005l-26.975-6.999m26.975 6.999 17.169 37.615m36.514-10.835L142.888 77.62m36.514-10.835L60.951 154.016m37.793-121.01L89.858 30.7m8.886 2.306 2.997 43.934m41.147.68-41.147-.68m41.147.68L60.95 154.016M29.27 47.506l36.45 20.089M29.27 47.506l31.68 106.51M89.858 30.7 65.72 67.595m-4.77 86.421 4.77-86.421m-4.77 86.421 40.791-77.076m-36.02-9.345 36.02 9.345" stroke="#1A1A1A" stroke-width="1.503"/></svg>