<svg width="79" height="46" fill="none" xmlns="http://www.w3.org/2000/svg"><g clip-path="url('#clip0_1_1240')"><path fill="url('#paint0_linear_1_1240')" d="M0 0h79v46H0z"/><path fill-rule="evenodd" clip-rule="evenodd" d="m30.49-16.335.04.175c.133.748.25 1.51.394 2.01 1.97 6.801 1.608 14.814.944 21.797-1.596 16.708-2.295 33.498-2.673 50.28-.106 4.703.364 9.413.563 14.106.06 1.389.143 2.77.222 4.155.041.603-.189 1.87-.178 2.527.003.473.122.82.23 1.018.285.495.695.702 1.149.734.294.026.767-.007 1.264-.517 5.213-5.38 9.589-14.9 13.386-25.624C51.41 38.576 55.79 20.228 60.097 9.16c1.134-2.91 2.423-9.236 4.172-14.5.77-2.335 1.596-4.465 2.577-5.863-.043 1.378-.256 3.089-.213 4.066.19 4.22-.274 8.454-.334 12.671-.184 12.827 7.084 51.64 10.401 64.13 2.68 10.103 23.39 66.13 46.425 92.133a1.347 1.347 0 0 0 1.904.117c.559-.495.608-1.35.117-1.905-22.758-25.692-43.19-81.056-45.839-91.037-3.278-12.353-10.494-50.72-10.31-63.394.064-4.274.52-8.562.33-12.836-.069-1.541.373-4.772.061-6.129-.175-.766-.582-1.222-.984-1.437-.493-.261-1.185-.376-2.036.246-1.392 1.022-2.66 3.139-3.727 5.804C60.425-3.223 58.9 4.8 57.585 8.183c-4.315 11.085-8.711 29.462-14.296 45.244-3.116 8.792-6.576 16.774-10.64 22.13a229.685 229.685 0 0 1-.194-3.64c-.203-4.636-.668-9.282-.565-13.927.382-16.717 1.074-33.447 2.663-50.086.696-7.307 1.02-15.69-1.033-22.804-.292-1.002-.512-3.081-.974-3.918-.296-.537-.706-.829-1.1-.945-.482-.15-1.065-.136-1.689.401-2.557 2.192-5.82 6.929-9.255 12.823C12.703 6.853 3.858 26.27-.091 34.065c-2.653 5.234-5.107 10.604-7.924 15.75-.14.257-3.212 4.917-4.678 7.134-.71-1.44-1.403-3.646-2.114-6.218-2.492-9.044-4.676-22.546-5.391-26.634C-21.573 16.258-22.742 8.403-24.3.596c-2.458-12.322-5.316-24.546-7.64-36.896a1.344 1.344 0 0 0-1.57-1.076 1.35 1.35 0 0 0-1.08 1.574c2.32 12.36 5.182 24.597 7.644 36.93 1.553 7.781 2.718 15.617 4.089 23.438.723 4.125 2.935 17.754 5.45 26.881 1.15 4.185 2.44 7.453 3.615 8.698.33.342 1.194.834 2.163-.052 1.239-1.136 5.781-8.616 5.981-8.98 2.83-5.173 5.294-10.57 7.963-15.826 3.937-7.767 12.748-27.12 20.52-40.463C25.634-9.98 28.27-14 30.49-16.335Z" fill="#FFFFFC"/></g><defs><linearGradient id="paint0_linear_1_1240" x1="39.5" y1="0" x2="39.5" y2="46" gradientUnits="userSpaceOnUse"><stop stop-color="#CEDD39"/><stop offset="1" stop-color="#43B4E7"/></linearGradient><clipPath id="clip0_1_1240"><path fill="#fff" d="M0 0h79v46H0z"/></clipPath></defs></svg>