<svg width="1412" height="1124" viewBox="0 0 1412 1124" fill="none" xmlns="http://www.w3.org/2000/svg">
<ellipse cx="1152.62" cy="898.736" rx="85.8145" ry="85.5512" transform="rotate(-152.88 1152.62 898.736)" fill="#04000E"/>
<path d="M1076.69 859.845C1098.1 818.038 1149.45 801.556 1191.39 823.035C1233.33 844.515 1249.97 895.82 1228.55 937.627C1207.14 979.433 1155.79 995.915 1113.85 974.436C1071.91 952.956 1055.27 901.651 1076.69 859.845Z" stroke="white" stroke-opacity="0.5"/>
<path d="M139.229 271.525C215.938 121.752 399.851 62.6808 550.011 139.588C700.172 216.494 759.715 400.255 683.006 550.028C606.298 699.801 422.385 758.872 272.225 681.965C122.064 605.059 62.521 421.298 139.229 271.525Z" stroke="#E3E3E3" stroke-opacity="0.2" stroke-width="0.5"/>
<path d="M221.289 313.553C274.846 208.984 403.251 167.742 508.091 221.437C612.931 275.132 654.502 403.431 600.946 508C547.389 612.569 418.984 653.812 314.144 600.117C209.305 546.421 167.733 418.122 221.289 313.553Z" stroke="#E3E3E3" stroke-opacity="0.2" stroke-width="0.5"/>
</svg>
