<svg width="19" height="19" viewBox="0 0 19 19" fill="none" xmlns="http://www.w3.org/2000/svg">
<path d="M15.0575 10.25C14.8925 10.25 14.72 10.1975 14.555 10.16C14.2211 10.0853 13.8928 9.98761 13.5725 9.8675C13.2246 9.74092 12.8421 9.7475 12.4987 9.88595C12.1554 10.0244 11.8753 10.285 11.7125 10.6175L11.5475 10.9625C10.8191 10.5494 10.1462 10.0454 9.54501 9.4625C8.96215 8.86128 8.4581 8.18838 8.04501 7.46L8.39001 7.3025C8.72253 7.13969 8.98309 6.85965 9.12155 6.51627C9.26001 6.17289 9.26658 5.79043 9.14001 5.4425C9.0209 5.11927 8.92319 4.78856 8.84751 4.4525C8.81001 4.2875 8.78001 4.115 8.75751 3.95C8.66643 3.42171 8.38973 2.94331 7.97722 2.60093C7.56472 2.25855 7.04353 2.07471 6.50751 2.0825H4.25001C3.93294 2.08208 3.61937 2.14869 3.32985 2.27794C3.04032 2.40719 2.78138 2.59617 2.57001 2.8325C2.35425 3.07524 2.19359 3.36181 2.09908 3.67253C2.00458 3.98324 1.97845 4.31073 2.02251 4.6325C2.4302 7.7541 3.85641 10.654 6.08001 12.8825C8.30852 15.1061 11.2084 16.5323 14.33 16.94C14.4274 16.9474 14.5251 16.9474 14.6225 16.94C15.1756 16.9408 15.7096 16.7379 16.1225 16.37C16.3588 16.1586 16.5478 15.8997 16.6771 15.6102C16.8063 15.3206 16.8729 15.0071 16.8725 14.69V12.44C16.8685 11.9218 16.6856 11.4208 16.355 11.0218C16.0243 10.6228 15.566 10.3502 15.0575 10.25ZM15.425 14.75C15.4248 14.8547 15.4026 14.9581 15.36 15.0537C15.3174 15.1493 15.2552 15.2349 15.1775 15.305C15.0953 15.3799 14.9975 15.4356 14.8911 15.468C14.7848 15.5004 14.6725 15.5088 14.5625 15.4925C11.7637 15.127 9.16269 13.8515 7.16001 11.8625C5.15561 9.8581 3.86903 7.24803 3.50001 4.4375C3.48371 4.3275 3.49208 4.21525 3.52451 4.10889C3.55694 4.00252 3.61262 3.9047 3.68751 3.8225C3.75847 3.74386 3.84529 3.68115 3.94224 3.63849C4.0392 3.59583 4.14409 3.57419 4.25001 3.575H6.50001C6.67338 3.57076 6.84286 3.62674 6.97961 3.7334C7.11635 3.84006 7.21191 3.99081 7.25001 4.16C7.25001 4.3625 7.31751 4.5725 7.36251 4.775C7.44919 5.1679 7.5645 5.55393 7.70751 5.93L6.65751 6.425C6.47703 6.50785 6.33678 6.65889 6.26751 6.845C6.19249 7.0276 6.19249 7.2324 6.26751 7.415C7.34691 9.72707 9.20544 11.5856 11.5175 12.665C11.7001 12.74 11.9049 12.74 12.0875 12.665C12.2736 12.5957 12.4247 12.4555 12.5075 12.275L12.98 11.225C13.3669 11.3661 13.7628 11.4813 14.165 11.57C14.36 11.615 14.57 11.6525 14.7725 11.6825C14.9417 11.7206 15.0924 11.8162 15.1991 11.9529C15.3058 12.0896 15.3617 12.2591 15.3575 12.4325L15.425 14.75ZM11 2C10.8275 2 10.6475 2 10.475 2C10.2761 2.01691 10.092 2.11214 9.96335 2.26475C9.83465 2.41736 9.77185 2.61484 9.78876 2.81375C9.80566 3.01266 9.9009 3.19671 10.0535 3.32541C10.2061 3.45411 10.4036 3.51691 10.6025 3.5H11C12.1935 3.5 13.3381 3.97411 14.182 4.81802C15.0259 5.66193 15.5 6.80653 15.5 8C15.5 8.135 15.5 8.2625 15.5 8.3975C15.4834 8.59536 15.5459 8.79173 15.6738 8.94358C15.8018 9.09542 15.9847 9.19033 16.1825 9.2075H16.2425C16.4303 9.20826 16.6115 9.13858 16.7503 9.01221C16.8892 8.88584 16.9756 8.71199 16.9925 8.525C16.9925 8.3525 16.9925 8.1725 16.9925 8C16.9925 6.41 16.3614 4.88501 15.2378 3.76001C14.1142 2.63501 12.59 2.00199 11 2V2ZM12.5 8C12.5 8.19891 12.579 8.38968 12.7197 8.53033C12.8603 8.67098 13.0511 8.75 13.25 8.75C13.4489 8.75 13.6397 8.67098 13.7803 8.53033C13.921 8.38968 14 8.19891 14 8C14 7.20435 13.6839 6.44129 13.1213 5.87868C12.5587 5.31607 11.7957 5 11 5C10.8011 5 10.6103 5.07902 10.4697 5.21967C10.329 5.36032 10.25 5.55109 10.25 5.75C10.25 5.94891 10.329 6.13968 10.4697 6.28033C10.6103 6.42098 10.8011 6.5 11 6.5C11.3978 6.5 11.7794 6.65804 12.0607 6.93934C12.342 7.22064 12.5 7.60218 12.5 8Z" fill="#04000E" fill-opacity="0.7"/>
</svg>
