<svg width="68" height="73" viewBox="0 0 68 73" fill="none" xmlns="http://www.w3.org/2000/svg">
<path fill-rule="evenodd" clip-rule="evenodd" d="M12.628 23.4867C13.7115 23.2248 14.819 23.093 15.9299 23.0937C24.7274 23.0937 31.8571 31.2417 31.8571 41.2887C31.8571 51.3387 24.7274 59.4867 15.9299 59.4867C7.13238 59.4867 -0.00012207 51.3417 -0.00012207 41.2887C-0.00012207 40.9947 0.00550293 40.6977 0.0195654 40.4037H-0.00012207C-0.00012207 25.2387 10.7999 12.8997 24.0749 12.8997V19.0077C19.7689 19.0077 15.7977 20.6817 12.628 23.4867ZM48.2736 23.4867C49.3368 23.2287 50.4393 23.0937 51.5699 23.0937C60.3674 23.0937 67.4999 31.2417 67.4999 41.2887C67.4999 51.3387 60.3674 59.4867 51.5699 59.4867C42.7724 59.4867 35.6427 51.3417 35.6427 41.2887C35.6427 40.9947 35.6483 40.6977 35.6624 40.4037H35.6427C35.6427 25.2387 46.4427 12.8997 59.7177 12.8997V19.0077C55.4089 19.0077 51.4433 20.6817 48.2736 23.4867Z" fill="#C6E74A"/>
</svg>
