<svg width="68" height="73" viewBox="0 0 68 73" fill="none" xmlns="http://www.w3.org/2000/svg">
<path fill-rule="evenodd" clip-rule="evenodd" d="M12.6281 22.8867C13.7116 22.6248 14.8191 22.493 15.93 22.4937C24.7275 22.4937 31.8572 30.6417 31.8572 40.6887C31.8572 50.7387 24.7275 58.8867 15.93 58.8867C7.1325 58.8867 0 50.7417 0 40.6887C0 40.3947 0.005625 40.0977 0.0196875 39.8037H0C0 24.6387 10.8 12.2997 24.075 12.2997V18.4077C19.7691 18.4077 15.7978 20.0817 12.6281 22.8867ZM48.2737 22.8867C49.3369 22.6287 50.4394 22.4937 51.57 22.4937C60.3675 22.4937 67.5 30.6417 67.5 40.6887C67.5 50.7387 60.3675 58.8867 51.57 58.8867C42.7725 58.8867 35.6428 50.7417 35.6428 40.6887C35.6428 40.3947 35.6484 40.0977 35.6625 39.8037H35.6428C35.6428 24.6387 46.4428 12.2997 59.7178 12.2997V18.4077C55.4091 18.4077 51.4434 20.0817 48.2737 22.8867Z" fill="#C6E74A"/>
</svg>
