<svg width="69" height="73" viewBox="0 0 69 73" fill="none" xmlns="http://www.w3.org/2000/svg">
<path fill-rule="evenodd" clip-rule="evenodd" d="M13.4281 23.4862C14.5115 23.2243 15.619 23.0925 16.7299 23.0932C25.5274 23.0932 32.6571 31.2412 32.6571 41.2882C32.6571 51.3382 25.5274 59.4862 16.7299 59.4862C7.93243 59.4862 0.799927 51.3412 0.799927 41.2882C0.799927 40.9942 0.805552 40.6972 0.819614 40.4032H0.799927C0.799927 25.2382 11.5999 12.8992 24.8749 12.8992V19.0072C20.569 19.0072 16.5977 20.6812 13.4281 23.4862ZM49.0737 23.4862C50.1368 23.2282 51.2393 23.0932 52.3699 23.0932C61.1674 23.0932 68.2999 31.2412 68.2999 41.2882C68.2999 51.3382 61.1674 59.4862 52.3699 59.4862C43.5724 59.4862 36.4427 51.3412 36.4427 41.2882C36.4427 40.9942 36.4484 40.6972 36.4624 40.4032H36.4427C36.4427 25.2382 47.2427 12.8992 60.5177 12.8992V19.0072C56.209 19.0072 52.2434 20.6812 49.0737 23.4862Z" fill="#C6E74A"/>
</svg>
