<svg width="69" height="73" viewBox="0 0 69 73" fill="none" xmlns="http://www.w3.org/2000/svg">
<path fill-rule="evenodd" clip-rule="evenodd" d="M13.4282 22.8867C14.5116 22.6248 15.6191 22.493 16.73 22.4937C25.5275 22.4937 32.6572 30.6417 32.6572 40.6887C32.6572 50.7387 25.5275 58.8867 16.73 58.8867C7.93255 58.8867 0.800049 50.7417 0.800049 40.6887C0.800049 40.3947 0.805674 40.0977 0.819736 39.8037H0.800049C0.800049 24.6387 11.6001 12.2997 24.8751 12.2997V18.4077C20.5691 18.4077 16.5979 20.0817 13.4282 22.8867ZM49.0738 22.8867C50.1369 22.6287 51.2394 22.4937 52.3701 22.4937C61.1676 22.4937 68.3 30.6417 68.3 40.6887C68.3 50.7387 61.1676 58.8867 52.3701 58.8867C43.5726 58.8867 36.4429 50.7417 36.4429 40.6887C36.4429 40.3947 36.4485 40.0977 36.4625 39.8037H36.4429C36.4429 24.6387 47.2429 12.2997 60.5179 12.2997V18.4077C56.2091 18.4077 52.2435 20.0817 49.0738 22.8867Z" fill="#C6E74A"/>
</svg>
