<svg width="68" height="73" viewBox="0 0 68 73" fill="none" xmlns="http://www.w3.org/2000/svg">
<path fill-rule="evenodd" clip-rule="evenodd" d="M13.028 22.6862C14.1115 22.4244 15.219 22.2926 16.3299 22.2932C25.1274 22.2932 32.2571 30.4412 32.2571 40.4882C32.2571 50.5382 25.1274 58.6862 16.3299 58.6862C7.5324 58.6862 0.399902 50.5412 0.399902 40.4882C0.399902 40.1942 0.405527 39.8972 0.41959 39.6032H0.399902C0.399902 24.4382 11.1999 12.0992 24.4749 12.0992V18.2072C20.169 18.2072 16.1977 19.8812 13.028 22.6862ZM48.6737 22.6862C49.7368 22.4282 50.8393 22.2932 51.9699 22.2932C60.7674 22.2932 67.8999 30.4412 67.8999 40.4882C67.8999 50.5382 60.7674 58.6862 51.9699 58.6862C43.1724 58.6862 36.0427 50.5412 36.0427 40.4882C36.0427 40.1942 36.0483 39.8972 36.0624 39.6032H36.0427C36.0427 24.4382 46.8427 12.0992 60.1177 12.0992V18.2072C55.809 18.2072 51.8433 19.8812 48.6737 22.6862Z" fill="#C6E74A"/>
</svg>
