<svg width="68" height="73" viewBox="0 0 68 73" fill="none" xmlns="http://www.w3.org/2000/svg">
<path fill-rule="evenodd" clip-rule="evenodd" d="M12.8283 23.2862C13.9118 23.0244 15.0193 22.8926 16.1302 22.8932C24.9277 22.8932 32.0574 31.0412 32.0574 41.0882C32.0574 51.1382 24.9277 59.2862 16.1302 59.2862C7.3327 59.2862 0.200195 51.1412 0.200195 41.0882C0.200195 40.7942 0.20582 40.4972 0.219883 40.2032H0.200195C0.200195 25.0382 11.0002 12.6992 24.2752 12.6992V18.8072C19.9693 18.8072 15.998 20.4812 12.8283 23.2862ZM48.4739 23.2862C49.5371 23.0282 50.6396 22.8932 51.7702 22.8932C60.5677 22.8932 67.7002 31.0412 67.7002 41.0882C67.7002 51.1382 60.5677 59.2862 51.7702 59.2862C42.9727 59.2862 35.843 51.1412 35.843 41.0882C35.843 40.7942 35.8486 40.4972 35.8627 40.2032H35.843C35.843 25.0382 46.643 12.6992 59.918 12.6992V18.8072C55.6093 18.8072 51.6436 20.4812 48.4739 23.2862Z" fill="#C6E74A"/>
</svg>
