<svg width="69" height="73" viewBox="0 0 69 73" fill="none" xmlns="http://www.w3.org/2000/svg">
<path fill-rule="evenodd" clip-rule="evenodd" d="M13.2281 23.2862C14.3115 23.0244 15.419 22.8926 16.5299 22.8932C25.3274 22.8932 32.4571 31.0412 32.4571 41.0882C32.4571 51.1382 25.3274 59.2862 16.5299 59.2862C7.73245 59.2862 0.599945 51.1412 0.599945 41.0882C0.599945 40.7942 0.60557 40.4972 0.619633 40.2032H0.599945C0.599945 25.0382 11.3999 12.6992 24.6749 12.6992V18.8072C20.369 18.8072 16.3978 20.4812 13.2281 23.2862ZM48.8737 23.2862C49.9368 23.0282 51.0393 22.8932 52.1699 22.8932C60.9674 22.8932 68.0999 31.0412 68.0999 41.0882C68.0999 51.1382 60.9674 59.2862 52.1699 59.2862C43.3724 59.2862 36.2428 51.1412 36.2428 41.0882C36.2428 40.7942 36.2484 40.4972 36.2624 40.2032H36.2428C36.2428 25.0382 47.0428 12.6992 60.3178 12.6992V18.8072C56.009 18.8072 52.0434 20.4812 48.8737 23.2862Z" fill="#C6E74A"/>
</svg>
