<svg width="98" height="142" viewBox="0 0 98 142" fill="none" xmlns="http://www.w3.org/2000/svg">
<path d="M43.8111 1.30371C24.0366 1.30371 8.00641 17.3339 8.00641 37.1084C8.00641 56.8828 24.0366 72.913 43.8111 72.913C63.5855 72.913 79.6157 56.8828 79.6157 37.1084C79.6157 17.3339 63.5855 1.30371 43.8111 1.30371Z" fill="#DDFF0D"/>
<path d="M43.8111 1.30371C24.0366 1.30371 8.00641 17.3339 8.00641 37.1084C8.00641 56.8828 24.0366 72.913 43.8111 72.913C63.5855 72.913 79.6157 56.8828 79.6157 37.1084C79.6157 17.3339 63.5855 1.30371 43.8111 1.30371Z" stroke="#DDFF0D" stroke-width="2.05818"/>
<mask id="mask0_1_1904" style="mask-type:alpha" maskUnits="userSpaceOnUse" x="1" y="12" width="97" height="57">
<path d="M1.88846 66.6776C25.0787 64.4074 35.4899 61.3705 44.6682 57.2061C52.7265 52.9589 69.5874 45.2915 96.4309 12.75C74.9395 71.5863 44.3675 68.1209 1.88846 66.6776Z" fill="#BCA793"/>
<path d="M1.88468 66.6775C25.0758 64.4072 35.4893 61.3736 44.669 57.2042C52.7238 52.957 69.5849 45.2932 96.4316 12.7522C74.9395 71.588 44.3667 68.1228 1.88468 66.6775Z" stroke="#1A1A1A" stroke-width="1.50342"/>
</mask>
<g mask="url(#mask0_1_1904)">
<mask id="mask1_1_1904" style="mask-type:luminance" maskUnits="userSpaceOnUse" x="-269" y="-58" width="437" height="437">
<path d="M167.091 -57.2313H-268.9V378.76H167.091V-57.2313Z" fill="white"/>
</mask>
<g mask="url(#mask1_1_1904)">
<path d="M43.8111 0.927734C24.0366 0.927734 8.00641 16.9579 8.00641 36.7324C8.00641 56.5069 24.0366 72.537 43.8111 72.537C63.5855 72.537 79.6157 56.5069 79.6157 36.7324C79.6157 16.9579 63.5855 0.927734 43.8111 0.927734Z" fill="#DDFF0D"/>
<path d="M43.8111 0.927734C24.0366 0.927734 8.00641 16.9579 8.00641 36.7324C8.00641 56.5069 24.0366 72.537 43.8111 72.537C63.5855 72.537 79.6157 56.5069 79.6157 36.7324C79.6157 16.9579 63.5855 0.927734 43.8111 0.927734Z" stroke="#DDFF0D" stroke-width="2.05818"/>
<mask id="mask2_1_1904" style="mask-type:alpha" maskUnits="userSpaceOnUse" x="6" y="-1" width="75" height="75">
<path d="M43.8111 0.927734C24.0366 0.927734 8.00641 16.9579 8.00641 36.7324C8.00641 56.5069 24.0366 72.537 43.8111 72.537C63.5855 72.537 79.6157 56.5069 79.6157 36.7324C79.6157 16.9579 63.5855 0.927734 43.8111 0.927734Z" fill="#DDFF0D"/>
<path d="M43.8111 0.927734C24.0366 0.927734 8.00641 16.9579 8.00641 36.7324C8.00641 56.5069 24.0366 72.537 43.8111 72.537C63.5855 72.537 79.6157 56.5069 79.6157 36.7324C79.6157 16.9579 63.5855 0.927734 43.8111 0.927734Z" stroke="#DDFF0D" stroke-width="2.05818"/>
</mask>
<g mask="url(#mask2_1_1904)">
<path d="M43.0593 20.1948C34.341 20.1948 27.2734 27.5992 27.2734 36.7324C27.2734 45.8657 34.341 53.27 43.0593 53.27C51.7776 53.27 58.8452 45.8657 58.8452 36.7324C58.8452 27.5992 51.7776 20.1948 43.0593 20.1948Z" fill="black"/>
</g>
</g>
</g>
<path d="M1.88469 141.972C1.88469 140.311 1.50432 82.8907 1.88469 66.6778M1.88469 66.6778C6.17383 35.6074 15.8461 17.1074 28.1738 10.6073C36.2286 6.3601 61.6738 -1.39247 96.4316 12.7525C74.9395 71.5883 44.3667 68.1231 1.88469 66.6778Z" stroke="black" stroke-width="1.50342"/>
<circle cx="16.5" cy="16.5" r="16.5" transform="matrix(-1 0 0 1 66.3438 20.9775)" fill="black"/>
</svg>
