<svg width="109" height="110" viewBox="0 0 109 110" fill="none" xmlns="http://www.w3.org/2000/svg">
<path d="M51.1284 0.5H57.1284L55.2534 53.5H53.0034L51.1284 0.5Z" fill="#C6E74A"/>
<path d="M92.8208 16.5L96.7968 20.9935L55.8618 54.7106L54.3708 53.0255L92.8208 16.5Z" fill="#C6E74A"/>
<path d="M108.154 51.7319L108.128 57.7319L55.1365 55.625L55.1464 53.3751L108.154 51.7319Z" fill="#C6E74A"/>
<path d="M93.5693 91.2878L89.2915 95.495L53.4654 56.3925L55.0695 54.8148L93.5693 91.2878Z" fill="#C6E74A"/>
<path d="M57.1284 109.5H51.1284L53.0034 56.5H55.2534L57.1284 109.5Z" fill="#C6E74A"/>
<path d="M19.5076 97.2849L15.1283 93.1834L52.7266 55.7817L54.3688 57.3198L19.5076 97.2849Z" fill="#C6E74A"/>
<path d="M0.128418 58.5L0.135942 52.5L53.1335 54.4415L53.1307 56.6915L0.128418 58.5Z" fill="#C6E74A"/>
<path d="M14.1284 18.7075L18.4058 14.5L54.236 53.5988L52.6319 55.1766L14.1284 18.7075Z" fill="#C6E74A"/>
<circle cx="53.6284" cy="55" r="4.5" fill="#C6E74A"/>
</svg>
