<svg width="109" height="110" viewBox="0 0 109 110" fill="none" xmlns="http://www.w3.org/2000/svg">
<path d="M51.1797 0.5H57.1797L55.3047 53.5H53.0547L51.1797 0.5Z" fill="#C6E74A"/>
<path d="M92.8721 16.5L96.8481 20.9935L55.9131 54.7106L54.4221 53.0255L92.8721 16.5Z" fill="#C6E74A"/>
<path d="M108.205 51.7319L108.179 57.7319L55.1878 55.625L55.1976 53.3751L108.205 51.7319Z" fill="#C6E74A"/>
<path d="M93.6206 91.2878L89.3427 95.495L53.5166 56.3925L55.1208 54.8148L93.6206 91.2878Z" fill="#C6E74A"/>
<path d="M57.1797 109.5H51.1797L53.0547 56.5H55.3047L57.1797 109.5Z" fill="#C6E74A"/>
<path d="M19.5588 97.2849L15.1796 93.1834L52.7778 55.7817L54.4201 57.3198L19.5588 97.2849Z" fill="#C6E74A"/>
<path d="M0.179688 58.5L0.187212 52.5L53.1848 54.4415L53.182 56.6915L0.179688 58.5Z" fill="#C6E74A"/>
<path d="M14.1797 18.7075L18.4571 14.5L54.2873 53.5988L52.6832 55.1766L14.1797 18.7075Z" fill="#C6E74A"/>
<circle cx="53.6797" cy="55" r="4.5" fill="#C6E74A"/>
</svg>
