<svg width="1754" height="838" viewBox="0 0 1754 838" fill="none" xmlns="http://www.w3.org/2000/svg">
<path fill-rule="evenodd" clip-rule="evenodd" d="M80.6856 46.1787V0H82.1096V46.1787H134.983V0H136.407V46.1787H190.296V0H191.72V46.1787H244.847V0H246.271V46.1787H300.16V0H301.584V46.1787H354.458V0H355.882V46.1787H438.442V47.6027H355.882V95.4021H438.442V96.8261H355.882V144.371H438.442V145.795H355.882V194.863H438.442V196.287H355.882V243.833H438.442V245.257H355.882V279.101H354.458V245.257H301.584V279.101H300.16V245.257H246.271V279.101H244.847V245.257H191.72V279.101H190.296V245.257H136.407V279.101H134.983V245.257H82.1096V279.101H80.6856V245.257H0V243.833H80.6856L80.6856 196.287H0V194.863H80.6856V145.795H0V144.371H80.6856V96.8261H0V95.4021H80.6856V47.6027H0V46.1787H80.6856ZM354.458 243.833V196.287H301.584V243.833H354.458ZM354.458 194.863V145.795H301.584V194.863H354.458ZM354.458 144.371V96.8261H301.584V144.371H354.458ZM354.458 95.4021V47.6027H301.584V95.4021H354.458ZM246.271 47.6027H300.16V95.4021H246.271V47.6027ZM246.271 96.8261H300.16V144.371H246.271L246.271 96.8261ZM246.271 145.795H300.16V194.863H246.271V145.795ZM246.271 196.287H300.16V243.833H246.271V196.287ZM191.72 243.833H244.847V196.287H191.72V243.833ZM190.296 196.287V243.833H136.407L136.407 196.287H190.296ZM191.72 194.863H244.847V145.795H191.72V194.863ZM190.296 145.795V194.863H136.407V145.795H190.296ZM191.72 144.371H244.847L244.847 96.8261H191.72L191.72 144.371ZM190.296 96.8261L190.296 144.371H136.407V96.8261H190.296ZM191.72 95.4021H244.847V47.6027H191.72V95.4021ZM190.296 47.6027V95.4021H136.407V47.6027H190.296ZM82.1096 243.833H134.983L134.983 196.287H82.1096L82.1096 243.833ZM134.983 145.795V194.863H82.1096V145.795H134.983ZM82.1096 96.8261V144.371H134.983V96.8261H82.1096ZM134.983 95.4021H82.1096V47.6027H134.983V95.4021Z" fill="#1B1E2D" fill-opacity="0.5"/>
<path fill-rule="evenodd" clip-rule="evenodd" d="M80.6046 46.162V0H82.6046V46.162H134.848V0H136.848V46.162H190.105V0H192.105V46.162H244.6V0H246.6V46.162H299.858V0H301.858V46.162H354.101V0H356.101V46.162H408.271V0H410.271V46.162H438V48.162H410.271V95.3676H438V97.3676H410.271L410.271 144.319H438V146.319H410.271V194.793H438V196.793H410.271V243.745H438V245.745H410.271V279H408.271V245.745H356.101V279H354.101V245.745H301.858V279H299.858V245.745H246.6V279H244.6V245.745H192.105V279H190.105V245.745H136.848V279H134.848V245.745H82.6046V279H80.6046V245.745H28.3171L28.3171 279H26.3171L26.3171 245.745H0.000335693V243.745H26.3171L26.3171 196.793H0.000335693V194.793H26.3171L26.3171 146.319H0.000335693V144.319H26.3171L26.3171 97.3676H0.000335693V95.3676H26.3171L26.3171 48.162H0.000335693V46.162H26.3171L26.3171 0H28.3171L28.3171 46.162H80.6046ZM28.3171 48.162L28.3171 95.3676H80.6046V48.162H28.3171ZM28.3171 97.3676L28.3171 144.319H80.6046V97.3676H28.3171ZM28.3171 146.319L28.3171 194.793H80.6046V146.319H28.3171ZM28.3171 196.793L28.3171 243.745H80.6046L80.6046 196.793H28.3171ZM356.101 48.162H408.271V95.3676H356.101V48.162ZM356.101 97.3676H408.271L408.271 144.319H356.101L356.101 97.3676ZM356.101 146.319H408.271V194.793H356.101V146.319ZM356.101 196.793H408.271V243.745H356.101V196.793ZM354.101 243.745V196.793H301.858V243.745H354.101ZM354.101 194.793V146.319H301.858V194.793H354.101ZM354.101 144.319L354.101 97.3676H301.858L301.858 144.319H354.101ZM354.101 95.3676V48.162H301.858V95.3676H354.101ZM246.6 48.162H299.858V95.3676H246.6V48.162ZM246.6 97.3676H299.858L299.858 144.319H246.6L246.6 97.3676ZM246.6 146.319H299.858V194.793H246.6V146.319ZM246.6 196.793H299.858V243.745H246.6V196.793ZM192.105 243.745H244.6V196.793H192.105V243.745ZM190.105 196.793V243.745H136.848L136.848 196.793H190.105ZM192.105 194.793H244.6V146.319H192.105V194.793ZM190.105 146.319V194.793H136.848V146.319H190.105ZM192.105 144.319H244.6L244.6 97.3676H192.105L192.105 144.319ZM190.105 97.3676L190.105 144.319H136.848V97.3676H190.105ZM192.105 95.3676H244.6V48.162H192.105V95.3676ZM190.105 48.162V95.3676H136.848V48.162H190.105ZM82.6046 243.745H134.848L134.848 196.793H82.6046L82.6046 243.745ZM134.848 146.319V194.793H82.6046V146.319H134.848ZM82.6046 97.3676V144.319H134.848V97.3676H82.6046ZM134.848 95.3676H82.6046V48.162H134.848V95.3676Z" fill="#1B1E2D" fill-opacity="0.5"/>
<path fill-rule="evenodd" clip-rule="evenodd" d="M519.605 46.162V0H521.605V46.162H573.848V0H575.848V46.162H629.105V0H631.105V46.162H683.6V0H685.6V46.162H738.858V0H740.858V46.162H793.101V0H795.101V46.162H847.271V0H849.271V46.162H877V48.162H849.271V95.3676H877V97.3676H849.271L849.271 144.319H877V146.319H849.271V194.793H877V196.793H849.271V243.745H877V245.745H849.271V279H847.271V245.745H795.101V279H793.101V245.745H740.858V279H738.858V245.745H685.6V279H683.6V245.745H631.105V279H629.105V245.745H575.848V279H573.848V245.745H521.605V279H519.605V245.745H467.317L467.317 279H465.317L465.317 245.745H439V243.745H465.317L465.317 196.793H439V194.793H465.317L465.317 146.319H439V144.319H465.317L465.317 97.3676H439V95.3676H465.317L465.317 48.162H439V46.162H465.317L465.317 0H467.317L467.317 46.162H519.605ZM467.317 48.162L467.317 95.3676H519.605V48.162H467.317ZM467.317 97.3676L467.317 144.319H519.605V97.3676H467.317ZM467.317 146.319L467.317 194.793H519.605V146.319H467.317ZM467.317 196.793L467.317 243.745H519.605L519.605 196.793H467.317ZM795.101 48.162H847.271V95.3676H795.101V48.162ZM795.101 97.3676H847.271L847.271 144.319H795.101L795.101 97.3676ZM795.101 146.319H847.271V194.793H795.101V146.319ZM795.101 196.793H847.271V243.745H795.101V196.793ZM793.101 243.745V196.793H740.858V243.745H793.101ZM793.101 194.793V146.319H740.858V194.793H793.101ZM793.101 144.319L793.101 97.3676H740.858L740.858 144.319H793.101ZM793.101 95.3676V48.162H740.858V95.3676H793.101ZM685.6 48.162H738.858V95.3676H685.6V48.162ZM685.6 97.3676H738.858L738.858 144.319H685.6L685.6 97.3676ZM685.6 146.319H738.858V194.793H685.6V146.319ZM685.6 196.793H738.858V243.745H685.6V196.793ZM631.105 243.745H683.6V196.793H631.105V243.745ZM629.105 196.793V243.745H575.848L575.848 196.793H629.105ZM631.105 194.793H683.6V146.319H631.105V194.793ZM629.105 146.319V194.793H575.848V146.319H629.105ZM631.105 144.319H683.6L683.6 97.3676H631.105L631.105 144.319ZM629.105 97.3676L629.105 144.319H575.848V97.3676H629.105ZM631.105 95.3676H683.6V48.162H631.105V95.3676ZM629.105 48.162V95.3676H575.848V48.162H629.105ZM521.605 243.745H573.848L573.848 196.793H521.605L521.605 243.745ZM573.848 146.319V194.793H521.605V146.319H573.848ZM521.605 97.3676V144.319H573.848V97.3676H521.605ZM573.848 95.3676H521.605V48.162H573.848V95.3676Z" fill="#1B1E2D" fill-opacity="0.5"/>
<path fill-rule="evenodd" clip-rule="evenodd" d="M957.859 46.1787V0H959.283V46.1787H1012.16V0H1013.58V46.1787H1067.47V0H1068.89V46.1787H1122.02V0H1123.44V46.1787H1177.33V0H1178.76V46.1787H1231.63V0H1233.06V46.1787H1315.62V47.6027H1233.06V95.4021H1315.62V96.8261H1233.06V144.371H1315.62V145.795H1233.06V194.863H1315.62V196.287H1233.06V243.833H1315.62V245.257H1233.06V279.101H1231.63V245.257H1178.76V279.101H1177.33V245.257H1123.44V279.101H1122.02V245.257H1068.89V279.101H1067.47V245.257H1013.58V279.101H1012.16V245.257H959.283V279.101H957.859V245.257H877.174V243.833H957.859L957.859 196.287H877.174V194.863H957.859V145.795H877.174V144.371H957.859V96.8261H877.174V95.4021H957.859V47.6027H877.174V46.1787H957.859ZM1231.63 243.833V196.287H1178.76V243.833H1231.63ZM1231.63 194.863V145.795H1178.76V194.863H1231.63ZM1231.63 144.371V96.8261H1178.76V144.371H1231.63ZM1231.63 95.4021V47.6027H1178.76V95.4021H1231.63ZM1123.44 47.6027H1177.33V95.4021H1123.44V47.6027ZM1123.44 96.8261H1177.33V144.371H1123.44L1123.44 96.8261ZM1123.44 145.795H1177.33V194.863H1123.44V145.795ZM1123.44 196.287H1177.33V243.833H1123.44V196.287ZM1068.89 243.833H1122.02V196.287H1068.89V243.833ZM1067.47 196.287V243.833H1013.58L1013.58 196.287H1067.47ZM1068.89 194.863H1122.02V145.795H1068.89V194.863ZM1067.47 145.795V194.863H1013.58V145.795H1067.47ZM1068.89 144.371H1122.02L1122.02 96.8261H1068.89L1068.89 144.371ZM1067.47 96.8261L1067.47 144.371H1013.58V96.8261H1067.47ZM1068.89 95.4021H1122.02V47.6027H1068.89V95.4021ZM1067.47 47.6027V95.4021H1013.58V47.6027H1067.47ZM959.283 243.833H1012.16L1012.16 196.287H959.283L959.283 243.833ZM1012.16 145.795V194.863H959.283V145.795H1012.16ZM959.283 96.8261V144.371H1012.16V96.8261H959.283ZM1012.16 95.4021H959.283V47.6027H1012.16V95.4021Z" fill="#1B1E2D" fill-opacity="0.5"/>
<path fill-rule="evenodd" clip-rule="evenodd" d="M957.605 46.162V0H959.605V46.162H1011.85V0H1013.85V46.162H1067.1V0H1069.1V46.162H1121.6V0H1123.6V46.162H1176.86V0H1178.86V46.162H1231.1V0H1233.1V46.162H1285.27V0H1287.27V46.162H1315V48.162H1287.27V95.3676H1315V97.3676H1287.27L1287.27 144.319H1315V146.319H1287.27V194.793H1315V196.793H1287.27V243.745H1315V245.745H1287.27V279H1285.27V245.745H1233.1V279H1231.1V245.745H1178.86V279H1176.86V245.745H1123.6V279H1121.6V245.745H1069.1V279H1067.1V245.745H1013.85V279H1011.85V245.745H959.605V279H957.605V245.745H905.317L905.317 279H903.317L903.317 245.745H877V243.745H903.317L903.317 196.793H877V194.793H903.317L903.317 146.319H877V144.319H903.317L903.317 97.3676H877V95.3676H903.317L903.317 48.162H877V46.162H903.317L903.317 0H905.317L905.317 46.162H957.605ZM905.317 48.162L905.317 95.3676H957.605V48.162H905.317ZM905.317 97.3676L905.317 144.319H957.605V97.3676H905.317ZM905.317 146.319L905.317 194.793H957.605V146.319H905.317ZM905.317 196.793L905.317 243.745H957.605L957.605 196.793H905.317ZM1233.1 48.162H1285.27V95.3676H1233.1V48.162ZM1233.1 97.3676H1285.27L1285.27 144.319H1233.1L1233.1 97.3676ZM1233.1 146.319H1285.27V194.793H1233.1V146.319ZM1233.1 196.793H1285.27V243.745H1233.1V196.793ZM1231.1 243.745V196.793H1178.86V243.745H1231.1ZM1231.1 194.793V146.319H1178.86V194.793H1231.1ZM1231.1 144.319L1231.1 97.3676H1178.86L1178.86 144.319H1231.1ZM1231.1 95.3676V48.162H1178.86V95.3676H1231.1ZM1123.6 48.162H1176.86V95.3676H1123.6V48.162ZM1123.6 97.3676H1176.86L1176.86 144.319H1123.6L1123.6 97.3676ZM1123.6 146.319H1176.86V194.793H1123.6V146.319ZM1123.6 196.793H1176.86V243.745H1123.6V196.793ZM1069.1 243.745H1121.6V196.793H1069.1V243.745ZM1067.1 196.793V243.745H1013.85L1013.85 196.793H1067.1ZM1069.1 194.793H1121.6V146.319H1069.1V194.793ZM1067.1 146.319V194.793H1013.85V146.319H1067.1ZM1069.1 144.319H1121.6L1121.6 97.3676H1069.1L1069.1 144.319ZM1067.1 97.3676L1067.1 144.319H1013.85V97.3676H1067.1ZM1069.1 95.3676H1121.6V48.162H1069.1V95.3676ZM1067.1 48.162V95.3676H1013.85V48.162H1067.1ZM959.605 243.745H1011.85L1011.85 196.793H959.605L959.605 243.745ZM1011.85 146.319V194.793H959.605V146.319H1011.85ZM959.605 97.3676V144.319H1011.85V97.3676H959.605ZM1011.85 95.3676H959.605V48.162H1011.85V95.3676Z" fill="#1B1E2D" fill-opacity="0.5"/>
<path fill-rule="evenodd" clip-rule="evenodd" d="M1396.6 46.162V0H1398.6V46.162H1450.85V0H1452.85V46.162H1506.1V0H1508.1V46.162H1560.6V0H1562.6V46.162H1615.86V0H1617.86V46.162H1670.1V0H1672.1V46.162H1724.27V0H1726.27V46.162H1754V48.162H1726.27V95.3676H1754V97.3676H1726.27L1726.27 144.319H1754V146.319H1726.27V194.793H1754V196.793H1726.27V243.745H1754V245.745H1726.27V279H1724.27V245.745H1672.1V279H1670.1V245.745H1617.86V279H1615.86V245.745H1562.6V279H1560.6V245.745H1508.1V279H1506.1V245.745H1452.85V279H1450.85V245.745H1398.6V279H1396.6V245.745H1344.32L1344.32 279H1342.32L1342.32 245.745H1316V243.745H1342.32L1342.32 196.793H1316V194.793H1342.32L1342.32 146.319H1316V144.319H1342.32L1342.32 97.3676H1316V95.3676H1342.32L1342.32 48.162H1316V46.162H1342.32L1342.32 0H1344.32L1344.32 46.162H1396.6ZM1344.32 48.162L1344.32 95.3676H1396.6V48.162H1344.32ZM1344.32 97.3676L1344.32 144.319H1396.6V97.3676H1344.32ZM1344.32 146.319L1344.32 194.793H1396.6V146.319H1344.32ZM1344.32 196.793L1344.32 243.745H1396.6L1396.6 196.793H1344.32ZM1672.1 48.162H1724.27V95.3676H1672.1V48.162ZM1672.1 97.3676H1724.27L1724.27 144.319H1672.1L1672.1 97.3676ZM1672.1 146.319H1724.27V194.793H1672.1V146.319ZM1672.1 196.793H1724.27V243.745H1672.1V196.793ZM1670.1 243.745V196.793H1617.86V243.745H1670.1ZM1670.1 194.793V146.319H1617.86V194.793H1670.1ZM1670.1 144.319L1670.1 97.3676H1617.86L1617.86 144.319H1670.1ZM1670.1 95.3676V48.162H1617.86V95.3676H1670.1ZM1562.6 48.162H1615.86V95.3676H1562.6V48.162ZM1562.6 97.3676H1615.86L1615.86 144.319H1562.6L1562.6 97.3676ZM1562.6 146.319H1615.86V194.793H1562.6V146.319ZM1562.6 196.793H1615.86V243.745H1562.6V196.793ZM1508.1 243.745H1560.6V196.793H1508.1V243.745ZM1506.1 196.793V243.745H1452.85L1452.85 196.793H1506.1ZM1508.1 194.793H1560.6V146.319H1508.1V194.793ZM1506.1 146.319V194.793H1452.85V146.319H1506.1ZM1508.1 144.319H1560.6L1560.6 97.3676H1508.1L1508.1 144.319ZM1506.1 97.3676L1506.1 144.319H1452.85V97.3676H1506.1ZM1508.1 95.3676H1560.6V48.162H1508.1V95.3676ZM1506.1 48.162V95.3676H1452.85V48.162H1506.1ZM1398.6 243.745H1450.85L1450.85 196.793H1398.6L1398.6 243.745ZM1450.85 146.319V194.793H1398.6V146.319H1450.85ZM1398.6 97.3676V144.319H1450.85V97.3676H1398.6ZM1450.85 95.3676H1398.6V48.162H1450.85V95.3676Z" fill="#1B1E2D" fill-opacity="0.5"/>
<path fill-rule="evenodd" clip-rule="evenodd" d="M80.6046 325.162V279H82.6046V325.162H134.848V279H136.848V325.162H190.105V279H192.105V325.162H244.6V279H246.6V325.162H299.858V279H301.858V325.162H354.101V279H356.101V325.162H408.271V279H410.271V325.162H438V327.162H410.271V374.368H438V376.368H410.271L410.271 423.319H438V425.319H410.271V473.793H438V475.793H410.271V522.745H438V524.745H410.271V558H408.271V524.745H356.101V558H354.101V524.745H301.858V558H299.858V524.745H246.6V558H244.6V524.745H192.105V558H190.105V524.745H136.848V558H134.848V524.745H82.6046V558H80.6046V524.745H28.3171L28.3171 558H26.3171L26.3171 524.745H0.000335693V522.745H26.3171L26.3171 475.793H0.000335693V473.793H26.3171L26.3171 425.319H0.000335693V423.319H26.3171L26.3171 376.368H0.000335693V374.368H26.3171L26.3171 327.162H0.000335693V325.162H26.3171L26.3171 279H28.3171L28.3171 325.162H80.6046ZM28.3171 327.162L28.3171 374.368H80.6046V327.162H28.3171ZM28.3171 376.368L28.3171 423.319H80.6046V376.368H28.3171ZM28.3171 425.319L28.3171 473.793H80.6046V425.319H28.3171ZM28.3171 475.793L28.3171 522.745H80.6046L80.6046 475.793H28.3171ZM356.101 327.162H408.271V374.368H356.101V327.162ZM356.101 376.368H408.271L408.271 423.319H356.101L356.101 376.368ZM356.101 425.319H408.271V473.793H356.101V425.319ZM356.101 475.793H408.271V522.745H356.101V475.793ZM354.101 522.745V475.793H301.858V522.745H354.101ZM354.101 473.793V425.319H301.858V473.793H354.101ZM354.101 423.319L354.101 376.368H301.858L301.858 423.319H354.101ZM354.101 374.368V327.162H301.858V374.368H354.101ZM246.6 327.162H299.858V374.368H246.6V327.162ZM246.6 376.368H299.858L299.858 423.319H246.6L246.6 376.368ZM246.6 425.319H299.858V473.793H246.6V425.319ZM246.6 475.793H299.858V522.745H246.6V475.793ZM192.105 522.745H244.6V475.793H192.105V522.745ZM190.105 475.793V522.745H136.848L136.848 475.793H190.105ZM192.105 473.793H244.6V425.319H192.105V473.793ZM190.105 425.319V473.793H136.848V425.319H190.105ZM192.105 423.319H244.6L244.6 376.368H192.105L192.105 423.319ZM190.105 376.368L190.105 423.319H136.848V376.368H190.105ZM192.105 374.368H244.6V327.162H192.105V374.368ZM190.105 327.162V374.368H136.848V327.162H190.105ZM82.6046 522.745H134.848L134.848 475.793H82.6046L82.6046 522.745ZM134.848 425.319V473.793H82.6046V425.319H134.848ZM82.6046 376.368V423.319H134.848V376.368H82.6046ZM134.848 374.368H82.6046V327.162H134.848V374.368Z" fill="#1B1E2D" fill-opacity="0.5"/>
<path fill-rule="evenodd" clip-rule="evenodd" d="M80.6046 325.162V279H82.6046V325.162H134.848V279H136.848V325.162H190.105V279H192.105V325.162H244.6V279H246.6V325.162H299.858V279H301.858V325.162H354.101V279H356.101V325.162H408.271V279H410.271V325.162H438V327.162H410.271V374.368H438V376.368H410.271L410.271 423.319H438V425.319H410.271V473.793H438V475.793H410.271V522.745H438V524.745H410.271V558H408.271V524.745H356.101V558H354.101V524.745H301.858V558H299.858V524.745H246.6V558H244.6V524.745H192.105V558H190.105V524.745H136.848V558H134.848V524.745H82.6046V558H80.6046V524.745H28.3171L28.3171 558H26.3171L26.3171 524.745H0.000335693V522.745H26.3171L26.3171 475.793H0.000335693V473.793H26.3171L26.3171 425.319H0.000335693V423.319H26.3171L26.3171 376.368H0.000335693V374.368H26.3171L26.3171 327.162H0.000335693V325.162H26.3171L26.3171 279H28.3171L28.3171 325.162H80.6046ZM28.3171 327.162L28.3171 374.368H80.6046V327.162H28.3171ZM28.3171 376.368L28.3171 423.319H80.6046V376.368H28.3171ZM28.3171 425.319L28.3171 473.793H80.6046V425.319H28.3171ZM28.3171 475.793L28.3171 522.745H80.6046L80.6046 475.793H28.3171ZM356.101 327.162H408.271V374.368H356.101V327.162ZM356.101 376.368H408.271L408.271 423.319H356.101L356.101 376.368ZM356.101 425.319H408.271V473.793H356.101V425.319ZM356.101 475.793H408.271V522.745H356.101V475.793ZM354.101 522.745V475.793H301.858V522.745H354.101ZM354.101 473.793V425.319H301.858V473.793H354.101ZM354.101 423.319L354.101 376.368H301.858L301.858 423.319H354.101ZM354.101 374.368V327.162H301.858V374.368H354.101ZM246.6 327.162H299.858V374.368H246.6V327.162ZM246.6 376.368H299.858L299.858 423.319H246.6L246.6 376.368ZM246.6 425.319H299.858V473.793H246.6V425.319ZM246.6 475.793H299.858V522.745H246.6V475.793ZM192.105 522.745H244.6V475.793H192.105V522.745ZM190.105 475.793V522.745H136.848L136.848 475.793H190.105ZM192.105 473.793H244.6V425.319H192.105V473.793ZM190.105 425.319V473.793H136.848V425.319H190.105ZM192.105 423.319H244.6L244.6 376.368H192.105L192.105 423.319ZM190.105 376.368L190.105 423.319H136.848V376.368H190.105ZM192.105 374.368H244.6V327.162H192.105V374.368ZM190.105 327.162V374.368H136.848V327.162H190.105ZM82.6046 522.745H134.848L134.848 475.793H82.6046L82.6046 522.745ZM134.848 425.319V473.793H82.6046V425.319H134.848ZM82.6046 376.368V423.319H134.848V376.368H82.6046ZM134.848 374.368H82.6046V327.162H134.848V374.368Z" fill="#1B1E2D" fill-opacity="0.5"/>
<path fill-rule="evenodd" clip-rule="evenodd" d="M519.605 325.162V279H521.605V325.162H573.848V279H575.848V325.162H629.105V279H631.105V325.162H683.6V279H685.6V325.162H738.858V279H740.858V325.162H793.101V279H795.101V325.162H847.271V279H849.271V325.162H877V327.162H849.271V374.368H877V376.368H849.271L849.271 423.319H877V425.319H849.271V473.793H877V475.793H849.271V522.745H877V524.745H849.271V558H847.271V524.745H795.101V558H793.101V524.745H740.858V558H738.858V524.745H685.6V558H683.6V524.745H631.105V558H629.105V524.745H575.848V558H573.848V524.745H521.605V558H519.605V524.745H467.317L467.317 558H465.317L465.317 524.745H439V522.745H465.317L465.317 475.793H439V473.793H465.317L465.317 425.319H439V423.319H465.317L465.317 376.368H439V374.368H465.317L465.317 327.162H439V325.162H465.317L465.317 279H467.317L467.317 325.162H519.605ZM467.317 327.162L467.317 374.368H519.605V327.162H467.317ZM467.317 376.368L467.317 423.319H519.605V376.368H467.317ZM467.317 425.319L467.317 473.793H519.605V425.319H467.317ZM467.317 475.793L467.317 522.745H519.605L519.605 475.793H467.317ZM795.101 327.162H847.271V374.368H795.101V327.162ZM795.101 376.368H847.271L847.271 423.319H795.101L795.101 376.368ZM795.101 425.319H847.271V473.793H795.101V425.319ZM795.101 475.793H847.271V522.745H795.101V475.793ZM793.101 522.745V475.793H740.858V522.745H793.101ZM793.101 473.793V425.319H740.858V473.793H793.101ZM793.101 423.319L793.101 376.368H740.858L740.858 423.319H793.101ZM793.101 374.368V327.162H740.858V374.368H793.101ZM685.6 327.162H738.858V374.368H685.6V327.162ZM685.6 376.368H738.858L738.858 423.319H685.6L685.6 376.368ZM685.6 425.319H738.858V473.793H685.6V425.319ZM685.6 475.793H738.858V522.745H685.6V475.793ZM631.105 522.745H683.6V475.793H631.105V522.745ZM629.105 475.793V522.745H575.848L575.848 475.793H629.105ZM631.105 473.793H683.6V425.319H631.105V473.793ZM629.105 425.319V473.793H575.848V425.319H629.105ZM631.105 423.319H683.6L683.6 376.368H631.105L631.105 423.319ZM629.105 376.368L629.105 423.319H575.848V376.368H629.105ZM631.105 374.368H683.6V327.162H631.105V374.368ZM629.105 327.162V374.368H575.848V327.162H629.105ZM521.605 522.745H573.848L573.848 475.793H521.605L521.605 522.745ZM573.848 425.319V473.793H521.605V425.319H573.848ZM521.605 376.368V423.319H573.848V376.368H521.605ZM573.848 374.368H521.605V327.162H573.848V374.368Z" fill="#1B1E2D" fill-opacity="0.5"/>
<path fill-rule="evenodd" clip-rule="evenodd" d="M957.605 325.162V279H959.605V325.162H1011.85V279H1013.85V325.162H1067.1V279H1069.1V325.162H1121.6V279H1123.6V325.162H1176.86V279H1178.86V325.162H1231.1V279H1233.1V325.162H1285.27V279H1287.27V325.162H1315V327.162H1287.27V374.368H1315V376.368H1287.27L1287.27 423.319H1315V425.319H1287.27V473.793H1315V475.793H1287.27V522.745H1315V524.745H1287.27V558H1285.27V524.745H1233.1V558H1231.1V524.745H1178.86V558H1176.86V524.745H1123.6V558H1121.6V524.745H1069.1V558H1067.1V524.745H1013.85V558H1011.85V524.745H959.605V558H957.605V524.745H905.317L905.317 558H903.317L903.317 524.745H877V522.745H903.317L903.317 475.793H877V473.793H903.317L903.317 425.319H877V423.319H903.317L903.317 376.368H877V374.368H903.317L903.317 327.162H877V325.162H903.317L903.317 279H905.317L905.317 325.162H957.605ZM905.317 327.162L905.317 374.368H957.605V327.162H905.317ZM905.317 376.368L905.317 423.319H957.605V376.368H905.317ZM905.317 425.319L905.317 473.793H957.605V425.319H905.317ZM905.317 475.793L905.317 522.745H957.605L957.605 475.793H905.317ZM1233.1 327.162H1285.27V374.368H1233.1V327.162ZM1233.1 376.368H1285.27L1285.27 423.319H1233.1L1233.1 376.368ZM1233.1 425.319H1285.27V473.793H1233.1V425.319ZM1233.1 475.793H1285.27V522.745H1233.1V475.793ZM1231.1 522.745V475.793H1178.86V522.745H1231.1ZM1231.1 473.793V425.319H1178.86V473.793H1231.1ZM1231.1 423.319L1231.1 376.368H1178.86L1178.86 423.319H1231.1ZM1231.1 374.368V327.162H1178.86V374.368H1231.1ZM1123.6 327.162H1176.86V374.368H1123.6V327.162ZM1123.6 376.368H1176.86L1176.86 423.319H1123.6L1123.6 376.368ZM1123.6 425.319H1176.86V473.793H1123.6V425.319ZM1123.6 475.793H1176.86V522.745H1123.6V475.793ZM1069.1 522.745H1121.6V475.793H1069.1V522.745ZM1067.1 475.793V522.745H1013.85L1013.85 475.793H1067.1ZM1069.1 473.793H1121.6V425.319H1069.1V473.793ZM1067.1 425.319V473.793H1013.85V425.319H1067.1ZM1069.1 423.319H1121.6L1121.6 376.368H1069.1L1069.1 423.319ZM1067.1 376.368L1067.1 423.319H1013.85V376.368H1067.1ZM1069.1 374.368H1121.6V327.162H1069.1V374.368ZM1067.1 327.162V374.368H1013.85V327.162H1067.1ZM959.605 522.745H1011.85L1011.85 475.793H959.605L959.605 522.745ZM1011.85 425.319V473.793H959.605V425.319H1011.85ZM959.605 376.368V423.319H1011.85V376.368H959.605ZM1011.85 374.368H959.605V327.162H1011.85V374.368Z" fill="#1B1E2D" fill-opacity="0.5"/>
<path fill-rule="evenodd" clip-rule="evenodd" d="M957.86 325.28V279.101H959.284V325.28H1012.16V279.101H1013.58V325.28H1067.47V279.101H1068.89V325.28H1122.02V279.101H1123.45V325.28H1177.33V279.101H1178.76V325.28H1231.63V279.101H1233.06V325.28H1315.62V326.704H1233.06V374.503H1315.62V375.927H1233.06V423.472H1315.62V424.896H1233.06V473.964H1315.62V475.388H1233.06V522.934H1315.62V524.358H1233.06V558.202H1231.63V524.358H1178.76V558.202H1177.33V524.358H1123.45V558.202H1122.02V524.358H1068.89V558.202H1067.47V524.358H1013.58V558.202H1012.16V524.358H959.284V558.202H957.86V524.358H877.174V522.934H957.86L957.86 475.388H877.174V473.964H957.86V424.896H877.174V423.472H957.86V375.927H877.174V374.503H957.86V326.704H877.174V325.28H957.86ZM1231.63 522.934V475.388H1178.76V522.934H1231.63ZM1231.63 473.964V424.896H1178.76V473.964H1231.63ZM1231.63 423.472V375.927H1178.76V423.472H1231.63ZM1231.63 374.503V326.704H1178.76V374.503H1231.63ZM1123.45 326.704H1177.33V374.503H1123.45V326.704ZM1123.45 375.927H1177.33V423.472H1123.45L1123.45 375.927ZM1123.45 424.896H1177.33V473.964H1123.45V424.896ZM1123.45 475.388H1177.33V522.934H1123.45V475.388ZM1068.89 522.934H1122.02V475.388H1068.89V522.934ZM1067.47 475.388V522.934H1013.58L1013.58 475.388H1067.47ZM1068.89 473.964H1122.02V424.896H1068.89V473.964ZM1067.47 424.896V473.964H1013.58V424.896H1067.47ZM1068.89 423.472H1122.02L1122.02 375.927H1068.89L1068.89 423.472ZM1067.47 375.927L1067.47 423.472H1013.58V375.927H1067.47ZM1068.89 374.503H1122.02V326.704H1068.89V374.503ZM1067.47 326.704V374.503H1013.58V326.704H1067.47ZM959.284 522.934H1012.16L1012.16 475.388H959.284L959.284 522.934ZM1012.16 424.896V473.964H959.284V424.896H1012.16ZM959.284 375.927V423.472H1012.16V375.927H959.284ZM1012.16 374.503H959.284V326.704H1012.16V374.503Z" fill="#1B1E2D" fill-opacity="0.5"/>
<path fill-rule="evenodd" clip-rule="evenodd" d="M80.6856 604.381V558.202H82.1096V604.381H134.983V558.202H136.407V604.381H190.296V558.202H191.72V604.381H244.847V558.202H246.271V604.381H300.16V558.202H301.584V604.381H354.458V558.202H355.882V604.381H438.442V605.805H355.882V653.604H438.442V655.028H355.882V702.573H438.442V703.997H355.882V753.066H438.442V754.489H355.882V802.035H438.442V803.459H355.882V837.303H354.458V803.459H301.584V837.303H300.16V803.459H246.271V837.303H244.847V803.459H191.72V837.303H190.296V803.459H136.407V837.303H134.983V803.459H82.1096V837.303H80.6856V803.459H0V802.035H80.6856L80.6856 754.489H0V753.066H80.6856V703.997H0V702.573H80.6856V655.028H0V653.604H80.6856V605.805H0V604.381H80.6856ZM354.458 802.035V754.489H301.584V802.035H354.458ZM354.458 753.066V703.997H301.584V753.066H354.458ZM354.458 702.573V655.028H301.584V702.573H354.458ZM354.458 653.604V605.805H301.584V653.604H354.458ZM246.271 605.805H300.16V653.604H246.271V605.805ZM246.271 655.028H300.16V702.573H246.271L246.271 655.028ZM246.271 703.997H300.16V753.066H246.271V703.997ZM246.271 754.489H300.16V802.035H246.271V754.489ZM191.72 802.035H244.847V754.489H191.72V802.035ZM190.296 754.489V802.035H136.407L136.407 754.489H190.296ZM191.72 753.066H244.847V703.997H191.72V753.066ZM190.296 703.997V753.066H136.407V703.997H190.296ZM191.72 702.573H244.847L244.847 655.028H191.72L191.72 702.573ZM190.296 655.028L190.296 702.573H136.407V655.028H190.296ZM191.72 653.604H244.847V605.805H191.72V653.604ZM190.296 605.805V653.604H136.407V605.805H190.296ZM82.1096 802.035H134.983L134.983 754.489H82.1096L82.1096 802.035ZM134.983 703.997V753.066H82.1096V703.997H134.983ZM82.1096 655.028V702.573H134.983V655.028H82.1096ZM134.983 653.604H82.1096V605.805H134.983V653.604Z" fill="#1B1E2D" fill-opacity="0.5"/>
<path fill-rule="evenodd" clip-rule="evenodd" d="M80.6046 604.162V558H82.6046V604.162H134.848V558H136.848V604.162H190.105V558H192.105V604.162H244.6V558H246.6V604.162H299.858V558H301.858V604.162H354.101V558H356.101V604.162H408.271V558H410.271V604.162H438V606.162H410.271V653.368H438V655.368H410.271L410.271 702.319H438V704.319H410.271V752.793H438V754.793H410.271V801.745H438V803.745H410.271V837H408.271V803.745H356.101V837H354.101V803.745H301.858V837H299.858V803.745H246.6V837H244.6V803.745H192.105V837H190.105V803.745H136.848V837H134.848V803.745H82.6046V837H80.6046V803.745H28.3171L28.3171 837H26.3171L26.3171 803.745H0.000335693V801.745H26.3171L26.3171 754.793H0.000335693V752.793H26.3171L26.3171 704.319H0.000335693V702.319H26.3171L26.3171 655.368H0.000335693V653.368H26.3171L26.3171 606.162H0.000335693V604.162H26.3171L26.3171 558H28.3171L28.3171 604.162H80.6046ZM28.3171 606.162L28.3171 653.368H80.6046V606.162H28.3171ZM28.3171 655.368L28.3171 702.319H80.6046V655.368H28.3171ZM28.3171 704.319L28.3171 752.793H80.6046V704.319H28.3171ZM28.3171 754.793L28.3171 801.745H80.6046L80.6046 754.793H28.3171ZM356.101 606.162H408.271V653.368H356.101V606.162ZM356.101 655.368H408.271L408.271 702.319H356.101L356.101 655.368ZM356.101 704.319H408.271V752.793H356.101V704.319ZM356.101 754.793H408.271V801.745H356.101V754.793ZM354.101 801.745V754.793H301.858V801.745H354.101ZM354.101 752.793V704.319H301.858V752.793H354.101ZM354.101 702.319L354.101 655.368H301.858L301.858 702.319H354.101ZM354.101 653.368V606.162H301.858V653.368H354.101ZM246.6 606.162H299.858V653.368H246.6V606.162ZM246.6 655.368H299.858L299.858 702.319H246.6L246.6 655.368ZM246.6 704.319H299.858V752.793H246.6V704.319ZM246.6 754.793H299.858V801.745H246.6V754.793ZM192.105 801.745H244.6V754.793H192.105V801.745ZM190.105 754.793V801.745H136.848L136.848 754.793H190.105ZM192.105 752.793H244.6V704.319H192.105V752.793ZM190.105 704.319V752.793H136.848V704.319H190.105ZM192.105 702.319H244.6L244.6 655.368H192.105L192.105 702.319ZM190.105 655.368L190.105 702.319H136.848V655.368H190.105ZM192.105 653.368H244.6V606.162H192.105V653.368ZM190.105 606.162V653.368H136.848V606.162H190.105ZM82.6046 801.745H134.848L134.848 754.793H82.6046L82.6046 801.745ZM134.848 704.319V752.793H82.6046V704.319H134.848ZM82.6046 655.368V702.319H134.848V655.368H82.6046ZM134.848 653.368H82.6046V606.162H134.848V653.368Z" fill="#1B1E2D" fill-opacity="0.5"/>
<path fill-rule="evenodd" clip-rule="evenodd" d="M519.605 604.162V558H521.605V604.162H573.848V558H575.848V604.162H629.105V558H631.105V604.162H683.6V558H685.6V604.162H738.858V558H740.858V604.162H793.101V558H795.101V604.162H847.271V558H849.271V604.162H877V606.162H849.271V653.368H877V655.368H849.271L849.271 702.319H877V704.319H849.271V752.793H877V754.793H849.271V801.745H877V803.745H849.271V837H847.271V803.745H795.101V837H793.101V803.745H740.858V837H738.858V803.745H685.6V837H683.6V803.745H631.105V837H629.105V803.745H575.848V837H573.848V803.745H521.605V837H519.605V803.745H467.317L467.317 837H465.317L465.317 803.745H439V801.745H465.317L465.317 754.793H439V752.793H465.317L465.317 704.319H439V702.319H465.317L465.317 655.368H439V653.368H465.317L465.317 606.162H439V604.162H465.317L465.317 558H467.317L467.317 604.162H519.605ZM467.317 606.162L467.317 653.368H519.605V606.162H467.317ZM467.317 655.368L467.317 702.319H519.605V655.368H467.317ZM467.317 704.319L467.317 752.793H519.605V704.319H467.317ZM467.317 754.793L467.317 801.745H519.605L519.605 754.793H467.317ZM795.101 606.162H847.271V653.368H795.101V606.162ZM795.101 655.368H847.271L847.271 702.319H795.101L795.101 655.368ZM795.101 704.319H847.271V752.793H795.101V704.319ZM795.101 754.793H847.271V801.745H795.101V754.793ZM793.101 801.745V754.793H740.858V801.745H793.101ZM793.101 752.793V704.319H740.858V752.793H793.101ZM793.101 702.319L793.101 655.368H740.858L740.858 702.319H793.101ZM793.101 653.368V606.162H740.858V653.368H793.101ZM685.6 606.162H738.858V653.368H685.6V606.162ZM685.6 655.368H738.858L738.858 702.319H685.6L685.6 655.368ZM685.6 704.319H738.858V752.793H685.6V704.319ZM685.6 754.793H738.858V801.745H685.6V754.793ZM631.105 801.745H683.6V754.793H631.105V801.745ZM629.105 754.793V801.745H575.848L575.848 754.793H629.105ZM631.105 752.793H683.6V704.319H631.105V752.793ZM629.105 704.319V752.793H575.848V704.319H629.105ZM631.105 702.319H683.6L683.6 655.368H631.105L631.105 702.319ZM629.105 655.368L629.105 702.319H575.848V655.368H629.105ZM631.105 653.368H683.6V606.162H631.105V653.368ZM629.105 606.162V653.368H575.848V606.162H629.105ZM521.605 801.745H573.848L573.848 754.793H521.605L521.605 801.745ZM573.848 704.319V752.793H521.605V704.319H573.848ZM521.605 655.368V702.319H573.848V655.368H521.605ZM573.848 653.368H521.605V606.162H573.848V653.368Z" fill="#1B1E2D" fill-opacity="0.5"/>
<path fill-rule="evenodd" clip-rule="evenodd" d="M957.859 604.381V558.202H959.283V604.381H1012.16V558.202H1013.58V604.381H1067.47V558.202H1068.89V604.381H1122.02V558.202H1123.44V604.381H1177.33V558.202H1178.76V604.381H1231.63V558.202H1233.06V604.381H1315.62V605.805H1233.06V653.604H1315.62V655.028H1233.06V702.573H1315.62V703.997H1233.06V753.066H1315.62V754.489H1233.06V802.035H1315.62V803.459H1233.06V837.303H1231.63V803.459H1178.76V837.303H1177.33V803.459H1123.44V837.303H1122.02V803.459H1068.89V837.303H1067.47V803.459H1013.58V837.303H1012.16V803.459H959.283V837.303H957.859V803.459H877.174V802.035H957.859L957.859 754.489H877.174V753.066H957.859V703.997H877.174V702.573H957.859V655.028H877.174V653.604H957.859V605.805H877.174V604.381H957.859ZM1231.63 802.035V754.489H1178.76V802.035H1231.63ZM1231.63 753.066V703.997H1178.76V753.066H1231.63ZM1231.63 702.573V655.028H1178.76V702.573H1231.63ZM1231.63 653.604V605.805H1178.76V653.604H1231.63ZM1123.44 605.805H1177.33V653.604H1123.44V605.805ZM1123.44 655.028H1177.33V702.573H1123.44L1123.44 655.028ZM1123.44 703.997H1177.33V753.066H1123.44V703.997ZM1123.44 754.489H1177.33V802.035H1123.44V754.489ZM1068.89 802.035H1122.02V754.489H1068.89V802.035ZM1067.47 754.489V802.035H1013.58L1013.58 754.489H1067.47ZM1068.89 753.066H1122.02V703.997H1068.89V753.066ZM1067.47 703.997V753.066H1013.58V703.997H1067.47ZM1068.89 702.573H1122.02L1122.02 655.028H1068.89L1068.89 702.573ZM1067.47 655.028L1067.47 702.573H1013.58V655.028H1067.47ZM1068.89 653.604H1122.02V605.805H1068.89V653.604ZM1067.47 605.805V653.604H1013.58V605.805H1067.47ZM959.283 802.035H1012.16L1012.16 754.489H959.283L959.283 802.035ZM1012.16 703.997V753.066H959.283V703.997H1012.16ZM959.283 655.028V702.573H1012.16V655.028H959.283ZM1012.16 653.604H959.283V605.805H1012.16V653.604Z" fill="#1B1E2D" fill-opacity="0.5"/>
<path fill-rule="evenodd" clip-rule="evenodd" d="M957.605 604.162V558H959.605V604.162H1011.85V558H1013.85V604.162H1067.1V558H1069.1V604.162H1121.6V558H1123.6V604.162H1176.86V558H1178.86V604.162H1231.1V558H1233.1V604.162H1285.27V558H1287.27V604.162H1315V606.162H1287.27V653.368H1315V655.368H1287.27L1287.27 702.319H1315V704.319H1287.27V752.793H1315V754.793H1287.27V801.745H1315V803.745H1287.27V837H1285.27V803.745H1233.1V837H1231.1V803.745H1178.86V837H1176.86V803.745H1123.6V837H1121.6V803.745H1069.1V837H1067.1V803.745H1013.85V837H1011.85V803.745H959.605V837H957.605V803.745H905.317L905.317 837H903.317L903.317 803.745H877V801.745H903.317L903.317 754.793H877V752.793H903.317L903.317 704.319H877V702.319H903.317L903.317 655.368H877V653.368H903.317L903.317 606.162H877V604.162H903.317L903.317 558H905.317L905.317 604.162H957.605ZM905.317 606.162L905.317 653.368H957.605V606.162H905.317ZM905.317 655.368L905.317 702.319H957.605V655.368H905.317ZM905.317 704.319L905.317 752.793H957.605V704.319H905.317ZM905.317 754.793L905.317 801.745H957.605L957.605 754.793H905.317ZM1233.1 606.162H1285.27V653.368H1233.1V606.162ZM1233.1 655.368H1285.27L1285.27 702.319H1233.1L1233.1 655.368ZM1233.1 704.319H1285.27V752.793H1233.1V704.319ZM1233.1 754.793H1285.27V801.745H1233.1V754.793ZM1231.1 801.745V754.793H1178.86V801.745H1231.1ZM1231.1 752.793V704.319H1178.86V752.793H1231.1ZM1231.1 702.319L1231.1 655.368H1178.86L1178.86 702.319H1231.1ZM1231.1 653.368V606.162H1178.86V653.368H1231.1ZM1123.6 606.162H1176.86V653.368H1123.6V606.162ZM1123.6 655.368H1176.86L1176.86 702.319H1123.6L1123.6 655.368ZM1123.6 704.319H1176.86V752.793H1123.6V704.319ZM1123.6 754.793H1176.86V801.745H1123.6V754.793ZM1069.1 801.745H1121.6V754.793H1069.1V801.745ZM1067.1 754.793V801.745H1013.85L1013.85 754.793H1067.1ZM1069.1 752.793H1121.6V704.319H1069.1V752.793ZM1067.1 704.319V752.793H1013.85V704.319H1067.1ZM1069.1 702.319H1121.6L1121.6 655.368H1069.1L1069.1 702.319ZM1067.1 655.368L1067.1 702.319H1013.85V655.368H1067.1ZM1069.1 653.368H1121.6V606.162H1069.1V653.368ZM1067.1 606.162V653.368H1013.85V606.162H1067.1ZM959.605 801.745H1011.85L1011.85 754.793H959.605L959.605 801.745ZM1011.85 704.319V752.793H959.605V704.319H1011.85ZM959.605 655.368V702.319H1011.85V655.368H959.605ZM1011.85 653.368H959.605V606.162H1011.85V653.368Z" fill="#1B1E2D" fill-opacity="0.5"/>
<path fill-rule="evenodd" clip-rule="evenodd" d="M1396.6 604.162V558H1398.6V604.162H1450.85V558H1452.85V604.162H1506.1V558H1508.1V604.162H1560.6V558H1562.6V604.162H1615.86V558H1617.86V604.162H1670.1V558H1672.1V604.162H1724.27V558H1726.27V604.162H1754V606.162H1726.27V653.368H1754V655.368H1726.27L1726.27 702.319H1754V704.319H1726.27V752.793H1754V754.793H1726.27V801.745H1754V803.745H1726.27V837H1724.27V803.745H1672.1V837H1670.1V803.745H1617.86V837H1615.86V803.745H1562.6V837H1560.6V803.745H1508.1V837H1506.1V803.745H1452.85V837H1450.85V803.745H1398.6V837H1396.6V803.745H1344.32L1344.32 837H1342.32L1342.32 803.745H1316V801.745H1342.32L1342.32 754.793H1316V752.793H1342.32L1342.32 704.319H1316V702.319H1342.32L1342.32 655.368H1316V653.368H1342.32L1342.32 606.162H1316V604.162H1342.32L1342.32 558H1344.32L1344.32 604.162H1396.6ZM1344.32 606.162L1344.32 653.368H1396.6V606.162H1344.32ZM1344.32 655.368L1344.32 702.319H1396.6V655.368H1344.32ZM1344.32 704.319L1344.32 752.793H1396.6V704.319H1344.32ZM1344.32 754.793L1344.32 801.745H1396.6L1396.6 754.793H1344.32ZM1672.1 606.162H1724.27V653.368H1672.1V606.162ZM1672.1 655.368H1724.27L1724.27 702.319H1672.1L1672.1 655.368ZM1672.1 704.319H1724.27V752.793H1672.1V704.319ZM1672.1 754.793H1724.27V801.745H1672.1V754.793ZM1670.1 801.745V754.793H1617.86V801.745H1670.1ZM1670.1 752.793V704.319H1617.86V752.793H1670.1ZM1670.1 702.319L1670.1 655.368H1617.86L1617.86 702.319H1670.1ZM1670.1 653.368V606.162H1617.86V653.368H1670.1ZM1562.6 606.162H1615.86V653.368H1562.6V606.162ZM1562.6 655.368H1615.86L1615.86 702.319H1562.6L1562.6 655.368ZM1562.6 704.319H1615.86V752.793H1562.6V704.319ZM1562.6 754.793H1615.86V801.745H1562.6V754.793ZM1508.1 801.745H1560.6V754.793H1508.1V801.745ZM1506.1 754.793V801.745H1452.85L1452.85 754.793H1506.1ZM1508.1 752.793H1560.6V704.319H1508.1V752.793ZM1506.1 704.319V752.793H1452.85V704.319H1506.1ZM1508.1 702.319H1560.6L1560.6 655.368H1508.1L1508.1 702.319ZM1506.1 655.368L1506.1 702.319H1452.85V655.368H1506.1ZM1508.1 653.368H1560.6V606.162H1508.1V653.368ZM1506.1 606.162V653.368H1452.85V606.162H1506.1ZM1398.6 801.745H1450.85L1450.85 754.793H1398.6L1398.6 801.745ZM1450.85 704.319V752.793H1398.6V704.319H1450.85ZM1398.6 655.368V702.319H1450.85V655.368H1398.6ZM1450.85 653.368H1398.6V606.162H1450.85V653.368Z" fill="#1B1E2D" fill-opacity="0.5"/>
<path fill-rule="evenodd" clip-rule="evenodd" d="M1396.6 325.162V279H1398.6V325.162H1450.85V279H1452.85V325.162H1506.1V279H1508.1V325.162H1560.6V279H1562.6V325.162H1615.86V279H1617.86V325.162H1670.1V279H1672.1V325.162H1724.27V279H1726.27V325.162H1754V327.162H1726.27V374.368H1754V376.368H1726.27L1726.27 423.319H1754V425.319H1726.27V473.793H1754V475.793H1726.27V522.745H1754V524.745H1726.27V558H1724.27V524.745H1672.1V558H1670.1V524.745H1617.86V558H1615.86V524.745H1562.6V558H1560.6V524.745H1508.1V558H1506.1V524.745H1452.85V558H1450.85V524.745H1398.6V558H1396.6V524.745H1344.32L1344.32 558H1342.32L1342.32 524.745H1316V522.745H1342.32L1342.32 475.793H1316V473.793H1342.32L1342.32 425.319H1316V423.319H1342.32L1342.32 376.368H1316V374.368H1342.32L1342.32 327.162H1316V325.162H1342.32L1342.32 279H1344.32L1344.32 325.162H1396.6ZM1344.32 327.162L1344.32 374.368H1396.6V327.162H1344.32ZM1344.32 376.368L1344.32 423.319H1396.6V376.368H1344.32ZM1344.32 425.319L1344.32 473.793H1396.6V425.319H1344.32ZM1344.32 475.793L1344.32 522.745H1396.6L1396.6 475.793H1344.32ZM1672.1 327.162H1724.27V374.368H1672.1V327.162ZM1672.1 376.368H1724.27L1724.27 423.319H1672.1L1672.1 376.368ZM1672.1 425.319H1724.27V473.793H1672.1V425.319ZM1672.1 475.793H1724.27V522.745H1672.1V475.793ZM1670.1 522.745V475.793H1617.86V522.745H1670.1ZM1670.1 473.793V425.319H1617.86V473.793H1670.1ZM1670.1 423.319L1670.1 376.368H1617.86L1617.86 423.319H1670.1ZM1670.1 374.368V327.162H1617.86V374.368H1670.1ZM1562.6 327.162H1615.86V374.368H1562.6V327.162ZM1562.6 376.368H1615.86L1615.86 423.319H1562.6L1562.6 376.368ZM1562.6 425.319H1615.86V473.793H1562.6V425.319ZM1562.6 475.793H1615.86V522.745H1562.6V475.793ZM1508.1 522.745H1560.6V475.793H1508.1V522.745ZM1506.1 475.793V522.745H1452.85L1452.85 475.793H1506.1ZM1508.1 473.793H1560.6V425.319H1508.1V473.793ZM1506.1 425.319V473.793H1452.85V425.319H1506.1ZM1508.1 423.319H1560.6L1560.6 376.368H1508.1L1508.1 423.319ZM1506.1 376.368L1506.1 423.319H1452.85V376.368H1506.1ZM1508.1 374.368H1560.6V327.162H1508.1V374.368ZM1506.1 327.162V374.368H1452.85V327.162H1506.1ZM1398.6 522.745H1450.85L1450.85 475.793H1398.6L1398.6 522.745ZM1450.85 425.319V473.793H1398.6V425.319H1450.85ZM1398.6 376.368V423.319H1450.85V376.368H1398.6ZM1450.85 374.368H1398.6V327.162H1450.85V374.368Z" fill="#1B1E2D" fill-opacity="0.5"/>
</svg>
