<svg width="109" height="110" viewBox="0 0 109 110" fill="none" xmlns="http://www.w3.org/2000/svg">
<path d="M51.0771 0.5H57.0771L55.2021 53.5H52.9521L51.0771 0.5Z" fill="#C6E74A"/>
<path d="M92.7697 16.5L96.7457 20.9935L55.8107 54.7106L54.3197 53.0255L92.7697 16.5Z" fill="#C6E74A"/>
<path d="M108.103 51.7319L108.077 57.7319L55.0854 55.625L55.0952 53.3751L108.103 51.7319Z" fill="#C6E74A"/>
<path d="M93.5179 91.2878L89.2401 95.495L53.414 56.3925L55.0182 54.8148L93.5179 91.2878Z" fill="#C6E74A"/>
<path d="M57.0771 109.5H51.0771L52.9521 56.5H55.2021L57.0771 109.5Z" fill="#C6E74A"/>
<path d="M19.4564 97.2849L15.0772 93.1834L52.6754 55.7817L54.3176 57.3198L19.4564 97.2849Z" fill="#C6E74A"/>
<path d="M0.0771484 58.5L0.0846725 52.5L53.0823 54.4415L53.0795 56.6915L0.0771484 58.5Z" fill="#C6E74A"/>
<path d="M14.0771 18.7075L18.3546 14.5L54.1847 53.5988L52.5807 55.1766L14.0771 18.7075Z" fill="#C6E74A"/>
<circle cx="53.5771" cy="55" r="4.5" fill="#C6E74A"/>
</svg>
