<svg width="109" height="110" viewBox="0 0 109 110" fill="none" xmlns="http://www.w3.org/2000/svg">
<path d="M51.1541 0.5H57.1541L55.2791 53.5H53.0291L51.1541 0.5Z" fill="#C6E74A"/>
<path d="M92.8464 16.5L96.8224 20.9935L55.8875 54.7106L54.3965 53.0255L92.8464 16.5Z" fill="#C6E74A"/>
<path d="M108.18 51.7319L108.153 57.7319L55.1622 55.625L55.172 53.3751L108.18 51.7319Z" fill="#C6E74A"/>
<path d="M93.595 91.2878L89.3171 95.495L53.491 56.3925L55.0952 54.8148L93.595 91.2878Z" fill="#C6E74A"/>
<path d="M57.1541 109.5H51.1541L53.0291 56.5H55.2791L57.1541 109.5Z" fill="#C6E74A"/>
<path d="M19.5332 97.2849L15.154 93.1834L52.7522 55.7817L54.3944 57.3198L19.5332 97.2849Z" fill="#C6E74A"/>
<path d="M0.154053 58.5L0.161577 52.5L53.1592 54.4415L53.1564 56.6915L0.154053 58.5Z" fill="#C6E74A"/>
<path d="M14.1541 18.7075L18.4315 14.5L54.2616 53.5988L52.6576 55.1766L14.1541 18.7075Z" fill="#C6E74A"/>
<circle cx="53.6541" cy="55" r="4.5" fill="#C6E74A"/>
</svg>
