<svg width="110" height="110" viewBox="0 0 110 110" fill="none" xmlns="http://www.w3.org/2000/svg">
<path d="M0.0257568 58.0129L0.0257568 52.0129L53.0258 53.8879V56.1379L0.0257568 58.0129Z" fill="#C6E74A"/>
<path d="M16.0258 16.3206L20.5192 12.3446L54.2363 53.2795L52.5513 54.7705L16.0258 16.3206Z" fill="#C6E74A"/>
<path d="M51.2576 0.987305L57.2576 1.01355L55.1507 54.0048L52.9008 53.995L51.2576 0.987305Z" fill="#C6E74A"/>
<path d="M90.8136 15.572L95.0207 19.8499L55.9182 55.676L54.3406 54.0718L90.8136 15.572Z" fill="#C6E74A"/>
<path d="M109.026 52.0129V58.0129L56.0258 56.1379V53.8879L109.026 52.0129Z" fill="#C6E74A"/>
<path d="M96.8107 89.6338L92.7092 94.013L55.3075 56.4148L56.8456 54.7726L96.8107 89.6338Z" fill="#C6E74A"/>
<path d="M58.0258 109.013L52.0258 109.005L53.9672 56.0078L56.2172 56.0106L58.0258 109.013Z" fill="#C6E74A"/>
<path d="M18.2333 95.0129L14.0258 90.7355L53.1246 54.9054L54.7024 56.5094L18.2333 95.0129Z" fill="#C6E74A"/>
<circle cx="54.5258" cy="55.5129" r="4.5" transform="rotate(-90 54.5258 55.5129)" fill="#C6E74A"/>
</svg>
