<svg width="109" height="110" viewBox="0 0 109 110" fill="none" xmlns="http://www.w3.org/2000/svg">
<path d="M51.1028 0.5H57.1028L55.2278 53.5H52.9778L51.1028 0.5Z" fill="#C6E74A"/>
<path d="M92.7952 16.5L96.7712 20.9935L55.8362 54.7106L54.3452 53.0255L92.7952 16.5Z" fill="#C6E74A"/>
<path d="M108.128 51.7319L108.102 57.7319L55.1109 55.625L55.1207 53.3751L108.128 51.7319Z" fill="#C6E74A"/>
<path d="M93.5437 91.2878L89.2658 95.495L53.4397 56.3925L55.0439 54.8148L93.5437 91.2878Z" fill="#C6E74A"/>
<path d="M57.1028 109.5H51.1028L52.9778 56.5H55.2278L57.1028 109.5Z" fill="#C6E74A"/>
<path d="M19.4819 97.2849L15.1027 93.1834L52.7009 55.7817L54.3432 57.3198L19.4819 97.2849Z" fill="#C6E74A"/>
<path d="M0.102783 58.5L0.110307 52.5L53.1079 54.4415L53.1051 56.6915L0.102783 58.5Z" fill="#C6E74A"/>
<path d="M14.1028 18.7075L18.3802 14.5L54.2103 53.5988L52.6063 55.1766L14.1028 18.7075Z" fill="#C6E74A"/>
<circle cx="53.6028" cy="55" r="4.5" fill="#C6E74A"/>
</svg>
