<svg width="59" height="35" viewBox="0 0 59 35" fill="none" xmlns="http://www.w3.org/2000/svg">
<path fill-rule="evenodd" clip-rule="evenodd" d="M42.0309 33.08C47.2355 33.2059 52.5543 32.9542 57.5308 34.7388C57.8274 34.844 58.1537 34.6907 58.2609 34.3933C58.3659 34.0959 58.213 33.7687 57.9164 33.6612C52.8235 31.8354 47.3839 32.0642 42.0583 31.936C41.7434 31.9269 41.481 32.1786 41.4741 32.4943C41.465 32.81 41.716 33.0709 42.0309 33.08Z" fill="#1A1A1A"/>
<path fill-rule="evenodd" clip-rule="evenodd" d="M41.5631 25.5027C43.1854 24.006 44.9561 22.8846 47.0964 22.3289C47.4021 22.2497 47.5846 21.9374 47.5071 21.6317C47.4272 21.3261 47.1146 21.1424 46.8111 21.2215C44.4838 21.8255 42.5557 23.034 40.7919 24.6606C40.5592 24.8743 40.5432 25.2364 40.7577 25.4689C40.9699 25.7011 41.3327 25.7164 41.5631 25.5027Z" fill="#1A1A1A"/>
<path fill-rule="evenodd" clip-rule="evenodd" d="M37.0499 9.16155C37.7938 6.60475 39.2586 4.60462 41.5039 3.16023C41.7686 2.98978 41.8462 2.63561 41.675 2.36998C41.5062 2.10434 41.1525 2.027 40.8878 2.19746C38.403 3.79674 36.7784 6.01011 35.9547 8.84101C35.8657 9.14393 36.0414 9.46197 36.3426 9.55028C36.6461 9.63883 36.9632 9.46448 37.0499 9.16155Z" fill="#1A1A1A"/>
<path fill-rule="evenodd" clip-rule="evenodd" d="M11.4144 5.69166C10.9718 6.214 10.5747 6.77684 10.237 7.37606C10.0864 7.64284 9.82175 8.20979 9.78068 8.69598C9.73504 9.21397 9.91072 9.65099 10.3625 9.88116C10.9626 10.1864 11.4418 10.1546 11.8114 9.96993C12.1674 9.79261 12.4457 9.44415 12.6214 8.97695C12.9569 8.08396 12.9067 6.71919 12.731 5.94037C13.2033 5.45166 13.7212 5.00848 14.2757 4.61449C18.4057 1.68018 24.4637 2.76216 29.1253 7.14955C30.7568 8.68569 31.5417 11.9117 31.9501 15.3924C32.5867 20.8119 32.2239 26.8649 32.1737 28.6383C32.1623 29.0762 32.2034 29.3361 32.2262 29.3881C32.3335 29.6434 32.5229 29.7098 32.6552 29.7349C32.8469 29.7692 32.9997 29.7326 33.1229 29.6686C33.2895 29.5807 33.4264 29.4261 33.4903 29.1874C33.5245 29.0556 33.5337 28.8721 33.5291 28.6765C33.5245 28.5408 33.4971 28.3926 33.5245 28.2953C33.7025 27.6726 33.917 27.0644 34.1269 26.4519C34.8274 24.393 35.7333 22.4636 36.7395 20.5364C39.9363 14.4129 43.028 7.94279 48.2692 3.27741C48.5042 3.06806 48.527 2.7061 48.3171 2.46999C48.1095 2.23387 47.7489 2.21236 47.5116 2.42193C42.1655 7.17952 38.9893 13.7611 35.7287 20.0058C34.873 21.6452 34.0881 23.2868 33.4355 25.0039C33.5017 21.9664 33.4766 17.7618 32.9221 14.0416C32.4293 10.733 31.4915 7.80894 29.9057 6.31559C24.7991 1.50927 18.1387 0.466648 13.6163 3.68123C13.1326 4.02534 12.6717 4.40378 12.2427 4.81424C9.87652 0.530031 4.81103 -1.18709 0.334239 0.862003C0.0467384 0.993104 -0.0787555 1.33264 0.0513041 1.61978C0.183645 1.90692 0.521332 2.03368 0.808832 1.90258C4.84296 0.0561914 9.41789 1.70397 11.4144 5.69166ZM11.7453 7.12598C11.5604 7.38772 11.3893 7.65908 11.2296 7.93959C11.1452 8.09014 10.9991 8.37956 10.9375 8.66281C10.9238 8.72917 10.9216 8.83303 10.9216 8.88108C11.079 8.95887 11.2022 8.9964 11.3026 8.94584C11.4281 8.8836 11.492 8.73717 11.5536 8.57358C11.7088 8.16312 11.7589 7.61904 11.7453 7.12598Z" fill="#1A1A1A"/>
</svg>
