<svg width="109" height="110" viewBox="0 0 109 110" fill="none" xmlns="http://www.w3.org/2000/svg">
<path d="M51.0515 0.5H57.0515L55.1765 53.5H52.9265L51.0515 0.5Z" fill="#C6E74A"/>
<path d="M92.744 16.5L96.72 20.9935L55.785 54.7106L54.294 53.0255L92.744 16.5Z" fill="#C6E74A"/>
<path d="M108.077 51.7319L108.051 57.7319L55.0597 55.625L55.0696 53.3751L108.077 51.7319Z" fill="#C6E74A"/>
<path d="M93.4923 91.2878L89.2145 95.495L53.3883 56.3925L54.9925 54.8148L93.4923 91.2878Z" fill="#C6E74A"/>
<path d="M57.0515 109.5H51.0515L52.9265 56.5H55.1765L57.0515 109.5Z" fill="#C6E74A"/>
<path d="M19.4308 97.2849L15.0515 93.1834L52.6498 55.7817L54.292 57.3198L19.4308 97.2849Z" fill="#C6E74A"/>
<path d="M0.0515137 58.5L0.0590378 52.5L53.0566 54.4415L53.0538 56.6915L0.0515137 58.5Z" fill="#C6E74A"/>
<path d="M14.0515 18.7075L18.3289 14.5L54.1591 53.5988L52.555 55.1766L14.0515 18.7075Z" fill="#C6E74A"/>
<circle cx="53.5515" cy="55" r="4.5" fill="#C6E74A"/>
</svg>
