<svg width="97" height="143" viewBox="0 0 97 143" fill="none" xmlns="http://www.w3.org/2000/svg">
<path d="M53.6206 2C73.395 2 89.4252 18.0302 89.4252 37.8047C89.4252 57.5791 73.395 73.6093 53.6206 73.6093C33.8461 73.6093 17.8159 57.5791 17.8159 37.8047C17.8159 18.0302 33.8461 2 53.6206 2Z" fill="#DDFF0D"/>
<path d="M53.6206 2C73.395 2 89.4252 18.0302 89.4252 37.8047C89.4252 57.5791 73.395 73.6093 53.6206 73.6093C33.8461 73.6093 17.8159 57.5791 17.8159 37.8047C17.8159 18.0302 33.8461 2 53.6206 2Z" stroke="#DDFF0D" stroke-width="2.05818"/>
<mask id="mask0_1_1949" style="mask-type:alpha" maskUnits="userSpaceOnUse" x="0" y="12" width="96" height="57">
<path d="M95.5432 67.3739C72.353 65.1037 61.9418 62.0668 52.7634 57.9024C44.7051 53.6552 27.8443 45.9878 1.00073 13.4463C22.4921 72.2826 53.0641 68.8172 95.5432 67.3739Z" fill="#BCA793"/>
<path d="M95.547 67.3738C72.3558 65.1035 61.9423 62.0699 52.7626 57.9005C44.7078 53.6533 27.8467 45.9895 1 13.4485C22.4922 72.2843 53.065 68.8191 95.547 67.3738Z" stroke="#1A1A1A" stroke-width="1.50342"/>
</mask>
<g mask="url(#mask0_1_1949)">
<mask id="mask1_1_1949" style="mask-type:luminance" maskUnits="userSpaceOnUse" x="-70" y="-57" width="437" height="437">
<path d="M-69.6597 -56.535H366.332V379.456H-69.6597V-56.535Z" fill="white"/>
</mask>
<g mask="url(#mask1_1_1949)">
<path d="M53.6206 1.62402C73.395 1.62402 89.4252 17.6542 89.4252 37.4287C89.4252 57.2031 73.395 73.2333 53.6206 73.2333C33.8461 73.2333 17.8159 57.2031 17.8159 37.4287C17.8159 17.6542 33.8461 1.62402 53.6206 1.62402Z" fill="#DDFF0D"/>
<path d="M53.6206 1.62402C73.395 1.62402 89.4252 17.6542 89.4252 37.4287C89.4252 57.2031 73.395 73.2333 53.6206 73.2333C33.8461 73.2333 17.8159 57.2031 17.8159 37.4287C17.8159 17.6542 33.8461 1.62402 53.6206 1.62402Z" stroke="#DDFF0D" stroke-width="2.05818"/>
<mask id="mask2_1_1949" style="mask-type:alpha" maskUnits="userSpaceOnUse" x="16" y="0" width="75" height="75">
<path d="M53.6206 1.62402C73.395 1.62402 89.4252 17.6542 89.4252 37.4287C89.4252 57.2031 73.395 73.2333 53.6206 73.2333C33.8461 73.2333 17.8159 57.2031 17.8159 37.4287C17.8159 17.6542 33.8461 1.62402 53.6206 1.62402Z" fill="#DDFF0D"/>
<path d="M53.6206 1.62402C73.395 1.62402 89.4252 17.6542 89.4252 37.4287C89.4252 57.2031 73.395 73.2333 53.6206 73.2333C33.8461 73.2333 17.8159 57.2031 17.8159 37.4287C17.8159 17.6542 33.8461 1.62402 53.6206 1.62402Z" stroke="#DDFF0D" stroke-width="2.05818"/>
</mask>
<g mask="url(#mask2_1_1949)">
<path d="M54.3723 20.8911C63.0906 20.8911 70.1582 28.2954 70.1582 37.4287C70.1582 46.562 63.0906 53.9663 54.3723 53.9663C45.654 53.9663 38.5864 46.562 38.5864 37.4287C38.5864 28.2954 45.654 20.8911 54.3723 20.8911Z" fill="black"/>
</g>
</g>
</g>
<path d="M95.547 142.668C95.547 141.008 95.9273 83.587 95.547 67.3741M95.547 67.3741C91.2578 36.3037 81.5855 17.8037 69.2578 11.3035C61.203 7.05639 35.7578 -0.696182 1 13.4487C22.4922 72.2845 53.065 68.8193 95.547 67.3741Z" stroke="black" stroke-width="1.50342"/>
<circle cx="53.8857" cy="38.4775" r="16.5" fill="black"/>
</svg>
