<svg width="109" height="110" viewBox="0 0 109 110" fill="none" xmlns="http://www.w3.org/2000/svg">
<path d="M51.0258 0.5H57.0258L55.1508 53.5H52.9008L51.0258 0.5Z" fill="#C6E74A"/>
<path d="M92.7183 16.5L96.6943 20.9935L55.7593 54.7106L54.2683 53.0255L92.7183 16.5Z" fill="#C6E74A"/>
<path d="M108.052 51.7319L108.025 57.7319L55.034 55.625L55.0438 53.3751L108.052 51.7319Z" fill="#C6E74A"/>
<path d="M93.4666 91.2878L89.1887 95.495L53.3626 56.3925L54.9668 54.8148L93.4666 91.2878Z" fill="#C6E74A"/>
<path d="M57.0258 109.5H51.0258L52.9008 56.5H55.1508L57.0258 109.5Z" fill="#C6E74A"/>
<path d="M19.405 97.2849L15.0258 93.1834L52.624 55.7817L54.2663 57.3198L19.405 97.2849Z" fill="#C6E74A"/>
<path d="M0.0257568 58.5L0.0332809 52.5L53.0309 54.4415L53.0281 56.6915L0.0257568 58.5Z" fill="#C6E74A"/>
<path d="M14.0258 18.7075L18.3032 14.5L54.1333 53.5988L52.5293 55.1766L14.0258 18.7075Z" fill="#C6E74A"/>
<circle cx="53.5258" cy="55" r="4.5" fill="#C6E74A"/>
</svg>
