<svg width="265" height="60" viewBox="0 0 265 60" fill="none" xmlns="http://www.w3.org/2000/svg">
<g clip-path="url(#clip0_1_1703)">
<path d="M23.2928 47.8372L16.5986 59.4993H29.951L23.2928 47.8372Z" fill="#39A4DD"/>
<path d="M15.5868 2.27661L8.92871 13.9206H22.281L15.5868 2.27661Z" fill="#8CC34A"/>
<path d="M7.91895 15.6995L14.6132 27.3616L21.2713 15.7176H7.91895V15.6995Z" fill="#4EB748"/>
<path d="M16.5791 0.5L23.2733 12.1622L29.9495 0.518137H16.5971L16.5791 0.5Z" fill="#CEDD38"/>
<path d="M0.25 30.8972L6.94421 42.5594L13.6023 30.9154H0.25V30.8972Z" fill="#0C98A7"/>
<path d="M14.6318 32.6394L7.97363 44.2834H21.326L14.6318 32.6394Z" fill="#0DBCD4"/>
<path d="M8.96582 46.0614L15.6239 57.7054L22.3181 46.0432H8.96582V46.0614Z" fill="#44B3E7"/>
<path d="M6.94472 17.5127L0.268555 29.1567H13.6209L6.92667 17.5127H6.94472Z" fill="#27A79A"/>
<path d="M35.1832 39.1497L31.7549 45.1168H38.6115L35.1651 39.1497H35.1832Z" fill="#39A4DD"/>
<path d="M39.1348 15.7717L35.6885 21.757H42.5451L39.1168 15.7717H39.1348Z" fill="#8CC34A"/>
<path d="M36.21 22.6817L39.6383 28.6488L43.0846 22.6636H36.228L36.21 22.6817Z" fill="#4EB748"/>
<path d="M31.7549 14.8648L35.1832 20.8319L38.6295 14.8467H31.7729L31.7549 14.8648Z" fill="#CEDD38"/>
<path d="M40.1455 30.4625L43.5738 36.4296L47.0202 30.4443H40.1636L40.1455 30.4625Z" fill="#0C98A7"/>
<path d="M39.6211 31.3511L36.1748 37.3363H43.0314L39.6031 31.3511H39.6211Z" fill="#0DBCD4"/>
<path d="M35.6689 38.2258L39.1153 44.2111L42.5436 38.244H35.687L35.6689 38.2258Z" fill="#44B3E7"/>
<path d="M43.5733 23.5884L40.127 29.5736H46.9836L43.5553 23.5884H43.5733Z" fill="#27A79A"/>
<path d="M70.3742 14.4194H64.6436V59.4739H70.3742V14.4194Z" fill="#04000E"/>
<path d="M98.4885 14.3374C92.3812 14.3374 87.108 16.5279 82.6688 20.909C78.2296 25.29 76.0234 30.5906 76.0234 36.8376C76.0234 43.0847 78.2296 48.2229 82.6688 52.6851C87.108 57.1202 92.3812 59.3649 98.4885 59.3649C104.596 59.3649 110.03 57.1473 114.416 52.6851C118.774 48.25 120.98 42.9494 120.98 36.8376C120.98 30.7258 118.801 25.263 114.416 20.909C110.057 16.5279 104.73 14.3374 98.4885 14.3374ZM110.353 48.7097C107.098 51.982 103.143 53.6046 98.4885 53.6046C93.834 53.6046 89.7984 51.982 86.5699 48.7638C83.3414 45.5456 81.7271 41.5702 81.7271 36.8376C81.7271 32.105 83.3414 28.1296 86.5699 24.9114C89.7984 21.6932 93.7533 20.0706 98.4885 20.0706C103.224 20.0706 107.098 21.6932 110.353 24.9655C113.609 28.2378 115.25 32.1861 115.25 36.8376C115.25 41.4891 113.609 45.4374 110.353 48.7097Z" fill="#04000E"/>
<path d="M147.535 20.0717C152.674 20.0717 156.925 22.0458 160.342 26.0212L164.808 22.4785C162.655 19.8283 160.127 17.827 157.221 16.4478C154.315 15.0686 151.087 14.3655 147.535 14.3655C141.428 14.3655 136.155 16.556 131.716 20.9371C127.276 25.3181 125.07 30.6186 125.07 36.8657C125.07 43.1127 127.276 48.251 131.716 52.7132C136.155 57.1483 141.428 59.3929 147.535 59.3929C150.925 59.3929 154.1 58.7168 157.006 57.3647C159.911 56.0125 162.44 54.0924 164.593 51.5774L160.019 48.0347C156.763 51.7937 152.593 53.6597 147.535 53.6597C142.827 53.6597 138.845 52.0371 135.617 48.8189C132.388 45.6007 130.774 41.6253 130.774 36.8927C130.774 32.1601 132.388 28.1847 135.617 24.9665C138.845 21.7484 142.8 20.1257 147.535 20.1257V20.0717Z" fill="#04000E"/>
<path d="M191.389 14.3374C185.282 14.3374 180.008 16.5279 175.569 20.909C171.13 25.29 168.924 30.5906 168.924 36.8376C168.924 43.0847 171.13 48.2229 175.569 52.6851C180.008 57.1202 185.282 59.3649 191.389 59.3649C197.496 59.3649 202.931 57.1473 207.316 52.6851C211.675 48.25 213.881 42.9494 213.881 36.8376C213.881 30.7258 211.702 25.263 207.316 20.909C202.958 16.5279 197.631 14.3374 191.389 14.3374ZM203.254 48.7097C199.998 51.982 196.043 53.6046 191.389 53.6046C186.734 53.6046 182.699 51.982 179.47 48.7638C176.242 45.5456 174.628 41.5702 174.628 36.8376C174.628 32.105 176.242 28.1296 179.47 24.9114C182.699 21.6932 186.654 20.0706 191.389 20.0706C196.124 20.0706 199.998 21.6932 203.254 24.9655C206.509 28.2378 208.15 32.1861 208.15 36.8376C208.15 41.4891 206.509 45.4374 203.254 48.7097Z" fill="#04000E"/>
<path d="M257.197 -7V21.8554C252.677 16.8524 247.108 14.3644 240.436 14.3644C234.328 14.3644 229.055 16.5549 224.616 20.936C220.177 25.317 217.971 30.6175 217.971 36.8646C217.971 43.1116 220.177 48.2499 224.616 52.7121C229.055 57.1472 234.328 59.3918 240.436 59.3918C246.543 59.3918 252.166 57.0661 256.659 52.4146L256.605 59.5H262.874V-7H257.143H257.197ZM252.3 48.7367C249.045 52.0089 245.09 53.6316 240.436 53.6316C235.781 53.6316 231.746 52.0089 228.517 48.7908C225.289 45.5726 223.674 41.5972 223.674 36.8646C223.674 32.132 225.289 28.1566 228.517 24.9384C231.746 21.7202 235.701 20.0976 240.436 20.0976C245.171 20.0976 249.045 21.7202 252.3 24.9925C255.556 28.2647 257.197 32.2131 257.197 36.8646C257.197 41.5161 255.556 45.4644 252.3 48.7367Z" fill="#04000E"/>
<path d="M70.3742 0.519287H64.6436V6.27956H70.3742V0.519287Z" fill="#04000E"/>
</g>
<defs>
<clipPath id="clip0_1_1703">
<rect width="264.5" height="59" fill="white" transform="translate(0.25 0.5)"/>
</clipPath>
</defs>
</svg>
