<svg width="118" height="38" viewBox="0 0 118 38" fill="none" xmlns="http://www.w3.org/2000/svg">
<g clip-path="url(#clip0_1_1270)">
<path d="M14.3102 30.0879L10.1527 37.3373H18.4452L14.3102 30.0879Z" fill="#39A4DD"/>
<path d="M9.52518 1.7666L5.39014 9.00478H13.6826L9.52518 1.7666Z" fill="#8CC34A"/>
<path d="M4.76257 10.1104L8.92003 17.3598L13.0551 10.1216H4.76257V10.1104Z" fill="#4EB748"/>
<path d="M10.1415 0.662109L14.2989 7.91156L18.4452 0.673384H10.1527L10.1415 0.662109Z" fill="#CEDD38"/>
<path d="M0 19.5576L4.15745 26.8071L8.2925 19.5689H0V19.5576Z" fill="#0C98A7"/>
<path d="M8.93131 20.6406L4.79626 27.8788H13.0888L8.93131 20.6406Z" fill="#0DBCD4"/>
<path d="M5.41248 28.9839L9.54752 36.2221L13.705 28.9727H5.41248V28.9839Z" fill="#44B3E7"/>
<path d="M4.15748 11.2373L0.0112305 18.4755H8.30373L4.14627 11.2373H4.15748Z" fill="#27A79A"/>
<path d="M21.695 24.6875L19.5658 28.3968H23.8241L21.6837 24.6875H21.695Z" fill="#39A4DD"/>
<path d="M24.1491 10.1553L22.0087 13.8758H26.267L24.1379 10.1553H24.1491Z" fill="#8CC34A"/>
<path d="M22.3337 14.4507L24.4629 18.16L26.6033 14.4395H22.3449L22.3337 14.4507Z" fill="#4EB748"/>
<path d="M19.5658 9.59135L21.695 13.3006L23.8353 9.58008H19.577L19.5658 9.59135Z" fill="#CEDD38"/>
<path d="M24.7767 19.2876L26.9058 22.9969L29.0462 19.2764H24.7879L24.7767 19.2876Z" fill="#0C98A7"/>
<path d="M24.4516 19.8398L22.3113 23.5604H26.5696L24.4404 19.8398H24.4516Z" fill="#0DBCD4"/>
<path d="M21.9976 24.1133L24.1379 27.8338L26.2671 24.1246H22.0088L21.9976 24.1133Z" fill="#44B3E7"/>
<path d="M26.9058 15.0146L24.7654 18.7352H29.0238L26.8946 15.0146H26.9058Z" fill="#27A79A"/>
<path d="M37.8093 9.62598H35.4224V28.4092H37.8093V9.62598Z" fill="white"/>
<path d="M49.5196 9.5918C46.9758 9.5918 44.7794 10.505 42.9304 12.3315C41.0814 14.1579 40.1625 16.3677 40.1625 18.9721C40.1625 21.5765 41.0814 23.7186 42.9304 25.5789C44.7794 27.4279 46.9758 28.3637 49.5196 28.3637C52.0634 28.3637 54.327 27.4392 56.1536 25.5789C57.969 23.7299 58.8879 21.5201 58.8879 18.9721C58.8879 16.4241 57.9802 14.1467 56.1536 12.3315C54.3382 10.505 52.1194 9.5918 49.5196 9.5918ZM54.4615 23.9216C53.1056 25.2858 51.4583 25.9623 49.5196 25.9623C47.581 25.9623 45.9 25.2858 44.5553 23.9441C43.2106 22.6025 42.5382 20.9451 42.5382 18.9721C42.5382 16.9991 43.2106 15.3417 44.5553 14.0001C45.9 12.6584 47.5473 11.982 49.5196 11.982C51.4919 11.982 53.1056 12.6584 54.4615 14.0226C55.8174 15.3868 56.501 17.0329 56.501 18.9721C56.501 20.9113 55.8174 22.5574 54.4615 23.9216Z" fill="white"/>
<path d="M69.9483 11.9824C72.0886 11.9824 73.8592 12.8054 75.2824 14.4628L77.1426 12.9858C76.2461 11.8809 75.1927 11.0466 73.9824 10.4716C72.7722 9.89665 71.4275 9.60352 69.9483 9.60352C67.4045 9.60352 65.2081 10.5167 63.3591 12.3432C61.5101 14.1697 60.5912 16.3794 60.5912 18.9838C60.5912 21.5882 61.5101 23.7304 63.3591 25.5906C65.2081 27.4396 67.4045 28.3754 69.9483 28.3754C71.3602 28.3754 72.6825 28.0936 73.8928 27.5298C75.1031 26.9661 76.1564 26.1656 77.0529 25.1171L75.1479 23.6402C73.7919 25.2073 72.055 25.9852 69.9483 25.9852C67.9872 25.9852 66.3287 25.3088 64.984 23.9671C63.6392 22.6255 62.9669 20.9681 62.9669 18.9951C62.9669 17.0221 63.6392 15.3647 64.984 14.0231C66.3287 12.6814 67.976 12.005 69.9483 12.005V11.9824Z" fill="white"/>
<path d="M88.2142 9.5918C85.6704 9.5918 83.474 10.505 81.625 12.3315C79.776 14.1579 78.8571 16.3677 78.8571 18.9721C78.8571 21.5765 79.776 23.7186 81.625 25.5789C83.474 27.4279 85.6704 28.3637 88.2142 28.3637C90.758 28.3637 93.0216 27.4392 94.8482 25.5789C96.6636 23.7299 97.5825 21.5201 97.5825 18.9721C97.5825 16.4241 96.6748 14.1467 94.8482 12.3315C93.0328 10.505 90.814 9.5918 88.2142 9.5918ZM93.1561 23.9216C91.8001 25.2858 90.1528 25.9623 88.2142 25.9623C86.2755 25.9623 84.5946 25.2858 83.2499 23.9441C81.9052 22.6025 81.2328 20.9451 81.2328 18.9721C81.2328 16.9991 81.9052 15.3417 83.2499 14.0001C84.5946 12.6584 86.2419 11.982 88.2142 11.982C90.1865 11.982 91.8001 12.6584 93.1561 14.0226C94.512 15.3868 95.1956 17.0329 95.1956 18.9721C95.1956 20.9113 94.512 22.5574 93.1561 23.9216Z" fill="white"/>
<path d="M115.624 0.696289V12.7261C113.742 10.6403 111.422 9.60308 108.643 9.60308C106.099 9.60308 103.903 10.5163 102.054 12.3428C100.205 14.1692 99.2858 16.379 99.2858 18.9834C99.2858 21.5878 100.205 23.7299 102.054 25.5902C103.903 27.4392 106.099 28.375 108.643 28.375C111.187 28.375 113.529 27.4054 115.4 25.4662L115.378 28.4201H117.989V0.696289H115.602H115.624ZM113.585 23.9329C112.229 25.2971 110.582 25.9735 108.643 25.9735C106.704 25.9735 105.023 25.2971 103.679 23.9554C102.334 22.6138 101.661 20.9564 101.661 18.9834C101.661 17.0104 102.334 15.353 103.679 14.0114C105.023 12.6697 106.671 11.9933 108.643 11.9933C110.615 11.9933 112.229 12.6697 113.585 14.0339C114.941 15.3981 115.624 17.0442 115.624 18.9834C115.624 20.9226 114.941 22.5687 113.585 23.9329Z" fill="white"/>
<path d="M37.8093 3.83105H35.4224V6.23251H37.8093V3.83105Z" fill="white"/>
</g>
<defs>
<clipPath id="clip0_1_1270">
<rect width="118" height="36.6757" fill="white" transform="translate(0 0.662109)"/>
</clipPath>
</defs>
</svg>
