<svg width="20" height="20" viewBox="0 0 20 20" fill="none" xmlns="http://www.w3.org/2000/svg">
<g clip-path="url(#clip0_1_1313)">
<path d="M16.7252 4.10801C17.5002 4.8808 18.1149 5.79912 18.5339 6.81021C18.9529 7.82129 19.168 8.9052 19.1668 9.99968C19.1668 12.2997 18.2335 14.383 16.7252 15.8913L15.5502 14.7163C16.1714 14.0985 16.6636 13.3633 16.9984 12.5536C17.3331 11.744 17.5037 10.8758 17.5002 9.99968C17.5002 8.15801 16.7585 6.48301 15.5502 5.28301L16.7252 4.10801ZM14.3668 6.46634C14.832 6.92964 15.201 7.4803 15.4527 8.08666C15.7044 8.69302 15.8338 9.34315 15.8335 9.99968C15.8335 11.3747 15.2752 12.6247 14.3668 13.533L13.1918 12.358C13.5016 12.0485 13.7473 11.6808 13.9146 11.2761C14.0819 10.8714 14.1676 10.4376 14.1668 9.99968C14.1668 9.07468 13.7918 8.24134 13.1918 7.64134L14.3668 6.46634ZM10.8335 8.33301C11.2755 8.33301 11.6994 8.5086 12.012 8.82116C12.3246 9.13373 12.5002 9.55765 12.5002 9.99968C12.5002 10.4417 12.3246 10.8656 12.012 11.1782C11.6994 11.4907 11.2755 11.6663 10.8335 11.6663C10.3915 11.6663 9.96755 11.4907 9.65499 11.1782C9.34243 10.8656 9.16683 10.4417 9.16683 9.99968C9.16683 9.55765 9.34243 9.13373 9.65499 8.82116C9.96755 8.5086 10.3915 8.33301 10.8335 8.33301ZM9.5835 0.833008C10.136 0.833008 10.6659 1.0525 11.0566 1.4432C11.4473 1.8339 11.6668 2.36381 11.6668 2.91634V6.66634H10.0002V3.33301H2.50016V15.833H10.0002V13.333H11.6668V17.083C11.6668 17.6355 11.4473 18.1654 11.0566 18.5561C10.6659 18.9468 10.136 19.1663 9.5835 19.1663H2.91683C2.3643 19.1663 1.83439 18.9468 1.44369 18.5561C1.05299 18.1654 0.833496 17.6355 0.833496 17.083V2.91634C0.833496 2.36381 1.05299 1.8339 1.44369 1.4432C1.83439 1.0525 2.3643 0.833008 2.91683 0.833008H9.5835Z" fill="white"/>
</g>
<defs>
<clipPath id="clip0_1_1313">
<rect width="20" height="20" fill="white"/>
</clipPath>
</defs>
</svg>
