<svg width="19" height="19" viewBox="0 0 19 19" fill="none" xmlns="http://www.w3.org/2000/svg">
<path d="M15.6575 7.11502L11 2.58502C10.6055 2.20991 10.0819 2.00073 9.5375 2.00073C8.99311 2.00073 8.46953 2.20991 8.075 2.58502L3.4175 7.08502C3.21056 7.26567 3.04412 7.488 2.92909 7.73745C2.81406 7.9869 2.75303 8.25784 2.75 8.53252V14.9675C2.75791 15.5132 2.98178 16.0336 3.37259 16.4145C3.76339 16.7955 4.28926 17.006 4.835 17H14.165C14.7107 17.006 15.2366 16.7955 15.6274 16.4145C16.0182 16.0336 16.2421 15.5132 16.25 14.9675V8.53252C16.2494 8.26887 16.1968 8.00794 16.0951 7.76469C15.9934 7.52144 15.8447 7.30066 15.6575 7.11502V7.11502ZM9.08 3.66502C9.19473 3.56014 9.34455 3.50198 9.5 3.50198C9.65545 3.50198 9.80527 3.56014 9.92 3.66502L14 7.62502L9.8975 11.585C9.78277 11.6899 9.63295 11.7481 9.4775 11.7481C9.32205 11.7481 9.17223 11.6899 9.0575 11.585L5 7.62502L9.08 3.66502ZM14.75 14.9675C14.7404 15.1147 14.674 15.2525 14.5649 15.3518C14.4558 15.4511 14.3125 15.5042 14.165 15.5H4.835C4.68753 15.5042 4.54418 15.4511 4.43509 15.3518C4.32599 15.2525 4.25965 15.1147 4.25 14.9675V9.01252L7.2875 11.9375L6.0425 13.1375C5.90281 13.278 5.82441 13.4681 5.82441 13.6663C5.82441 13.8644 5.90281 14.0545 6.0425 14.195C6.11221 14.2681 6.19597 14.3264 6.28877 14.3664C6.38156 14.4063 6.48147 14.4271 6.5825 14.4275C6.7756 14.4267 6.96097 14.3515 7.1 14.2175L8.4275 12.9425C8.75721 13.144 9.13611 13.2506 9.5225 13.2506C9.90889 13.2506 10.2878 13.144 10.6175 12.9425L11.945 14.2175C12.084 14.3515 12.2694 14.4267 12.4625 14.4275C12.5635 14.4271 12.6634 14.4063 12.7562 14.3664C12.849 14.3264 12.9328 14.2681 13.0025 14.195C13.1422 14.0545 13.2206 13.8644 13.2206 13.6663C13.2206 13.4681 13.1422 13.278 13.0025 13.1375L11.75 11.9375L14.75 9.01252V14.9675Z" fill="#04000E" fill-opacity="0.7"/>
</svg>
