<svg width="61" height="61" viewBox="0 0 61 61" fill="none" xmlns="http://www.w3.org/2000/svg">
<path d="M54.6116 43.0727V50.5727C54.6145 51.269 54.4719 51.9581 54.1929 52.5961C53.914 53.234 53.5049 53.8067 52.9918 54.2774C52.4788 54.7481 51.8731 55.1064 51.2135 55.3295C50.554 55.5525 49.8551 55.6354 49.1616 55.5727C41.4687 54.7368 34.0791 52.1081 27.5866 47.8977C21.5462 44.0594 16.425 38.9381 12.5866 32.8977C8.36159 26.3757 5.73226 18.9502 4.91165 11.2227C4.84918 10.5314 4.93134 9.8346 5.1529 9.17676C5.37446 8.51892 5.73058 7.91443 6.19856 7.40176C6.66655 6.88909 7.23616 6.47948 7.87113 6.19901C8.50609 5.91854 9.1925 5.77336 9.88665 5.7727H17.3866C18.5999 5.76076 19.7761 6.1904 20.6961 6.98153C21.616 7.77267 22.2168 8.87132 22.3866 10.0727C22.7032 12.4729 23.2903 14.8295 24.1367 17.0977C24.473 17.9925 24.5458 18.965 24.3464 19.8999C24.147 20.8348 23.6838 21.693 23.0116 22.3727L19.8366 25.5477C23.3955 31.8066 28.5778 36.9888 34.8366 40.5477L38.0116 37.3727C38.6914 36.7005 39.5495 36.2373 40.4844 36.0379C41.4194 35.8385 42.3918 35.9113 43.2866 36.2477C45.5548 37.0941 47.9115 37.6811 50.3117 37.9977C51.5261 38.169 52.6352 38.7807 53.428 39.7164C54.2208 40.6522 54.6421 41.8466 54.6116 43.0727Z" stroke="white" stroke-linecap="round" stroke-linejoin="round"/>
</svg>
