<svg width="27" height="27" viewBox="0 0 27 27" fill="none" xmlns="http://www.w3.org/2000/svg">
<path d="M16.1609 4.40502C16.1816 4.32764 16.2173 4.25509 16.2659 4.1915C16.3146 4.12792 16.3754 4.07456 16.4447 4.03447C16.514 3.99439 16.5906 3.96836 16.67 3.95787C16.7494 3.94739 16.8301 3.95266 16.9074 3.97338C18.3793 4.35731 19.7221 5.12669 20.7977 6.20226C21.8733 7.27782 22.6426 8.62069 23.0266 10.0925C23.0473 10.1699 23.0526 10.2506 23.0421 10.33C23.0316 10.4094 23.0056 10.4859 22.9655 10.5552C22.9254 10.6246 22.872 10.6853 22.8084 10.734C22.7449 10.7827 22.6723 10.8184 22.5949 10.839C22.5436 10.8527 22.4906 10.8595 22.4375 10.8593C22.3032 10.8594 22.1727 10.8151 22.0662 10.7334C21.9597 10.6517 21.8831 10.5371 21.8484 10.4074C21.5188 9.14311 20.858 7.98961 19.9342 7.06576C19.0103 6.1419 17.8568 5.48112 16.5926 5.15151C16.5152 5.13088 16.4426 5.0952 16.3791 5.04651C16.3155 4.99781 16.2621 4.93707 16.222 4.86774C16.1819 4.79841 16.1559 4.72186 16.1454 4.64246C16.1349 4.56307 16.1402 4.48238 16.1609 4.40502ZM15.7801 8.40151C17.2578 8.79557 18.2044 9.74213 18.5984 11.2199C18.6331 11.3496 18.7097 11.4642 18.8162 11.5459C18.9227 11.6276 19.0532 11.6719 19.1875 11.6718C19.2406 11.672 19.2936 11.6652 19.3449 11.6515C19.4223 11.6309 19.4949 11.5952 19.5584 11.5465C19.622 11.4978 19.6754 11.4371 19.7155 11.3677C19.7556 11.2984 19.7816 11.2219 19.7921 11.1425C19.8026 11.0631 19.7973 10.9824 19.7766 10.905C19.2688 9.00479 17.9952 7.7312 16.0949 7.22338C16.0176 7.20271 15.9369 7.19748 15.8575 7.20798C15.7781 7.21849 15.7016 7.24452 15.6323 7.2846C15.4923 7.36555 15.3902 7.4988 15.3484 7.65502C15.3067 7.81125 15.3287 7.97767 15.4097 8.11766C15.4906 8.25766 15.6239 8.35976 15.7801 8.40151ZM23.8482 18.2531C23.6742 19.5807 23.0227 20.7996 22.0154 21.6818C21.0081 22.5641 19.714 23.0493 18.375 23.0468C10.4227 23.0468 3.95313 16.5773 3.95313 8.62495C3.95056 7.2864 4.43537 5.99269 5.31698 4.98547C6.1986 3.97826 7.41673 3.32643 8.74383 3.15174C9.04933 3.11462 9.35863 3.17761 9.62527 3.33126C9.89191 3.48491 10.1015 3.72092 10.2226 4.00385L12.3656 8.78745C12.4602 9.00401 12.4993 9.24073 12.4795 9.47623C12.4596 9.71172 12.3814 9.93854 12.2518 10.1362C12.2387 10.1563 12.2245 10.1756 12.2091 10.1941L10.0692 12.7392C10.0562 12.7656 10.0495 12.7946 10.0495 12.824C10.0495 12.8535 10.0562 12.8825 10.0692 12.9089C10.8472 14.5014 12.5169 16.1589 14.1317 16.9358C14.1587 16.9481 14.1881 16.9539 14.2178 16.9529C14.2474 16.9518 14.2763 16.9439 14.3023 16.9297L16.8099 14.7969C16.8278 14.7813 16.8468 14.7671 16.8668 14.7542C17.0636 14.6231 17.29 14.543 17.5255 14.5214C17.761 14.4997 17.9982 14.5372 18.2156 14.6303L23.0134 16.7804C23.2925 16.9041 23.5244 17.1144 23.6748 17.3802C23.8252 17.646 23.886 17.9531 23.8482 18.2561V18.2531ZM22.6406 18.1028C22.644 18.0603 22.634 18.0178 22.6119 17.9814C22.5899 17.9449 22.5569 17.9163 22.5177 17.8996L17.7189 15.7496C17.6927 15.7394 17.6646 15.7351 17.6365 15.7369C17.6085 15.7386 17.5812 15.7464 17.5564 15.7597L15.0498 17.8925C15.0316 17.9078 15.0123 17.922 14.993 17.9352C14.7885 18.0715 14.5522 18.1525 14.3071 18.1703C14.062 18.1881 13.8165 18.1421 13.5945 18.0367C11.7298 17.1359 9.87117 15.2946 8.97032 13.4471C8.86436 13.2264 8.81719 12.9821 8.83339 12.7378C8.84958 12.4935 8.92858 12.2575 9.06274 12.0527C9.07581 12.0323 9.09041 12.013 9.10641 11.9948L11.2453 9.44963C11.2575 9.42303 11.2639 9.3941 11.2639 9.36483C11.2639 9.33556 11.2575 9.30663 11.2453 9.28002L9.10641 4.49237C9.09229 4.45394 9.0669 4.42068 9.03355 4.39694C9.0002 4.3732 8.96046 4.36009 8.91953 4.35932H8.89617C7.86323 4.49673 6.9156 5.0054 6.23026 5.79037C5.54491 6.57533 5.1687 7.5829 5.17188 8.62495C5.17188 15.9049 11.095 21.8281 18.375 21.8281C19.4172 21.8312 20.4249 21.4549 21.2099 20.7693C21.9949 20.0838 22.5035 19.1359 22.6406 18.1028Z" fill="#04000E"/>
</svg>
