<svg width="80" height="80" viewBox="0 0 80 80" fill="none" xmlns="http://www.w3.org/2000/svg">
<path d="M53.4048 17.0053C38.7306 14.5184 22.2047 15.4478 11.2092 23.9143C-0.12178 32.6392 2.0544 47.51 15.4303 51.5316C17.4259 52.1317 19.3057 52.8259 21.6858 52.9906C21.8231 53.0002 25.5416 62.2985 25.8252 62.3385C26.0499 62.3703 34.3755 53.917 34.4887 53.9187C36.3529 53.9457 38.2288 53.7817 40.1026 53.6105C49.4283 52.7586 58.6999 50.2191 66.1758 46.1199C82.6185 37.1039 69.6648 20.21 56.1685 17.9183M58.9249 18.5966C59.5476 18.1977 60.1356 17.7462 60.7679 17.3625M61.4877 19.5618C62.3547 18.9439 63.2101 18.317 64.0876 17.7148M63.8207 20.7862C64.6873 20.1177 65.5379 19.316 66.4839 18.7601M66.1582 22.3213C67.014 21.5768 67.9819 20.7633 68.9826 20.2084M68.6117 24.4263C69.3846 23.6956 70.264 23.0983 71.149 22.512M70.793 26.9013C71.4488 26.2851 72.1007 25.6786 72.8474 25.1708M72.379 29.4608C73.0839 28.8054 73.861 28.1108 74.6965 27.6154M73.585 32.6394C74.3438 31.9827 75.1686 31.4113 75.9566 30.7913M73.8259 36.4662C74.5915 35.8912 75.3217 35.2489 76.1459 34.7557M15.224 53.2647C15.7826 52.8084 16.3819 52.3926 16.9838 51.9956M19.2319 54.3991C19.8888 53.9082 20.575 53.4413 21.2442 52.9666M34.742 56.3685C35.5692 55.5354 36.3895 54.6961 37.1847 53.8328M33.3912 57.7931C32.7514 58.5266 31.987 59.1415 31.3341 59.8671M30.1229 61.1879C29.0083 62.0067 28.2696 63.262 27.2593 64.1986M38.8234 55.8952C39.9353 55.1144 40.9043 54.1591 42.0412 53.4107M44.2569 55.3646C45.2106 54.4602 46.1127 53.3853 47.1986 52.6358M49.3149 54.3889C50.1476 53.3368 51.1465 52.296 52.25 51.5153M54.7604 53.2559C55.8354 51.9464 57.0969 50.6164 58.455 49.5939M60.444 51.2272C61.8058 49.5513 63.6394 48.0301 65.2821 46.6205M66.7429 49.3686C69.5844 45.7244 72.909 42.4053 75.9713 38.946M71.763 47.267C73.0286 45.7613 74.3859 44.2925 75.7148 42.8392" stroke="#04000E" stroke-width="2" stroke-miterlimit="1.5" stroke-linecap="round" stroke-linejoin="round"/>
</svg>
