<svg width="79" height="46" viewBox="0 0 79 46" fill="none" xmlns="http://www.w3.org/2000/svg">
<g clip-path="url(#clip0_1_1240)">
<rect width="79" height="46" fill="url(#paint0_linear_1_1240)"/>
<path fill-rule="evenodd" clip-rule="evenodd" d="M30.4901 -16.3353L30.5291 -16.1599C30.6625 -15.4125 30.7808 -14.65 30.9245 -14.1508C32.8931 -7.34857 32.5321 0.66354 31.8684 7.64672C30.2723 24.3545 29.5734 41.1455 29.195 57.9273C29.0886 62.6295 29.5586 67.3402 29.7575 72.0331C29.8178 73.4219 29.9009 74.8031 29.9803 76.188C30.0214 76.7907 29.7913 78.0587 29.8022 78.715C29.8046 79.1882 29.9245 79.5349 30.0324 79.7328C30.3172 80.2275 30.7265 80.4354 31.1808 80.4675C31.4748 80.4928 31.9478 80.4598 32.4452 79.9498C37.6582 74.5698 42.0339 65.0494 45.8312 54.3261C51.4086 38.5755 55.79 20.2283 60.097 9.15894C61.2312 6.24916 62.5204 -0.0769895 64.2688 -5.34062C65.0395 -7.67616 65.8647 -9.80593 66.8461 -11.2037C66.8034 -9.82586 66.5903 -8.11508 66.6333 -7.13834C66.8222 -2.91853 66.3587 1.31586 66.2995 5.53309C66.1152 18.3603 73.3832 57.1736 76.7005 69.6629C79.38 79.7664 100.09 135.793 123.125 161.796C123.62 162.355 124.471 162.408 125.029 161.913C125.588 161.418 125.637 160.563 125.146 160.008C102.388 134.316 81.9558 78.9522 79.3074 68.9706C76.0289 56.6185 68.8128 18.2516 68.9979 5.57698C69.0606 1.3025 69.5163 -2.98544 69.3272 -7.25868C69.2585 -8.80009 69.7004 -12.0307 69.3883 -13.3878C69.2128 -14.154 68.8059 -14.6099 68.4041 -14.8254C67.9105 -15.0863 67.2193 -15.2011 66.3675 -14.5787C64.9759 -13.5566 63.7079 -11.44 62.6412 -8.77478C60.4248 -3.22261 58.9 4.799 57.585 8.18289C53.2704 19.2676 48.8739 37.6455 43.289 53.4266C40.1729 62.2195 36.7129 70.2011 32.6485 75.5564C32.5738 74.3432 32.5105 73.1338 32.4549 71.9167C32.2525 67.281 31.7868 62.6351 31.8897 57.9903C32.2722 41.2733 32.9637 24.5433 34.5526 7.90432C35.249 0.596601 35.5738 -7.78555 33.5196 -14.9002C33.2284 -15.9025 33.0083 -17.9812 32.5462 -18.8185C32.2497 -19.3551 31.8398 -19.6467 31.4461 -19.7631C30.9645 -19.9133 30.3806 -19.8991 29.7575 -19.3617C27.2 -17.1699 23.9379 -12.4332 20.502 -6.5391C12.7033 6.85262 3.85838 26.2716 -0.0908672 34.0649C-2.74386 39.2987 -5.19763 44.6688 -8.01515 49.8156C-8.15507 50.072 -11.227 54.7317 -12.6929 56.9485C-13.4022 55.5095 -14.0962 53.3034 -14.8073 50.7309C-17.2985 41.6874 -19.4835 28.185 -20.1984 24.0975C-21.573 16.2582 -22.7418 8.40268 -24.2995 0.594784C-26.7573 -11.7271 -29.6152 -23.9515 -31.9396 -36.3007C-32.073 -37.0328 -32.7813 -37.514 -33.5095 -37.3768C-34.2454 -37.2395 -34.7266 -36.5312 -34.5894 -35.803C-32.2688 -23.4423 -29.4069 -11.2064 -26.9453 1.12688C-25.3916 8.90808 -24.2268 16.7445 -22.8561 24.5648C-22.1334 28.6904 -19.9209 42.3187 -17.4065 51.4461C-16.2561 55.6306 -14.9654 58.8985 -13.7914 60.1444C-13.4615 60.4862 -12.5965 60.978 -11.6278 60.0916C-10.3894 58.9559 -5.84703 51.4763 -5.64657 51.1128C-2.81774 45.9392 -0.352616 40.5424 2.31553 35.2857C6.25345 27.5191 15.0645 8.16516 22.8368 -5.17682C25.6331 -9.98008 28.2692 -14.0002 30.4901 -16.3353Z" fill="#FFFFFC"/>
</g>
<defs>
<linearGradient id="paint0_linear_1_1240" x1="39.5" y1="0" x2="39.5" y2="46" gradientUnits="userSpaceOnUse">
<stop stop-color="#CEDD39"/>
<stop offset="1" stop-color="#43B4E7"/>
</linearGradient>
<clipPath id="clip0_1_1240">
<rect width="79" height="46" fill="white"/>
</clipPath>
</defs>
</svg>
